%TF.GenerationSoftware,KiCad,Pcbnew,10.0.1*%
%TF.CreationDate,2026-05-12T00:34:34+01:00*%
%TF.ProjectId,Smart Power Management Board.,536d6172-7420-4506-9f77-6572204d616e,rev?*%
%TF.SameCoordinates,Original*%
%TF.FileFunction,Copper,L2,Bot*%
%TF.FilePolarity,Positive*%
%FSLAX46Y46*%
G04 Gerber Fmt 4.6, Leading zero omitted, Abs format (unit mm)*
G04 Created by KiCad (PCBNEW 10.0.1) date 2026-05-12 00:34:34*
%MOMM*%
%LPD*%
G01*
G04 APERTURE LIST*
G04 Aperture macros list*
%AMRoundRect*
0 Rectangle with rounded corners*
0 $1 Rounding radius*
0 $2 $3 $4 $5 $6 $7 $8 $9 X,Y pos of 4 corners*
0 Add a 4 corners polygon primitive as box body*
4,1,4,$2,$3,$4,$5,$6,$7,$8,$9,$2,$3,0*
0 Add four circle primitives for the rounded corners*
1,1,$1+$1,$2,$3*
1,1,$1+$1,$4,$5*
1,1,$1+$1,$6,$7*
1,1,$1+$1,$8,$9*
0 Add four rect primitives between the rounded corners*
20,1,$1+$1,$2,$3,$4,$5,0*
20,1,$1+$1,$4,$5,$6,$7,0*
20,1,$1+$1,$6,$7,$8,$9,0*
20,1,$1+$1,$8,$9,$2,$3,0*%
G04 Aperture macros list end*
%TA.AperFunction,ComponentPad*%
%ADD10RoundRect,0.250000X1.050000X-1.050000X1.050000X1.050000X-1.050000X1.050000X-1.050000X-1.050000X0*%
%TD*%
%TA.AperFunction,ComponentPad*%
%ADD11C,2.600000*%
%TD*%
%TA.AperFunction,ComponentPad*%
%ADD12R,1.700000X1.700000*%
%TD*%
%TA.AperFunction,ComponentPad*%
%ADD13C,1.700000*%
%TD*%
%TA.AperFunction,ComponentPad*%
%ADD14RoundRect,0.250000X-0.550000X-0.550000X0.550000X-0.550000X0.550000X0.550000X-0.550000X0.550000X0*%
%TD*%
%TA.AperFunction,ComponentPad*%
%ADD15C,1.600000*%
%TD*%
%TA.AperFunction,ComponentPad*%
%ADD16RoundRect,0.250000X0.550000X-0.550000X0.550000X0.550000X-0.550000X0.550000X-0.550000X-0.550000X0*%
%TD*%
%TA.AperFunction,HeatsinkPad*%
%ADD17C,0.500000*%
%TD*%
%TA.AperFunction,HeatsinkPad*%
%ADD18R,1.900000X2.900000*%
%TD*%
%TA.AperFunction,ComponentPad*%
%ADD19RoundRect,0.250000X-1.050000X1.050000X-1.050000X-1.050000X1.050000X-1.050000X1.050000X1.050000X0*%
%TD*%
%TA.AperFunction,ComponentPad*%
%ADD20RoundRect,0.250000X0.625000X-0.350000X0.625000X0.350000X-0.625000X0.350000X-0.625000X-0.350000X0*%
%TD*%
%TA.AperFunction,ComponentPad*%
%ADD21O,1.750000X1.200000*%
%TD*%
%TA.AperFunction,ViaPad*%
%ADD22C,0.600000*%
%TD*%
%TA.AperFunction,Conductor*%
%ADD23C,0.600000*%
%TD*%
%TA.AperFunction,Conductor*%
%ADD24C,0.250000*%
%TD*%
%TA.AperFunction,Conductor*%
%ADD25C,0.800000*%
%TD*%
G04 APERTURE END LIST*
D10*
%TO.P,J3,1,Pin_1_1*%
%TO.N,/SYS_5V_LOAD*%
X165272500Y-85795000D03*
D11*
%TO.P,J3,2,Pin_2_2*%
%TO.N,GND*%
X165272500Y-80715000D03*
%TD*%
D12*
%TO.P,J4,1,Pin_1_1*%
%TO.N,/BAT+*%
X168522500Y-94215000D03*
D13*
%TO.P,J4,2,Pin_2_2*%
%TO.N,/BAT_SENSE*%
X168522500Y-96755000D03*
%TO.P,J4,3,Pin_3_3*%
%TO.N,GND*%
X168522500Y-99295000D03*
%TD*%
D14*
%TO.P,C2,1*%
%TO.N,+5V*%
X151197349Y-84250000D03*
D15*
%TO.P,C2,2*%
%TO.N,GND*%
X154697349Y-84250000D03*
%TD*%
D16*
%TO.P,C1,1*%
%TO.N,/SYS_VIN*%
X131500000Y-63652651D03*
D15*
%TO.P,C1,2*%
%TO.N,GND*%
X131500000Y-60152651D03*
%TD*%
D17*
%TO.P,U2,9,EPAD_9*%
%TO.N,GND*%
X121650000Y-90225000D03*
X121650000Y-91425000D03*
X121650000Y-92625000D03*
D18*
X122350000Y-91425000D03*
D17*
X123050000Y-90225000D03*
X123050000Y-91425000D03*
X123050000Y-92625000D03*
%TD*%
D19*
%TO.P,J1,1,Pin_1_1*%
%TO.N,GND*%
X116577500Y-67205000D03*
D11*
%TO.P,J1,2,Pin_2_2*%
%TO.N,/VIN_12V*%
X116577500Y-72285000D03*
%TD*%
D20*
%TO.P,J2,1,Pin_1_1*%
%TO.N,/BAT+*%
X112950000Y-98000000D03*
D21*
%TO.P,J2,2,Pin_2_2*%
%TO.N,GND*%
X112950000Y-96000000D03*
%TD*%
D22*
%TO.N,GND*%
X155750000Y-74500000D03*
X133250000Y-83000000D03*
X124750000Y-71000000D03*
X141750000Y-64500000D03*
X118750000Y-88000000D03*
X137750000Y-93500000D03*
X116750000Y-62750000D03*
X150500000Y-67750000D03*
X122750000Y-98250000D03*
%TO.N,+5V*%
X126500000Y-92250000D03*
X149750000Y-96050000D03*
X121000000Y-94500000D03*
%TO.N,/BAT_SENSE*%
X142000000Y-93750000D03*
X162750000Y-96750000D03*
%TO.N,/VIN_FUSED*%
X125500000Y-80000000D03*
X140625000Y-96875000D03*
%TO.N,/SYS_VIN*%
X132750000Y-75500000D03*
X131500000Y-82500000D03*
%TD*%
%TO.N,+5V*%
D23*
X124250000Y-94500000D02*
X121000000Y-94500000D01*
X151197349Y-92302651D02*
X151197349Y-84250000D01*
X149750000Y-93750000D02*
X151197349Y-92302651D01*
X126500000Y-92250000D02*
X124250000Y-94500000D01*
X149750000Y-96050000D02*
X149750000Y-93750000D01*
%TO.N,/BAT_SENSE*%
D24*
X145200000Y-96950000D02*
X142000000Y-93750000D01*
X162550000Y-96950000D02*
X145200000Y-96950000D01*
X162750000Y-96750000D02*
X162550000Y-96950000D01*
%TO.N,/VIN_FUSED*%
D25*
X133000000Y-87500000D02*
X125500000Y-80000000D01*
X140500000Y-97000000D02*
X137000000Y-97000000D01*
X140625000Y-96875000D02*
X140500000Y-97000000D01*
X137000000Y-97000000D02*
X133000000Y-93000000D01*
X133000000Y-93000000D02*
X133000000Y-87500000D01*
%TO.N,/SYS_VIN*%
X131500000Y-76750000D02*
X132750000Y-75500000D01*
X131500000Y-82500000D02*
X131500000Y-76750000D01*
%TD*%
%TA.AperFunction,Conductor*%
%TO.N,GND*%
G36*
X173442539Y-55295185D02*
G01*
X173488294Y-55347989D01*
X173499500Y-55399500D01*
X173499500Y-109625500D01*
X173479815Y-109692539D01*
X173427011Y-109738294D01*
X173375500Y-109749500D01*
X107872000Y-109749500D01*
X107804961Y-109729815D01*
X107759206Y-109677011D01*
X107748000Y-109625500D01*
X107748000Y-104897648D01*
X110699500Y-104897648D01*
X110699500Y-105102351D01*
X110731522Y-105304534D01*
X110794781Y-105499223D01*
X110887715Y-105681613D01*
X111008028Y-105847213D01*
X111152786Y-105991971D01*
X111307749Y-106104556D01*
X111318390Y-106112287D01*
X111434607Y-106171503D01*
X111500776Y-106205218D01*
X111500778Y-106205218D01*
X111500781Y-106205220D01*
X111605137Y-106239127D01*
X111695465Y-106268477D01*
X111796557Y-106284488D01*
X111897648Y-106300500D01*
X111897649Y-106300500D01*
X112102351Y-106300500D01*
X112102352Y-106300500D01*
X112304534Y-106268477D01*
X112499219Y-106205220D01*
X112681610Y-106112287D01*
X112774590Y-106044732D01*
X112847213Y-105991971D01*
X112847215Y-105991968D01*
X112847219Y-105991966D01*
X112991966Y-105847219D01*
X112991968Y-105847215D01*
X112991971Y-105847213D01*
X113044732Y-105774590D01*
X113112287Y-105681610D01*
X113205220Y-105499219D01*
X113268477Y-105304534D01*
X113293326Y-105147648D01*
X166699500Y-105147648D01*
X166699500Y-105352351D01*
X166731522Y-105554534D01*
X166794781Y-105749223D01*
X166887715Y-105931613D01*
X167008028Y-106097213D01*
X167152786Y-106241971D01*
X167307749Y-106354556D01*
X167318390Y-106362287D01*
X167434607Y-106421503D01*
X167500776Y-106455218D01*
X167500778Y-106455218D01*
X167500781Y-106455220D01*
X167605137Y-106489127D01*
X167695465Y-106518477D01*
X167796557Y-106534488D01*
X167897648Y-106550500D01*
X167897649Y-106550500D01*
X168102351Y-106550500D01*
X168102352Y-106550500D01*
X168304534Y-106518477D01*
X168499219Y-106455220D01*
X168681610Y-106362287D01*
X168774590Y-106294732D01*
X168847213Y-106241971D01*
X168847215Y-106241968D01*
X168847219Y-106241966D01*
X168991966Y-106097219D01*
X168991968Y-106097215D01*
X168991971Y-106097213D01*
X169044732Y-106024590D01*
X169112287Y-105931610D01*
X169205220Y-105749219D01*
X169268477Y-105554534D01*
X169300500Y-105352352D01*
X169300500Y-105147648D01*
X169268477Y-104945466D01*
X169205220Y-104750781D01*
X169205218Y-104750778D01*
X169205218Y-104750776D01*
X169171503Y-104684607D01*
X169112287Y-104568390D01*
X169063163Y-104500776D01*
X168991971Y-104402786D01*
X168847213Y-104258028D01*
X168681613Y-104137715D01*
X168681612Y-104137714D01*
X168681610Y-104137713D01*
X168624653Y-104108691D01*
X168499223Y-104044781D01*
X168304534Y-103981522D01*
X168129995Y-103953878D01*
X168102352Y-103949500D01*
X167897648Y-103949500D01*
X167873329Y-103953351D01*
X167695465Y-103981522D01*
X167500776Y-104044781D01*
X167318386Y-104137715D01*
X167152786Y-104258028D01*
X167008028Y-104402786D01*
X166887715Y-104568386D01*
X166794781Y-104750776D01*
X166731522Y-104945465D01*
X166699500Y-105147648D01*
X113293326Y-105147648D01*
X113300500Y-105102352D01*
X113300500Y-104897648D01*
X113268477Y-104695466D01*
X113205220Y-104500781D01*
X113205218Y-104500778D01*
X113205218Y-104500776D01*
X113155286Y-104402781D01*
X113112287Y-104318390D01*
X113104556Y-104307749D01*
X112991971Y-104152786D01*
X112847213Y-104008028D01*
X112681613Y-103887715D01*
X112681612Y-103887714D01*
X112681610Y-103887713D01*
X112624653Y-103858691D01*
X112499223Y-103794781D01*
X112304534Y-103731522D01*
X112129995Y-103703878D01*
X112102352Y-103699500D01*
X111897648Y-103699500D01*
X111873329Y-103703351D01*
X111695465Y-103731522D01*
X111500776Y-103794781D01*
X111318386Y-103887715D01*
X111152786Y-104008028D01*
X111008028Y-104152786D01*
X110887715Y-104318386D01*
X110794781Y-104500776D01*
X110731522Y-104695465D01*
X110699500Y-104897648D01*
X107748000Y-104897648D01*
X107748000Y-97599983D01*
X111574500Y-97599983D01*
X111574500Y-98400001D01*
X111574501Y-98400019D01*
X111585000Y-98502796D01*
X111585001Y-98502799D01*
X111613052Y-98587449D01*
X111640186Y-98669334D01*
X111732288Y-98818656D01*
X111856344Y-98942712D01*
X112005666Y-99034814D01*
X112172203Y-99089999D01*
X112274991Y-99100500D01*
X113625008Y-99100499D01*
X113727797Y-99089999D01*
X113894334Y-99034814D01*
X114043656Y-98942712D01*
X114167712Y-98818656D01*
X114259814Y-98669334D01*
X114314999Y-98502797D01*
X114325500Y-98400009D01*
X114325499Y-97599992D01*
X114322847Y-97574035D01*
X114314999Y-97497203D01*
X114314998Y-97497200D01*
X114314861Y-97496786D01*
X114259814Y-97330666D01*
X114167712Y-97181344D01*
X114043656Y-97057288D01*
X114043655Y-97057287D01*
X113979019Y-97017420D01*
X113932294Y-96965472D01*
X113921071Y-96896510D01*
X113948914Y-96832428D01*
X113956434Y-96824199D01*
X114064035Y-96716598D01*
X114165804Y-96576524D01*
X114244408Y-96422255D01*
X114297914Y-96257584D01*
X114299115Y-96250000D01*
X113230330Y-96250000D01*
X113250075Y-96230255D01*
X113299444Y-96144745D01*
X113325000Y-96049370D01*
X113325000Y-95950630D01*
X113299444Y-95855255D01*
X113250075Y-95769745D01*
X113230330Y-95750000D01*
X114299115Y-95750000D01*
X114299115Y-95749999D01*
X114297914Y-95742415D01*
X114244408Y-95577744D01*
X114165804Y-95423475D01*
X114064032Y-95283397D01*
X113941602Y-95160967D01*
X113801524Y-95059195D01*
X113647257Y-94980591D01*
X113482584Y-94927085D01*
X113311571Y-94900000D01*
X113200000Y-94900000D01*
X113200000Y-95719670D01*
X113180255Y-95699925D01*
X113094745Y-95650556D01*
X112999370Y-95625000D01*
X112900630Y-95625000D01*
X112805255Y-95650556D01*
X112719745Y-95699925D01*
X112700000Y-95719670D01*
X112700000Y-94900000D01*
X112588429Y-94900000D01*
X112417415Y-94927085D01*
X112252742Y-94980591D01*
X112098475Y-95059195D01*
X111958397Y-95160967D01*
X111835967Y-95283397D01*
X111734195Y-95423475D01*
X111655591Y-95577744D01*
X111602085Y-95742415D01*
X111600884Y-95749999D01*
X111600885Y-95750000D01*
X112669670Y-95750000D01*
X112649925Y-95769745D01*
X112600556Y-95855255D01*
X112575000Y-95950630D01*
X112575000Y-96049370D01*
X112600556Y-96144745D01*
X112649925Y-96230255D01*
X112669670Y-96250000D01*
X111600885Y-96250000D01*
X111602085Y-96257584D01*
X111655591Y-96422255D01*
X111734195Y-96576524D01*
X111835967Y-96716602D01*
X111943565Y-96824200D01*
X111977050Y-96885523D01*
X111972066Y-96955215D01*
X111930194Y-97011148D01*
X111920981Y-97017420D01*
X111856342Y-97057289D01*
X111732289Y-97181342D01*
X111640187Y-97330663D01*
X111640185Y-97330668D01*
X111634199Y-97348733D01*
X111585001Y-97497203D01*
X111585001Y-97497204D01*
X111585000Y-97497204D01*
X111574500Y-97599983D01*
X107748000Y-97599983D01*
X107748000Y-94421153D01*
X120199500Y-94421153D01*
X120199500Y-94578846D01*
X120230261Y-94733489D01*
X120230264Y-94733501D01*
X120290602Y-94879172D01*
X120290609Y-94879185D01*
X120378210Y-95010288D01*
X120378213Y-95010292D01*
X120489707Y-95121786D01*
X120489711Y-95121789D01*
X120620814Y-95209390D01*
X120620827Y-95209397D01*
X120766498Y-95269735D01*
X120766503Y-95269737D01*
X120921153Y-95300499D01*
X120921156Y-95300500D01*
X120921158Y-95300500D01*
X124328844Y-95300500D01*
X124328845Y-95300499D01*
X124483497Y-95269737D01*
X124629179Y-95209394D01*
X124760289Y-95121789D01*
X127121789Y-92760289D01*
X127209394Y-92629179D01*
X127269738Y-92483497D01*
X127300500Y-92328842D01*
X127300500Y-92171157D01*
X127269738Y-92016502D01*
X127209394Y-91870821D01*
X127209392Y-91870818D01*
X127209390Y-91870814D01*
X127121789Y-91739709D01*
X127010290Y-91628210D01*
X126879185Y-91540609D01*
X126879175Y-91540604D01*
X126733498Y-91480262D01*
X126733490Y-91480260D01*
X126578847Y-91449500D01*
X126578843Y-91449500D01*
X126421158Y-91449500D01*
X126421153Y-91449500D01*
X126266510Y-91480260D01*
X126266502Y-91480262D01*
X126120824Y-91540604D01*
X126120814Y-91540609D01*
X125989711Y-91628210D01*
X125989707Y-91628213D01*
X123954741Y-93663181D01*
X123893418Y-93696666D01*
X123867060Y-93699500D01*
X120921155Y-93699500D01*
X120766510Y-93730261D01*
X120766498Y-93730264D01*
X120620827Y-93790602D01*
X120620814Y-93790609D01*
X120489711Y-93878210D01*
X120489707Y-93878213D01*
X120378213Y-93989707D01*
X120378210Y-93989711D01*
X120290609Y-94120814D01*
X120290602Y-94120827D01*
X120230264Y-94266498D01*
X120230261Y-94266510D01*
X120199500Y-94421153D01*
X107748000Y-94421153D01*
X107748000Y-93302577D01*
X121325975Y-93302577D01*
X121431236Y-93346178D01*
X121431240Y-93346179D01*
X121576126Y-93374999D01*
X121576129Y-93375000D01*
X121723871Y-93375000D01*
X121723873Y-93374999D01*
X121868760Y-93346179D01*
X121868775Y-93346175D01*
X121974024Y-93302578D01*
X121974024Y-93302577D01*
X122725975Y-93302577D01*
X122831236Y-93346178D01*
X122831240Y-93346179D01*
X122976126Y-93374999D01*
X122976129Y-93375000D01*
X123123871Y-93375000D01*
X123123873Y-93374999D01*
X123268760Y-93346179D01*
X123268775Y-93346175D01*
X123374024Y-93302578D01*
X123374024Y-93302577D01*
X123050001Y-92978554D01*
X123050000Y-92978554D01*
X122725975Y-93302577D01*
X121974024Y-93302577D01*
X121650001Y-92978554D01*
X121650000Y-92978554D01*
X121325975Y-93302577D01*
X107748000Y-93302577D01*
X107748000Y-92551126D01*
X120900000Y-92551126D01*
X120900000Y-92698873D01*
X120928820Y-92843759D01*
X120928822Y-92843767D01*
X120972421Y-92949024D01*
X121296446Y-92625000D01*
X121296446Y-92624999D01*
X121266610Y-92595163D01*
X121500000Y-92595163D01*
X121500000Y-92654837D01*
X121522836Y-92709968D01*
X121565032Y-92752164D01*
X121620163Y-92775000D01*
X121679837Y-92775000D01*
X121734968Y-92752164D01*
X121777164Y-92709968D01*
X121800000Y-92654837D01*
X121800000Y-92624999D01*
X122003554Y-92624999D01*
X122003554Y-92625001D01*
X122327929Y-92949376D01*
X122372069Y-92949376D01*
X122696446Y-92625000D01*
X122666609Y-92595163D01*
X122900000Y-92595163D01*
X122900000Y-92654837D01*
X122922836Y-92709968D01*
X122965032Y-92752164D01*
X123020163Y-92775000D01*
X123079837Y-92775000D01*
X123134968Y-92752164D01*
X123177164Y-92709968D01*
X123200000Y-92654837D01*
X123200000Y-92624999D01*
X123403554Y-92624999D01*
X123403554Y-92625001D01*
X123727577Y-92949024D01*
X123727578Y-92949024D01*
X123771175Y-92843775D01*
X123771179Y-92843760D01*
X123799999Y-92698873D01*
X123800000Y-92698871D01*
X123800000Y-92551128D01*
X123799999Y-92551126D01*
X123771179Y-92406240D01*
X123771178Y-92406236D01*
X123727577Y-92300975D01*
X123403554Y-92624999D01*
X123200000Y-92624999D01*
X123200000Y-92595163D01*
X123177164Y-92540032D01*
X123134968Y-92497836D01*
X123079837Y-92475000D01*
X123020163Y-92475000D01*
X122965032Y-92497836D01*
X122922836Y-92540032D01*
X122900000Y-92595163D01*
X122666609Y-92595163D01*
X122372068Y-92300622D01*
X122327930Y-92300622D01*
X122003554Y-92624999D01*
X121800000Y-92624999D01*
X121800000Y-92595163D01*
X121777164Y-92540032D01*
X121734968Y-92497836D01*
X121679837Y-92475000D01*
X121620163Y-92475000D01*
X121565032Y-92497836D01*
X121522836Y-92540032D01*
X121500000Y-92595163D01*
X121266610Y-92595163D01*
X120972421Y-92300974D01*
X120972420Y-92300974D01*
X120928823Y-92406228D01*
X120928820Y-92406240D01*
X120900000Y-92551126D01*
X107748000Y-92551126D01*
X107748000Y-92025000D01*
X121403554Y-92025000D01*
X121650000Y-92271446D01*
X121896446Y-92025000D01*
X122803554Y-92025000D01*
X123050000Y-92271446D01*
X123296446Y-92025000D01*
X123050000Y-91778554D01*
X122803554Y-92025000D01*
X121896446Y-92025000D01*
X121650000Y-91778554D01*
X121403554Y-92025000D01*
X107748000Y-92025000D01*
X107748000Y-91351126D01*
X120900000Y-91351126D01*
X120900000Y-91498873D01*
X120928820Y-91643759D01*
X120928822Y-91643767D01*
X120972421Y-91749024D01*
X121296446Y-91425000D01*
X121296446Y-91424999D01*
X121266610Y-91395163D01*
X121500000Y-91395163D01*
X121500000Y-91454837D01*
X121522836Y-91509968D01*
X121565032Y-91552164D01*
X121620163Y-91575000D01*
X121679837Y-91575000D01*
X121734968Y-91552164D01*
X121777164Y-91509968D01*
X121800000Y-91454837D01*
X121800000Y-91424999D01*
X122003554Y-91424999D01*
X122003554Y-91425001D01*
X122327929Y-91749376D01*
X122372069Y-91749376D01*
X122696446Y-91425000D01*
X122666609Y-91395163D01*
X122900000Y-91395163D01*
X122900000Y-91454837D01*
X122922836Y-91509968D01*
X122965032Y-91552164D01*
X123020163Y-91575000D01*
X123079837Y-91575000D01*
X123134968Y-91552164D01*
X123177164Y-91509968D01*
X123200000Y-91454837D01*
X123200000Y-91424999D01*
X123403554Y-91424999D01*
X123403554Y-91425001D01*
X123727577Y-91749024D01*
X123727578Y-91749024D01*
X123771175Y-91643775D01*
X123771179Y-91643760D01*
X123799999Y-91498873D01*
X123800000Y-91498871D01*
X123800000Y-91351128D01*
X123799999Y-91351126D01*
X123771179Y-91206240D01*
X123771178Y-91206236D01*
X123727577Y-91100975D01*
X123403554Y-91424999D01*
X123200000Y-91424999D01*
X123200000Y-91395163D01*
X123177164Y-91340032D01*
X123134968Y-91297836D01*
X123079837Y-91275000D01*
X123020163Y-91275000D01*
X122965032Y-91297836D01*
X122922836Y-91340032D01*
X122900000Y-91395163D01*
X122666609Y-91395163D01*
X122372068Y-91100622D01*
X122327930Y-91100622D01*
X122003554Y-91424999D01*
X121800000Y-91424999D01*
X121800000Y-91395163D01*
X121777164Y-91340032D01*
X121734968Y-91297836D01*
X121679837Y-91275000D01*
X121620163Y-91275000D01*
X121565032Y-91297836D01*
X121522836Y-91340032D01*
X121500000Y-91395163D01*
X121266610Y-91395163D01*
X120972421Y-91100974D01*
X120972420Y-91100974D01*
X120928823Y-91206228D01*
X120928820Y-91206240D01*
X120900000Y-91351126D01*
X107748000Y-91351126D01*
X107748000Y-90825000D01*
X121403554Y-90825000D01*
X121650000Y-91071446D01*
X121896446Y-90825000D01*
X122803554Y-90825000D01*
X123050000Y-91071446D01*
X123296446Y-90825000D01*
X123050000Y-90578554D01*
X122803554Y-90825000D01*
X121896446Y-90825000D01*
X121650000Y-90578554D01*
X121403554Y-90825000D01*
X107748000Y-90825000D01*
X107748000Y-90151126D01*
X120900000Y-90151126D01*
X120900000Y-90298873D01*
X120928820Y-90443759D01*
X120928822Y-90443767D01*
X120972421Y-90549024D01*
X121296446Y-90225000D01*
X121296446Y-90224999D01*
X121266610Y-90195163D01*
X121500000Y-90195163D01*
X121500000Y-90254837D01*
X121522836Y-90309968D01*
X121565032Y-90352164D01*
X121620163Y-90375000D01*
X121679837Y-90375000D01*
X121734968Y-90352164D01*
X121777164Y-90309968D01*
X121800000Y-90254837D01*
X121800000Y-90224999D01*
X122003554Y-90224999D01*
X122003554Y-90225001D01*
X122327929Y-90549376D01*
X122372069Y-90549376D01*
X122696446Y-90225000D01*
X122666609Y-90195163D01*
X122900000Y-90195163D01*
X122900000Y-90254837D01*
X122922836Y-90309968D01*
X122965032Y-90352164D01*
X123020163Y-90375000D01*
X123079837Y-90375000D01*
X123134968Y-90352164D01*
X123177164Y-90309968D01*
X123200000Y-90254837D01*
X123200000Y-90224999D01*
X123403554Y-90224999D01*
X123403554Y-90225001D01*
X123727577Y-90549024D01*
X123727578Y-90549024D01*
X123771175Y-90443775D01*
X123771179Y-90443760D01*
X123799999Y-90298873D01*
X123800000Y-90298871D01*
X123800000Y-90151128D01*
X123799999Y-90151126D01*
X123771179Y-90006240D01*
X123771178Y-90006236D01*
X123727577Y-89900975D01*
X123403554Y-90224999D01*
X123200000Y-90224999D01*
X123200000Y-90195163D01*
X123177164Y-90140032D01*
X123134968Y-90097836D01*
X123079837Y-90075000D01*
X123020163Y-90075000D01*
X122965032Y-90097836D01*
X122922836Y-90140032D01*
X122900000Y-90195163D01*
X122666609Y-90195163D01*
X122372068Y-89900622D01*
X122327930Y-89900622D01*
X122003554Y-90224999D01*
X121800000Y-90224999D01*
X121800000Y-90195163D01*
X121777164Y-90140032D01*
X121734968Y-90097836D01*
X121679837Y-90075000D01*
X121620163Y-90075000D01*
X121565032Y-90097836D01*
X121522836Y-90140032D01*
X121500000Y-90195163D01*
X121266610Y-90195163D01*
X120972421Y-89900974D01*
X120972420Y-89900974D01*
X120928823Y-90006228D01*
X120928820Y-90006240D01*
X120900000Y-90151126D01*
X107748000Y-90151126D01*
X107748000Y-89547420D01*
X121325974Y-89547420D01*
X121325974Y-89547421D01*
X121650000Y-89871446D01*
X121650001Y-89871446D01*
X121974024Y-89547421D01*
X121974022Y-89547420D01*
X122725974Y-89547420D01*
X122725974Y-89547421D01*
X123050000Y-89871446D01*
X123050001Y-89871446D01*
X123374024Y-89547421D01*
X123268767Y-89503822D01*
X123268759Y-89503820D01*
X123123872Y-89475000D01*
X122976128Y-89475000D01*
X122831240Y-89503820D01*
X122831228Y-89503823D01*
X122725974Y-89547420D01*
X121974022Y-89547420D01*
X121868767Y-89503822D01*
X121868759Y-89503820D01*
X121723872Y-89475000D01*
X121576128Y-89475000D01*
X121431240Y-89503820D01*
X121431228Y-89503823D01*
X121325974Y-89547420D01*
X107748000Y-89547420D01*
X107748000Y-79911303D01*
X124599500Y-79911303D01*
X124599500Y-80088696D01*
X124634103Y-80262658D01*
X124634105Y-80262666D01*
X124701988Y-80426548D01*
X124800534Y-80574034D01*
X124800540Y-80574041D01*
X132063181Y-87836680D01*
X132096666Y-87898003D01*
X132099500Y-87924361D01*
X132099500Y-93088696D01*
X132134103Y-93262658D01*
X132134105Y-93262666D01*
X132166965Y-93341998D01*
X132166971Y-93342011D01*
X132168046Y-93344606D01*
X132201987Y-93426547D01*
X132212228Y-93441873D01*
X132262091Y-93516498D01*
X132300537Y-93574038D01*
X132300538Y-93574039D01*
X136300536Y-97574035D01*
X136425962Y-97699461D01*
X136425966Y-97699465D01*
X136554133Y-97785104D01*
X136573453Y-97798013D01*
X136655393Y-97831953D01*
X136737334Y-97865895D01*
X136911303Y-97900499D01*
X136911307Y-97900500D01*
X136911308Y-97900500D01*
X140588693Y-97900500D01*
X140588694Y-97900499D01*
X140762666Y-97865895D01*
X140844606Y-97831953D01*
X140926547Y-97798013D01*
X141014959Y-97738936D01*
X141074036Y-97699464D01*
X141324464Y-97449035D01*
X141423013Y-97301546D01*
X141490895Y-97137666D01*
X141525500Y-96963691D01*
X141525500Y-96786308D01*
X141490895Y-96612334D01*
X141423013Y-96448453D01*
X141423012Y-96448452D01*
X141423009Y-96448446D01*
X141324464Y-96300964D01*
X141324461Y-96300960D01*
X141199039Y-96175538D01*
X141199035Y-96175535D01*
X141051553Y-96076990D01*
X141051544Y-96076985D01*
X140887666Y-96009105D01*
X140887658Y-96009103D01*
X140713696Y-95974500D01*
X140713692Y-95974500D01*
X140536309Y-95974500D01*
X140536304Y-95974500D01*
X140362341Y-96009103D01*
X140362333Y-96009105D01*
X140198455Y-96076986D01*
X140196034Y-96078604D01*
X140194573Y-96079061D01*
X140193087Y-96079856D01*
X140192936Y-96079573D01*
X140129356Y-96099480D01*
X140127146Y-96099500D01*
X137424361Y-96099500D01*
X137357322Y-96079815D01*
X137336680Y-96063181D01*
X135026247Y-93752747D01*
X134944653Y-93671153D01*
X141199500Y-93671153D01*
X141199500Y-93828846D01*
X141230261Y-93983489D01*
X141230264Y-93983501D01*
X141290602Y-94129172D01*
X141290609Y-94129185D01*
X141378210Y-94260288D01*
X141378213Y-94260292D01*
X141489707Y-94371786D01*
X141489711Y-94371789D01*
X141620814Y-94459390D01*
X141620827Y-94459397D01*
X141708230Y-94495599D01*
X141766503Y-94519737D01*
X141877716Y-94541858D01*
X141939623Y-94574241D01*
X141941202Y-94575792D01*
X144714141Y-97348732D01*
X144714142Y-97348733D01*
X144801267Y-97435858D01*
X144892457Y-97496789D01*
X144903714Y-97504311D01*
X144903717Y-97504313D01*
X145015221Y-97550499D01*
X145017548Y-97551463D01*
X145131028Y-97574035D01*
X145138388Y-97575499D01*
X145138392Y-97575500D01*
X145138393Y-97575500D01*
X162611607Y-97575500D01*
X162672029Y-97563481D01*
X162725318Y-97552882D01*
X162725319Y-97552882D01*
X162749504Y-97550500D01*
X162828844Y-97550500D01*
X162828845Y-97550499D01*
X162983497Y-97519737D01*
X163120908Y-97462820D01*
X163129172Y-97459397D01*
X163129172Y-97459396D01*
X163129179Y-97459394D01*
X163260289Y-97371789D01*
X163371789Y-97260289D01*
X163459394Y-97129179D01*
X163519737Y-96983497D01*
X163550500Y-96828842D01*
X163550500Y-96671158D01*
X163550500Y-96671155D01*
X163550499Y-96671153D01*
X163519738Y-96516510D01*
X163519737Y-96516503D01*
X163487534Y-96438757D01*
X163459397Y-96370827D01*
X163459390Y-96370814D01*
X163371789Y-96239711D01*
X163371786Y-96239707D01*
X163260292Y-96128213D01*
X163260288Y-96128210D01*
X163129185Y-96040609D01*
X163129172Y-96040602D01*
X162983501Y-95980264D01*
X162983489Y-95980261D01*
X162828845Y-95949500D01*
X162828842Y-95949500D01*
X162671158Y-95949500D01*
X162671155Y-95949500D01*
X162516510Y-95980261D01*
X162516498Y-95980264D01*
X162370827Y-96040602D01*
X162370814Y-96040609D01*
X162239711Y-96128210D01*
X162239707Y-96128213D01*
X162128213Y-96239707D01*
X162128210Y-96239711D01*
X162108379Y-96269391D01*
X162054767Y-96314196D01*
X162005277Y-96324500D01*
X150662676Y-96324500D01*
X150595637Y-96304815D01*
X150549882Y-96252011D01*
X150539938Y-96182853D01*
X150541059Y-96176309D01*
X150550499Y-96128846D01*
X150550500Y-96128844D01*
X150550500Y-94132940D01*
X150570185Y-94065901D01*
X150586819Y-94045259D01*
X151314944Y-93317135D01*
X167172000Y-93317135D01*
X167172000Y-95112870D01*
X167172001Y-95112876D01*
X167178408Y-95172483D01*
X167228702Y-95307328D01*
X167228706Y-95307335D01*
X167314952Y-95422544D01*
X167314955Y-95422547D01*
X167430164Y-95508793D01*
X167430171Y-95508797D01*
X167561582Y-95557810D01*
X167617516Y-95599681D01*
X167641933Y-95665145D01*
X167627082Y-95733418D01*
X167605931Y-95761673D01*
X167492389Y-95875215D01*
X167367451Y-96047179D01*
X167270944Y-96236585D01*
X167205253Y-96438760D01*
X167172000Y-96648713D01*
X167172000Y-96861286D01*
X167203043Y-97057288D01*
X167205254Y-97071243D01*
X167226836Y-97137666D01*
X167270944Y-97273414D01*
X167367451Y-97462820D01*
X167492390Y-97634786D01*
X167642713Y-97785109D01*
X167814679Y-97910048D01*
X167814681Y-97910049D01*
X167814684Y-97910051D01*
X167823993Y-97914794D01*
X167874790Y-97962766D01*
X167891587Y-98030587D01*
X167869052Y-98096722D01*
X167824005Y-98135760D01*
X167814946Y-98140376D01*
X167814940Y-98140380D01*
X167760782Y-98179727D01*
X167760782Y-98179728D01*
X168393091Y-98812037D01*
X168329507Y-98829075D01*
X168215493Y-98894901D01*
X168122401Y-98987993D01*
X168056575Y-99102007D01*
X168039537Y-99165591D01*
X167407228Y-98533282D01*
X167407227Y-98533282D01*
X167367880Y-98587439D01*
X167271404Y-98776782D01*
X167205742Y-98978869D01*
X167205742Y-98978872D01*
X167172500Y-99188753D01*
X167172500Y-99401246D01*
X167205742Y-99611127D01*
X167205742Y-99611130D01*
X167271404Y-99813217D01*
X167367875Y-100002550D01*
X167407228Y-100056716D01*
X168039537Y-99424408D01*
X168056575Y-99487993D01*
X168122401Y-99602007D01*
X168215493Y-99695099D01*
X168329507Y-99760925D01*
X168393090Y-99777962D01*
X167760782Y-100410269D01*
X167760782Y-100410270D01*
X167814949Y-100449624D01*
X168004282Y-100546095D01*
X168206370Y-100611757D01*
X168416254Y-100645000D01*
X168628746Y-100645000D01*
X168838627Y-100611757D01*
X168838630Y-100611757D01*
X169040717Y-100546095D01*
X169230054Y-100449622D01*
X169284216Y-100410270D01*
X169284217Y-100410270D01*
X168651908Y-99777962D01*
X168715493Y-99760925D01*
X168829507Y-99695099D01*
X168922599Y-99602007D01*
X168988425Y-99487993D01*
X169005462Y-99424408D01*
X169637770Y-100056717D01*
X169637770Y-100056716D01*
X169677122Y-100002554D01*
X169773595Y-99813217D01*
X169839257Y-99611130D01*
X169839257Y-99611127D01*
X169872500Y-99401246D01*
X169872500Y-99188753D01*
X169839257Y-98978872D01*
X169839257Y-98978869D01*
X169773595Y-98776782D01*
X169677124Y-98587449D01*
X169637770Y-98533282D01*
X169637769Y-98533282D01*
X169005462Y-99165590D01*
X168988425Y-99102007D01*
X168922599Y-98987993D01*
X168829507Y-98894901D01*
X168715493Y-98829075D01*
X168651909Y-98812037D01*
X169284216Y-98179728D01*
X169230047Y-98140373D01*
X169230047Y-98140372D01*
X169221000Y-98135763D01*
X169170206Y-98087788D01*
X169153412Y-98019966D01*
X169175951Y-97953832D01*
X169221008Y-97914793D01*
X169230316Y-97910051D01*
X169337808Y-97831954D01*
X169402286Y-97785109D01*
X169402288Y-97785106D01*
X169402292Y-97785104D01*
X169552604Y-97634792D01*
X169552606Y-97634788D01*
X169552609Y-97634786D01*
X169677548Y-97462820D01*
X169677547Y-97462820D01*
X169677551Y-97462816D01*
X169774057Y-97273412D01*
X169839746Y-97071243D01*
X169873000Y-96861287D01*
X169873000Y-96648713D01*
X169839746Y-96438757D01*
X169774057Y-96236588D01*
X169677551Y-96047184D01*
X169677549Y-96047181D01*
X169677548Y-96047179D01*
X169552609Y-95875213D01*
X169439069Y-95761673D01*
X169405584Y-95700350D01*
X169410568Y-95630658D01*
X169452440Y-95574725D01*
X169483415Y-95557810D01*
X169614831Y-95508796D01*
X169730046Y-95422546D01*
X169816296Y-95307331D01*
X169866591Y-95172483D01*
X169873000Y-95112873D01*
X169872999Y-93317128D01*
X169866591Y-93257517D01*
X169859950Y-93239712D01*
X169816297Y-93122671D01*
X169816293Y-93122664D01*
X169730047Y-93007455D01*
X169730044Y-93007452D01*
X169614835Y-92921206D01*
X169614828Y-92921202D01*
X169479982Y-92870908D01*
X169479983Y-92870908D01*
X169420383Y-92864501D01*
X169420381Y-92864500D01*
X169420373Y-92864500D01*
X169420364Y-92864500D01*
X167624629Y-92864500D01*
X167624623Y-92864501D01*
X167565016Y-92870908D01*
X167430171Y-92921202D01*
X167430164Y-92921206D01*
X167314955Y-93007452D01*
X167314952Y-93007455D01*
X167228706Y-93122664D01*
X167228702Y-93122671D01*
X167178408Y-93257517D01*
X167173564Y-93302577D01*
X167172001Y-93317123D01*
X167172000Y-93317135D01*
X151314944Y-93317135D01*
X151405954Y-93226125D01*
X151819135Y-92812943D01*
X151819138Y-92812940D01*
X151906743Y-92681830D01*
X151967087Y-92536148D01*
X151997849Y-92381493D01*
X151997849Y-92223808D01*
X151997849Y-85595908D01*
X152017534Y-85528869D01*
X152061620Y-85490363D01*
X152060536Y-85488605D01*
X152066681Y-85484814D01*
X152066683Y-85484814D01*
X152216005Y-85392712D01*
X152340061Y-85268656D01*
X152432163Y-85119334D01*
X152487348Y-84952797D01*
X152497849Y-84850009D01*
X152497848Y-84147682D01*
X153397349Y-84147682D01*
X153397349Y-84352317D01*
X153429358Y-84554417D01*
X153492593Y-84749031D01*
X153585490Y-84931350D01*
X153585496Y-84931359D01*
X153617872Y-84975921D01*
X153617873Y-84975922D01*
X154297349Y-84296446D01*
X154297349Y-84302661D01*
X154324608Y-84404394D01*
X154377269Y-84495606D01*
X154451743Y-84570080D01*
X154542955Y-84622741D01*
X154644688Y-84650000D01*
X154650902Y-84650000D01*
X153971425Y-85329474D01*
X154015999Y-85361859D01*
X154198317Y-85454755D01*
X154392931Y-85517990D01*
X154595032Y-85550000D01*
X154799666Y-85550000D01*
X155001766Y-85517990D01*
X155196380Y-85454755D01*
X155378698Y-85361859D01*
X155423270Y-85329474D01*
X154743796Y-84650000D01*
X154750010Y-84650000D01*
X154851743Y-84622741D01*
X154942955Y-84570080D01*
X155017429Y-84495606D01*
X155070090Y-84404394D01*
X155097349Y-84302661D01*
X155097349Y-84296447D01*
X155776823Y-84975921D01*
X155809208Y-84931349D01*
X155902104Y-84749031D01*
X155919666Y-84694983D01*
X163472000Y-84694983D01*
X163472000Y-86895001D01*
X163472001Y-86895018D01*
X163482500Y-86997796D01*
X163482501Y-86997799D01*
X163537685Y-87164331D01*
X163537686Y-87164334D01*
X163629788Y-87313656D01*
X163753844Y-87437712D01*
X163903166Y-87529814D01*
X164069703Y-87584999D01*
X164172491Y-87595500D01*
X166372508Y-87595499D01*
X166475297Y-87584999D01*
X166641834Y-87529814D01*
X166791156Y-87437712D01*
X166915212Y-87313656D01*
X167007314Y-87164334D01*
X167062499Y-86997797D01*
X167073000Y-86895009D01*
X167072999Y-84694992D01*
X167065618Y-84622741D01*
X167062499Y-84592203D01*
X167062498Y-84592200D01*
X167049978Y-84554417D01*
X167007314Y-84425666D01*
X166915212Y-84276344D01*
X166791156Y-84152288D01*
X166641834Y-84060186D01*
X166475297Y-84005001D01*
X166475295Y-84005000D01*
X166372510Y-83994500D01*
X164172498Y-83994500D01*
X164172481Y-83994501D01*
X164069703Y-84005000D01*
X164069700Y-84005001D01*
X163903168Y-84060185D01*
X163903163Y-84060187D01*
X163753842Y-84152289D01*
X163629789Y-84276342D01*
X163537687Y-84425663D01*
X163537686Y-84425666D01*
X163482501Y-84592203D01*
X163482501Y-84592204D01*
X163482500Y-84592204D01*
X163472000Y-84694983D01*
X155919666Y-84694983D01*
X155933140Y-84653515D01*
X155965339Y-84554417D01*
X155997349Y-84352317D01*
X155997349Y-84147682D01*
X155965339Y-83945582D01*
X155902104Y-83750968D01*
X155809208Y-83568650D01*
X155776823Y-83524077D01*
X155776823Y-83524076D01*
X155097349Y-84203551D01*
X155097349Y-84197339D01*
X155070090Y-84095606D01*
X155017429Y-84004394D01*
X154942955Y-83929920D01*
X154851743Y-83877259D01*
X154750010Y-83850000D01*
X154743795Y-83850000D01*
X155423271Y-83170524D01*
X155423270Y-83170523D01*
X155378708Y-83138147D01*
X155378699Y-83138141D01*
X155196380Y-83045244D01*
X155001766Y-82982009D01*
X154799666Y-82950000D01*
X154595032Y-82950000D01*
X154392931Y-82982009D01*
X154198317Y-83045244D01*
X154015993Y-83138143D01*
X153971426Y-83170523D01*
X153971426Y-83170524D01*
X154650903Y-83850000D01*
X154644688Y-83850000D01*
X154542955Y-83877259D01*
X154451743Y-83929920D01*
X154377269Y-84004394D01*
X154324608Y-84095606D01*
X154297349Y-84197339D01*
X154297349Y-84203553D01*
X153617873Y-83524077D01*
X153617872Y-83524077D01*
X153585492Y-83568644D01*
X153492593Y-83750968D01*
X153429358Y-83945582D01*
X153397349Y-84147682D01*
X152497848Y-84147682D01*
X152497848Y-83649992D01*
X152487348Y-83547203D01*
X152432163Y-83380666D01*
X152340061Y-83231344D01*
X152216005Y-83107288D01*
X152066683Y-83015186D01*
X151900146Y-82960001D01*
X151900144Y-82960000D01*
X151797359Y-82949500D01*
X150597347Y-82949500D01*
X150597330Y-82949501D01*
X150494552Y-82960000D01*
X150494549Y-82960001D01*
X150328017Y-83015185D01*
X150328012Y-83015187D01*
X150178691Y-83107289D01*
X150054638Y-83231342D01*
X149962536Y-83380663D01*
X149962534Y-83380668D01*
X149934698Y-83464670D01*
X149907350Y-83547203D01*
X149907350Y-83547204D01*
X149907349Y-83547204D01*
X149896849Y-83649983D01*
X149896849Y-84850001D01*
X149896850Y-84850018D01*
X149907349Y-84952796D01*
X149907350Y-84952799D01*
X149962534Y-85119331D01*
X149962535Y-85119334D01*
X150054637Y-85268656D01*
X150178693Y-85392712D01*
X150328015Y-85484814D01*
X150328016Y-85484814D01*
X150334162Y-85488605D01*
X150333055Y-85490399D01*
X150377686Y-85529687D01*
X150396849Y-85595908D01*
X150396849Y-91919711D01*
X150377164Y-91986750D01*
X150360530Y-92007392D01*
X149239711Y-93128211D01*
X149183960Y-93183962D01*
X149128209Y-93239712D01*
X149040609Y-93370814D01*
X149040602Y-93370827D01*
X148980264Y-93516498D01*
X148980261Y-93516510D01*
X148949500Y-93671153D01*
X148949500Y-96128846D01*
X148958941Y-96176309D01*
X148952714Y-96245901D01*
X148909851Y-96301078D01*
X148843961Y-96324322D01*
X148837324Y-96324500D01*
X145510453Y-96324500D01*
X145443414Y-96304815D01*
X145422772Y-96288181D01*
X142825793Y-93691203D01*
X142792308Y-93629880D01*
X142791887Y-93627864D01*
X142769737Y-93516503D01*
X142742048Y-93449656D01*
X142709397Y-93370827D01*
X142709390Y-93370814D01*
X142621789Y-93239711D01*
X142621786Y-93239707D01*
X142510291Y-93128212D01*
X142510288Y-93128210D01*
X142379185Y-93040609D01*
X142379172Y-93040602D01*
X142233501Y-92980264D01*
X142233489Y-92980261D01*
X142078845Y-92949500D01*
X142078842Y-92949500D01*
X141921158Y-92949500D01*
X141921155Y-92949500D01*
X141766510Y-92980261D01*
X141766498Y-92980264D01*
X141620827Y-93040602D01*
X141620814Y-93040609D01*
X141489711Y-93128210D01*
X141489709Y-93128212D01*
X141378213Y-93239707D01*
X141378210Y-93239711D01*
X141290609Y-93370814D01*
X141290602Y-93370827D01*
X141230264Y-93516498D01*
X141230261Y-93516510D01*
X141199500Y-93671153D01*
X134944653Y-93671153D01*
X133936819Y-92663319D01*
X133903334Y-92601996D01*
X133900500Y-92575638D01*
X133900500Y-87411308D01*
X133900499Y-87411304D01*
X133865896Y-87237341D01*
X133865895Y-87237334D01*
X133800339Y-87079071D01*
X133798695Y-87074474D01*
X133699465Y-86925966D01*
X133668500Y-86895001D01*
X133574035Y-86800536D01*
X131704848Y-84931349D01*
X126074041Y-79300540D01*
X126074034Y-79300534D01*
X125926548Y-79201988D01*
X125762666Y-79134105D01*
X125762658Y-79134103D01*
X125588696Y-79099500D01*
X125588692Y-79099500D01*
X125411308Y-79099500D01*
X125411303Y-79099500D01*
X125237341Y-79134103D01*
X125237333Y-79134105D01*
X125073451Y-79201988D01*
X124925965Y-79300534D01*
X124925958Y-79300540D01*
X124800540Y-79425958D01*
X124800534Y-79425965D01*
X124701988Y-79573451D01*
X124634105Y-79737333D01*
X124634103Y-79737341D01*
X124599500Y-79911303D01*
X107748000Y-79911303D01*
X107748000Y-76661303D01*
X130599500Y-76661303D01*
X130599500Y-82588695D01*
X130634103Y-82762658D01*
X130634106Y-82762667D01*
X130701983Y-82926540D01*
X130701990Y-82926553D01*
X130800535Y-83074034D01*
X130800538Y-83074038D01*
X130925961Y-83199461D01*
X130925965Y-83199464D01*
X131073446Y-83298009D01*
X131073459Y-83298016D01*
X131196363Y-83348923D01*
X131237334Y-83365894D01*
X131237336Y-83365894D01*
X131237341Y-83365896D01*
X131411304Y-83400499D01*
X131411307Y-83400500D01*
X131411309Y-83400500D01*
X131588693Y-83400500D01*
X131588694Y-83400499D01*
X131688418Y-83380663D01*
X131762658Y-83365896D01*
X131762661Y-83365894D01*
X131762666Y-83365894D01*
X131926547Y-83298013D01*
X132074035Y-83199464D01*
X132199464Y-83074035D01*
X132298013Y-82926547D01*
X132365894Y-82762666D01*
X132400500Y-82588691D01*
X132400500Y-80597014D01*
X163472500Y-80597014D01*
X163472500Y-80832985D01*
X163503299Y-81066914D01*
X163564370Y-81294837D01*
X163654660Y-81512819D01*
X163654665Y-81512828D01*
X163772644Y-81717171D01*
X163772645Y-81717172D01*
X163835221Y-81798723D01*
X164671458Y-80962487D01*
X164696478Y-81022890D01*
X164767612Y-81129351D01*
X164858149Y-81219888D01*
X164964610Y-81291022D01*
X165025011Y-81316041D01*
X164188775Y-82152277D01*
X164270327Y-82214854D01*
X164270328Y-82214855D01*
X164474671Y-82332834D01*
X164474680Y-82332839D01*
X164692663Y-82423129D01*
X164692661Y-82423129D01*
X164920585Y-82484200D01*
X165154514Y-82514999D01*
X165154529Y-82515000D01*
X165390471Y-82515000D01*
X165390485Y-82514999D01*
X165624414Y-82484200D01*
X165852337Y-82423129D01*
X166070319Y-82332839D01*
X166070328Y-82332834D01*
X166274681Y-82214850D01*
X166356223Y-82152279D01*
X166356223Y-82152276D01*
X165519987Y-81316041D01*
X165580390Y-81291022D01*
X165686851Y-81219888D01*
X165777388Y-81129351D01*
X165848522Y-81022890D01*
X165873541Y-80962488D01*
X166709776Y-81798723D01*
X166709779Y-81798723D01*
X166772350Y-81717181D01*
X166890334Y-81512828D01*
X166890339Y-81512819D01*
X166980629Y-81294837D01*
X167041700Y-81066914D01*
X167072499Y-80832985D01*
X167072500Y-80832971D01*
X167072500Y-80597028D01*
X167072499Y-80597014D01*
X167041700Y-80363085D01*
X166980629Y-80135162D01*
X166890339Y-79917180D01*
X166890334Y-79917171D01*
X166772355Y-79712828D01*
X166772354Y-79712827D01*
X166709777Y-79631275D01*
X165873541Y-80467511D01*
X165848522Y-80407110D01*
X165777388Y-80300649D01*
X165686851Y-80210112D01*
X165580390Y-80138978D01*
X165519988Y-80113958D01*
X166356223Y-79277721D01*
X166274672Y-79215145D01*
X166274671Y-79215144D01*
X166070328Y-79097165D01*
X166070319Y-79097160D01*
X165852336Y-79006870D01*
X165852338Y-79006870D01*
X165624414Y-78945799D01*
X165390485Y-78915000D01*
X165154514Y-78915000D01*
X164920585Y-78945799D01*
X164692662Y-79006870D01*
X164474680Y-79097160D01*
X164474671Y-79097165D01*
X164270328Y-79215144D01*
X164270318Y-79215150D01*
X164188775Y-79277720D01*
X164188775Y-79277721D01*
X165025012Y-80113958D01*
X164964610Y-80138978D01*
X164858149Y-80210112D01*
X164767612Y-80300649D01*
X164696478Y-80407110D01*
X164671458Y-80467512D01*
X163835221Y-79631275D01*
X163835220Y-79631275D01*
X163772650Y-79712818D01*
X163772644Y-79712828D01*
X163654665Y-79917171D01*
X163654660Y-79917180D01*
X163564370Y-80135162D01*
X163503299Y-80363085D01*
X163472500Y-80597014D01*
X132400500Y-80597014D01*
X132400500Y-77174362D01*
X132420185Y-77107323D01*
X132436819Y-77086681D01*
X133449459Y-76074041D01*
X133449464Y-76074036D01*
X133548012Y-75926547D01*
X133615895Y-75762666D01*
X133650500Y-75588692D01*
X133650500Y-75411308D01*
X133615895Y-75237334D01*
X133548012Y-75073453D01*
X133449464Y-74925964D01*
X133449459Y-74925958D01*
X133324041Y-74800540D01*
X133324034Y-74800534D01*
X133176548Y-74701988D01*
X133012666Y-74634105D01*
X133012658Y-74634103D01*
X132838696Y-74599500D01*
X132838692Y-74599500D01*
X132661308Y-74599500D01*
X132661303Y-74599500D01*
X132487341Y-74634103D01*
X132487333Y-74634105D01*
X132323451Y-74701988D01*
X132175965Y-74800534D01*
X132175958Y-74800540D01*
X130800537Y-76175961D01*
X130778199Y-76209394D01*
X130701985Y-76323455D01*
X130668046Y-76405393D01*
X130634106Y-76487329D01*
X130634103Y-76487341D01*
X130599500Y-76661303D01*
X107748000Y-76661303D01*
X107748000Y-72166995D01*
X114777000Y-72166995D01*
X114777000Y-72403004D01*
X114777001Y-72403020D01*
X114807806Y-72637010D01*
X114868894Y-72864993D01*
X114959214Y-73083045D01*
X114959219Y-73083056D01*
X115030177Y-73205957D01*
X115077227Y-73287450D01*
X115077229Y-73287453D01*
X115077230Y-73287454D01*
X115220906Y-73474697D01*
X115220912Y-73474704D01*
X115387795Y-73641587D01*
X115387801Y-73641592D01*
X115575050Y-73785273D01*
X115706418Y-73861118D01*
X115779443Y-73903280D01*
X115779448Y-73903282D01*
X115779451Y-73903284D01*
X115997507Y-73993606D01*
X116225486Y-74054693D01*
X116459489Y-74085500D01*
X116459496Y-74085500D01*
X116695504Y-74085500D01*
X116695511Y-74085500D01*
X116929514Y-74054693D01*
X117157493Y-73993606D01*
X117375549Y-73903284D01*
X117579950Y-73785273D01*
X117767199Y-73641592D01*
X117934092Y-73474699D01*
X118077773Y-73287450D01*
X118195784Y-73083049D01*
X118286106Y-72864993D01*
X118347193Y-72637014D01*
X118378000Y-72403011D01*
X118378000Y-72166989D01*
X118347193Y-71932986D01*
X118286106Y-71705007D01*
X118195784Y-71486951D01*
X118195782Y-71486948D01*
X118195780Y-71486943D01*
X118153618Y-71413918D01*
X118077773Y-71282550D01*
X117934092Y-71095301D01*
X117934087Y-71095295D01*
X117767204Y-70928412D01*
X117767197Y-70928406D01*
X117579954Y-70784730D01*
X117579953Y-70784729D01*
X117579950Y-70784727D01*
X117498457Y-70737677D01*
X117375556Y-70666719D01*
X117375545Y-70666714D01*
X117157493Y-70576394D01*
X116929510Y-70515306D01*
X116695520Y-70484501D01*
X116695517Y-70484500D01*
X116695511Y-70484500D01*
X116459489Y-70484500D01*
X116459483Y-70484500D01*
X116459479Y-70484501D01*
X116225489Y-70515306D01*
X115997506Y-70576394D01*
X115779454Y-70666714D01*
X115779443Y-70666719D01*
X115575045Y-70784730D01*
X115387802Y-70928406D01*
X115387795Y-70928412D01*
X115220912Y-71095295D01*
X115220906Y-71095302D01*
X115077230Y-71282545D01*
X114959219Y-71486943D01*
X114959214Y-71486954D01*
X114868894Y-71705006D01*
X114807806Y-71932989D01*
X114777001Y-72166979D01*
X114777000Y-72166995D01*
X107748000Y-72166995D01*
X107748000Y-66105013D01*
X114777500Y-66105013D01*
X114777500Y-66955000D01*
X115977499Y-66955000D01*
X115952479Y-67015402D01*
X115927500Y-67140981D01*
X115927500Y-67269019D01*
X115952479Y-67394598D01*
X115977499Y-67455000D01*
X114777501Y-67455000D01*
X114777501Y-68304986D01*
X114787994Y-68407697D01*
X114843141Y-68574119D01*
X114843143Y-68574124D01*
X114935184Y-68723345D01*
X115059154Y-68847315D01*
X115208375Y-68939356D01*
X115208380Y-68939358D01*
X115374802Y-68994505D01*
X115374809Y-68994506D01*
X115477519Y-69004999D01*
X116327499Y-69004999D01*
X116327500Y-69004998D01*
X116327500Y-67805001D01*
X116387902Y-67830021D01*
X116513481Y-67855000D01*
X116641519Y-67855000D01*
X116767098Y-67830021D01*
X116827500Y-67805001D01*
X116827500Y-69004999D01*
X117677472Y-69004999D01*
X117677486Y-69004998D01*
X117780197Y-68994505D01*
X117946619Y-68939358D01*
X117946624Y-68939356D01*
X118095845Y-68847315D01*
X118219815Y-68723345D01*
X118311856Y-68574124D01*
X118311858Y-68574119D01*
X118367005Y-68407697D01*
X118367006Y-68407690D01*
X118377499Y-68304986D01*
X118377500Y-68304973D01*
X118377500Y-67455000D01*
X117177501Y-67455000D01*
X117202521Y-67394598D01*
X117227500Y-67269019D01*
X117227500Y-67140981D01*
X117202521Y-67015402D01*
X117177501Y-66955000D01*
X118377499Y-66955000D01*
X118377499Y-66105028D01*
X118377498Y-66105013D01*
X118367005Y-66002302D01*
X118311858Y-65835880D01*
X118311856Y-65835875D01*
X118219815Y-65686654D01*
X118095845Y-65562684D01*
X117946624Y-65470643D01*
X117946619Y-65470641D01*
X117780197Y-65415494D01*
X117780190Y-65415493D01*
X117677486Y-65405000D01*
X116827500Y-65405000D01*
X116827500Y-66604998D01*
X116767098Y-66579979D01*
X116641519Y-66555000D01*
X116513481Y-66555000D01*
X116387902Y-66579979D01*
X116327500Y-66604998D01*
X116327500Y-65405000D01*
X115477528Y-65405000D01*
X115477512Y-65405001D01*
X115374802Y-65415494D01*
X115208380Y-65470641D01*
X115208375Y-65470643D01*
X115059154Y-65562684D01*
X114935184Y-65686654D01*
X114843143Y-65835875D01*
X114843141Y-65835880D01*
X114787994Y-66002302D01*
X114787993Y-66002309D01*
X114777500Y-66105013D01*
X107748000Y-66105013D01*
X107748000Y-63052634D01*
X130199500Y-63052634D01*
X130199500Y-64252652D01*
X130199501Y-64252669D01*
X130210000Y-64355447D01*
X130210001Y-64355450D01*
X130265185Y-64521982D01*
X130265186Y-64521985D01*
X130357288Y-64671307D01*
X130481344Y-64795363D01*
X130630666Y-64887465D01*
X130797203Y-64942650D01*
X130899991Y-64953151D01*
X132100008Y-64953150D01*
X132202797Y-64942650D01*
X132369334Y-64887465D01*
X132518656Y-64795363D01*
X132642712Y-64671307D01*
X132734814Y-64521985D01*
X132789999Y-64355448D01*
X132800500Y-64252660D01*
X132800499Y-63052643D01*
X132789999Y-62949854D01*
X132734814Y-62783317D01*
X132642712Y-62633995D01*
X132518656Y-62509939D01*
X132369334Y-62417837D01*
X132202797Y-62362652D01*
X132202795Y-62362651D01*
X132100010Y-62352151D01*
X130899998Y-62352151D01*
X130899981Y-62352152D01*
X130797203Y-62362651D01*
X130797200Y-62362652D01*
X130630668Y-62417836D01*
X130630663Y-62417838D01*
X130481342Y-62509940D01*
X130357289Y-62633993D01*
X130265187Y-62783314D01*
X130265186Y-62783317D01*
X130210001Y-62949854D01*
X130210001Y-62949855D01*
X130210000Y-62949855D01*
X130199500Y-63052634D01*
X107748000Y-63052634D01*
X107748000Y-59397648D01*
X110699500Y-59397648D01*
X110699500Y-59602351D01*
X110731522Y-59804534D01*
X110794781Y-59999223D01*
X110887715Y-60181613D01*
X111008028Y-60347213D01*
X111152786Y-60491971D01*
X111236307Y-60552651D01*
X111318390Y-60612287D01*
X111434607Y-60671503D01*
X111500776Y-60705218D01*
X111500778Y-60705218D01*
X111500781Y-60705220D01*
X111605137Y-60739127D01*
X111695465Y-60768477D01*
X111796557Y-60784488D01*
X111897648Y-60800500D01*
X111897649Y-60800500D01*
X112102351Y-60800500D01*
X112102352Y-60800500D01*
X112304534Y-60768477D01*
X112499219Y-60705220D01*
X112681610Y-60612287D01*
X112801212Y-60525392D01*
X112847213Y-60491971D01*
X112847215Y-60491968D01*
X112847219Y-60491966D01*
X112991966Y-60347219D01*
X112991968Y-60347215D01*
X112991971Y-60347213D01*
X113058990Y-60254968D01*
X113112287Y-60181610D01*
X113179176Y-60050333D01*
X130200000Y-60050333D01*
X130200000Y-60254968D01*
X130232009Y-60457068D01*
X130295244Y-60651682D01*
X130388141Y-60834001D01*
X130388147Y-60834010D01*
X130420523Y-60878572D01*
X130420524Y-60878573D01*
X131100000Y-60199097D01*
X131100000Y-60205312D01*
X131127259Y-60307045D01*
X131179920Y-60398257D01*
X131254394Y-60472731D01*
X131345606Y-60525392D01*
X131447339Y-60552651D01*
X131453553Y-60552651D01*
X130774076Y-61232125D01*
X130818650Y-61264510D01*
X131000968Y-61357406D01*
X131195582Y-61420641D01*
X131397683Y-61452651D01*
X131602317Y-61452651D01*
X131804417Y-61420641D01*
X131999031Y-61357406D01*
X132181349Y-61264510D01*
X132225921Y-61232125D01*
X131546447Y-60552651D01*
X131552661Y-60552651D01*
X131654394Y-60525392D01*
X131745606Y-60472731D01*
X131820080Y-60398257D01*
X131872741Y-60307045D01*
X131900000Y-60205312D01*
X131900000Y-60199098D01*
X132579474Y-60878572D01*
X132611859Y-60834000D01*
X132704755Y-60651682D01*
X132767990Y-60457068D01*
X132800000Y-60254968D01*
X132800000Y-60050333D01*
X132767990Y-59848233D01*
X132704755Y-59653619D01*
X132611859Y-59471301D01*
X132579474Y-59426728D01*
X132579474Y-59426727D01*
X131900000Y-60106202D01*
X131900000Y-60099990D01*
X131872741Y-59998257D01*
X131820080Y-59907045D01*
X131745606Y-59832571D01*
X131654394Y-59779910D01*
X131552661Y-59752651D01*
X131546446Y-59752651D01*
X132151449Y-59147648D01*
X167199500Y-59147648D01*
X167199500Y-59352351D01*
X167231522Y-59554534D01*
X167294781Y-59749223D01*
X167320194Y-59799097D01*
X167375196Y-59907045D01*
X167387715Y-59931613D01*
X167508028Y-60097213D01*
X167652786Y-60241971D01*
X167807749Y-60354556D01*
X167818390Y-60362287D01*
X167934607Y-60421503D01*
X168000776Y-60455218D01*
X168000778Y-60455218D01*
X168000781Y-60455220D01*
X168105137Y-60489127D01*
X168195465Y-60518477D01*
X168296557Y-60534488D01*
X168397648Y-60550500D01*
X168397649Y-60550500D01*
X168602351Y-60550500D01*
X168602352Y-60550500D01*
X168804534Y-60518477D01*
X168999219Y-60455220D01*
X169181610Y-60362287D01*
X169274590Y-60294732D01*
X169347213Y-60241971D01*
X169347215Y-60241968D01*
X169347219Y-60241966D01*
X169491966Y-60097219D01*
X169491968Y-60097215D01*
X169491971Y-60097213D01*
X169544732Y-60024590D01*
X169612287Y-59931610D01*
X169705220Y-59749219D01*
X169768477Y-59554534D01*
X169800500Y-59352352D01*
X169800500Y-59147648D01*
X169768477Y-58945465D01*
X169705218Y-58750776D01*
X169655286Y-58652781D01*
X169612287Y-58568390D01*
X169604556Y-58557749D01*
X169491971Y-58402786D01*
X169347213Y-58258028D01*
X169181613Y-58137715D01*
X169181612Y-58137714D01*
X169181610Y-58137713D01*
X169124653Y-58108691D01*
X168999223Y-58044781D01*
X168804534Y-57981522D01*
X168629995Y-57953878D01*
X168602352Y-57949500D01*
X168397648Y-57949500D01*
X168373329Y-57953351D01*
X168195465Y-57981522D01*
X168000776Y-58044781D01*
X167818386Y-58137715D01*
X167652786Y-58258028D01*
X167508028Y-58402786D01*
X167387715Y-58568386D01*
X167294781Y-58750776D01*
X167231522Y-58945465D01*
X167199500Y-59147648D01*
X132151449Y-59147648D01*
X132225922Y-59073175D01*
X132225921Y-59073174D01*
X132181359Y-59040798D01*
X132181350Y-59040792D01*
X131999031Y-58947895D01*
X131804417Y-58884660D01*
X131602317Y-58852651D01*
X131397683Y-58852651D01*
X131195582Y-58884660D01*
X131000968Y-58947895D01*
X130818644Y-59040794D01*
X130774077Y-59073174D01*
X130774077Y-59073175D01*
X131453554Y-59752651D01*
X131447339Y-59752651D01*
X131345606Y-59779910D01*
X131254394Y-59832571D01*
X131179920Y-59907045D01*
X131127259Y-59998257D01*
X131100000Y-60099990D01*
X131100000Y-60106204D01*
X130420524Y-59426728D01*
X130420523Y-59426728D01*
X130388143Y-59471295D01*
X130295244Y-59653619D01*
X130232009Y-59848233D01*
X130200000Y-60050333D01*
X113179176Y-60050333D01*
X113205220Y-59999219D01*
X113268477Y-59804534D01*
X113300500Y-59602352D01*
X113300500Y-59397648D01*
X113268477Y-59195466D01*
X113205220Y-59000781D01*
X113112287Y-58818390D01*
X113063163Y-58750776D01*
X112991971Y-58652786D01*
X112847213Y-58508028D01*
X112681613Y-58387715D01*
X112681612Y-58387714D01*
X112681610Y-58387713D01*
X112624653Y-58358691D01*
X112499223Y-58294781D01*
X112304534Y-58231522D01*
X112129995Y-58203878D01*
X112102352Y-58199500D01*
X111897648Y-58199500D01*
X111873329Y-58203351D01*
X111695465Y-58231522D01*
X111500776Y-58294781D01*
X111318386Y-58387715D01*
X111152786Y-58508028D01*
X111008028Y-58652786D01*
X110887715Y-58818386D01*
X110794781Y-59000776D01*
X110731522Y-59195465D01*
X110699500Y-59397648D01*
X107748000Y-59397648D01*
X107748000Y-55399500D01*
X107767685Y-55332461D01*
X107820489Y-55286706D01*
X107872000Y-55275500D01*
X173375500Y-55275500D01*
X173442539Y-55295185D01*
G37*
%TD.AperFunction*%
%TD*%
M02*
