%TF.GenerationSoftware,KiCad,Pcbnew,10.0.1*%
%TF.CreationDate,2026-05-10T02:07:07+01:00*%
%TF.ProjectId,Smart Power Management Board.,536d6172-7420-4506-9f77-6572204d616e,rev?*%
%TF.SameCoordinates,Original*%
%TF.FileFunction,Legend,Top*%
%TF.FilePolarity,Positive*%
%FSLAX46Y46*%
G04 Gerber Fmt 4.6, Leading zero omitted, Abs format (unit mm)*
G04 Created by KiCad (PCBNEW 10.0.1) date 2026-05-10 02:07:07*
%MOMM*%
%LPD*%
G01*
G04 APERTURE LIST*
%ADD10C,0.100000*%
%ADD11C,0.187500*%
%ADD12C,0.200000*%
%ADD13C,0.300000*%
%ADD14C,0.150000*%
%ADD15C,0.120000*%
G04 APERTURE END LIST*
D10*
X111803884Y-92741466D02*
X112565789Y-92741466D01*
X116553884Y-92741466D02*
X117315789Y-92741466D01*
X116934836Y-93122419D02*
X116934836Y-92360514D01*
X117803884Y-98991466D02*
X118565789Y-98991466D01*
X118184836Y-99372419D02*
X118184836Y-98610514D01*
X122303884Y-98991466D02*
X123065789Y-98991466D01*
X109598609Y-95862782D02*
X109646228Y-95719925D01*
X109646228Y-95719925D02*
X109693847Y-95672306D01*
X109693847Y-95672306D02*
X109789085Y-95624687D01*
X109789085Y-95624687D02*
X109931942Y-95624687D01*
X109931942Y-95624687D02*
X110027180Y-95672306D01*
X110027180Y-95672306D02*
X110074800Y-95719925D01*
X110074800Y-95719925D02*
X110122419Y-95815163D01*
X110122419Y-95815163D02*
X110122419Y-96196115D01*
X110122419Y-96196115D02*
X109122419Y-96196115D01*
X109122419Y-96196115D02*
X109122419Y-95862782D01*
X109122419Y-95862782D02*
X109170038Y-95767544D01*
X109170038Y-95767544D02*
X109217657Y-95719925D01*
X109217657Y-95719925D02*
X109312895Y-95672306D01*
X109312895Y-95672306D02*
X109408133Y-95672306D01*
X109408133Y-95672306D02*
X109503371Y-95719925D01*
X109503371Y-95719925D02*
X109550990Y-95767544D01*
X109550990Y-95767544D02*
X109598609Y-95862782D01*
X109598609Y-95862782D02*
X109598609Y-96196115D01*
X109836704Y-95243734D02*
X109836704Y-94767544D01*
X110122419Y-95338972D02*
X109122419Y-95005639D01*
X109122419Y-95005639D02*
X110122419Y-94672306D01*
X109122419Y-94481829D02*
X109122419Y-93910401D01*
X110122419Y-94196115D02*
X109122419Y-94196115D01*
X109741466Y-92815162D02*
X109741466Y-92053258D01*
X109598609Y-101112782D02*
X109646228Y-100969925D01*
X109646228Y-100969925D02*
X109693847Y-100922306D01*
X109693847Y-100922306D02*
X109789085Y-100874687D01*
X109789085Y-100874687D02*
X109931942Y-100874687D01*
X109931942Y-100874687D02*
X110027180Y-100922306D01*
X110027180Y-100922306D02*
X110074800Y-100969925D01*
X110074800Y-100969925D02*
X110122419Y-101065163D01*
X110122419Y-101065163D02*
X110122419Y-101446115D01*
X110122419Y-101446115D02*
X109122419Y-101446115D01*
X109122419Y-101446115D02*
X109122419Y-101112782D01*
X109122419Y-101112782D02*
X109170038Y-101017544D01*
X109170038Y-101017544D02*
X109217657Y-100969925D01*
X109217657Y-100969925D02*
X109312895Y-100922306D01*
X109312895Y-100922306D02*
X109408133Y-100922306D01*
X109408133Y-100922306D02*
X109503371Y-100969925D01*
X109503371Y-100969925D02*
X109550990Y-101017544D01*
X109550990Y-101017544D02*
X109598609Y-101112782D01*
X109598609Y-101112782D02*
X109598609Y-101446115D01*
X109836704Y-100493734D02*
X109836704Y-100017544D01*
X110122419Y-100588972D02*
X109122419Y-100255639D01*
X109122419Y-100255639D02*
X110122419Y-99922306D01*
X109122419Y-99731829D02*
X109122419Y-99160401D01*
X110122419Y-99446115D02*
X109122419Y-99446115D01*
X109741466Y-98827067D02*
X109741466Y-98065163D01*
X110122419Y-98446115D02*
X109360514Y-98446115D01*
X171348609Y-94847782D02*
X171396228Y-94704925D01*
X171396228Y-94704925D02*
X171443847Y-94657306D01*
X171443847Y-94657306D02*
X171539085Y-94609687D01*
X171539085Y-94609687D02*
X171681942Y-94609687D01*
X171681942Y-94609687D02*
X171777180Y-94657306D01*
X171777180Y-94657306D02*
X171824800Y-94704925D01*
X171824800Y-94704925D02*
X171872419Y-94800163D01*
X171872419Y-94800163D02*
X171872419Y-95181115D01*
X171872419Y-95181115D02*
X170872419Y-95181115D01*
X170872419Y-95181115D02*
X170872419Y-94847782D01*
X170872419Y-94847782D02*
X170920038Y-94752544D01*
X170920038Y-94752544D02*
X170967657Y-94704925D01*
X170967657Y-94704925D02*
X171062895Y-94657306D01*
X171062895Y-94657306D02*
X171158133Y-94657306D01*
X171158133Y-94657306D02*
X171253371Y-94704925D01*
X171253371Y-94704925D02*
X171300990Y-94752544D01*
X171300990Y-94752544D02*
X171348609Y-94847782D01*
X171348609Y-94847782D02*
X171348609Y-95181115D01*
X171586704Y-94228734D02*
X171586704Y-93752544D01*
X171872419Y-94323972D02*
X170872419Y-93990639D01*
X170872419Y-93990639D02*
X171872419Y-93657306D01*
X170872419Y-93466829D02*
X170872419Y-92895401D01*
X171872419Y-93181115D02*
X170872419Y-93181115D01*
X171491466Y-92562067D02*
X171491466Y-91800163D01*
X171872419Y-92181115D02*
X171110514Y-92181115D01*
X170920038Y-100422306D02*
X170872419Y-100517544D01*
X170872419Y-100517544D02*
X170872419Y-100660401D01*
X170872419Y-100660401D02*
X170920038Y-100803258D01*
X170920038Y-100803258D02*
X171015276Y-100898496D01*
X171015276Y-100898496D02*
X171110514Y-100946115D01*
X171110514Y-100946115D02*
X171300990Y-100993734D01*
X171300990Y-100993734D02*
X171443847Y-100993734D01*
X171443847Y-100993734D02*
X171634323Y-100946115D01*
X171634323Y-100946115D02*
X171729561Y-100898496D01*
X171729561Y-100898496D02*
X171824800Y-100803258D01*
X171824800Y-100803258D02*
X171872419Y-100660401D01*
X171872419Y-100660401D02*
X171872419Y-100565163D01*
X171872419Y-100565163D02*
X171824800Y-100422306D01*
X171824800Y-100422306D02*
X171777180Y-100374687D01*
X171777180Y-100374687D02*
X171443847Y-100374687D01*
X171443847Y-100374687D02*
X171443847Y-100565163D01*
X171872419Y-99946115D02*
X170872419Y-99946115D01*
X170872419Y-99946115D02*
X171872419Y-99374687D01*
X171872419Y-99374687D02*
X170872419Y-99374687D01*
X171872419Y-98898496D02*
X170872419Y-98898496D01*
X170872419Y-98898496D02*
X170872419Y-98660401D01*
X170872419Y-98660401D02*
X170920038Y-98517544D01*
X170920038Y-98517544D02*
X171015276Y-98422306D01*
X171015276Y-98422306D02*
X171110514Y-98374687D01*
X171110514Y-98374687D02*
X171300990Y-98327068D01*
X171300990Y-98327068D02*
X171443847Y-98327068D01*
X171443847Y-98327068D02*
X171634323Y-98374687D01*
X171634323Y-98374687D02*
X171729561Y-98422306D01*
X171729561Y-98422306D02*
X171824800Y-98517544D01*
X171824800Y-98517544D02*
X171872419Y-98660401D01*
X171872419Y-98660401D02*
X171872419Y-98898496D01*
X171622419Y-89719925D02*
X171622419Y-90196115D01*
X171622419Y-90196115D02*
X172098609Y-90243734D01*
X172098609Y-90243734D02*
X172050990Y-90196115D01*
X172050990Y-90196115D02*
X172003371Y-90100877D01*
X172003371Y-90100877D02*
X172003371Y-89862782D01*
X172003371Y-89862782D02*
X172050990Y-89767544D01*
X172050990Y-89767544D02*
X172098609Y-89719925D01*
X172098609Y-89719925D02*
X172193847Y-89672306D01*
X172193847Y-89672306D02*
X172431942Y-89672306D01*
X172431942Y-89672306D02*
X172527180Y-89719925D01*
X172527180Y-89719925D02*
X172574800Y-89767544D01*
X172574800Y-89767544D02*
X172622419Y-89862782D01*
X172622419Y-89862782D02*
X172622419Y-90100877D01*
X172622419Y-90100877D02*
X172574800Y-90196115D01*
X172574800Y-90196115D02*
X172527180Y-90243734D01*
X171622419Y-89386591D02*
X172622419Y-89053258D01*
X172622419Y-89053258D02*
X171622419Y-88719925D01*
X171622419Y-87434210D02*
X171622419Y-87243734D01*
X171622419Y-87243734D02*
X171670038Y-87148496D01*
X171670038Y-87148496D02*
X171765276Y-87053258D01*
X171765276Y-87053258D02*
X171955752Y-87005639D01*
X171955752Y-87005639D02*
X172289085Y-87005639D01*
X172289085Y-87005639D02*
X172479561Y-87053258D01*
X172479561Y-87053258D02*
X172574800Y-87148496D01*
X172574800Y-87148496D02*
X172622419Y-87243734D01*
X172622419Y-87243734D02*
X172622419Y-87434210D01*
X172622419Y-87434210D02*
X172574800Y-87529448D01*
X172574800Y-87529448D02*
X172479561Y-87624686D01*
X172479561Y-87624686D02*
X172289085Y-87672305D01*
X172289085Y-87672305D02*
X171955752Y-87672305D01*
X171955752Y-87672305D02*
X171765276Y-87624686D01*
X171765276Y-87624686D02*
X171670038Y-87529448D01*
X171670038Y-87529448D02*
X171622419Y-87434210D01*
X171622419Y-86577067D02*
X172431942Y-86577067D01*
X172431942Y-86577067D02*
X172527180Y-86529448D01*
X172527180Y-86529448D02*
X172574800Y-86481829D01*
X172574800Y-86481829D02*
X172622419Y-86386591D01*
X172622419Y-86386591D02*
X172622419Y-86196115D01*
X172622419Y-86196115D02*
X172574800Y-86100877D01*
X172574800Y-86100877D02*
X172527180Y-86053258D01*
X172527180Y-86053258D02*
X172431942Y-86005639D01*
X172431942Y-86005639D02*
X171622419Y-86005639D01*
X171622419Y-85672305D02*
X171622419Y-85100877D01*
X172622419Y-85386591D02*
X171622419Y-85386591D01*
X171920038Y-79922306D02*
X171872419Y-80017544D01*
X171872419Y-80017544D02*
X171872419Y-80160401D01*
X171872419Y-80160401D02*
X171920038Y-80303258D01*
X171920038Y-80303258D02*
X172015276Y-80398496D01*
X172015276Y-80398496D02*
X172110514Y-80446115D01*
X172110514Y-80446115D02*
X172300990Y-80493734D01*
X172300990Y-80493734D02*
X172443847Y-80493734D01*
X172443847Y-80493734D02*
X172634323Y-80446115D01*
X172634323Y-80446115D02*
X172729561Y-80398496D01*
X172729561Y-80398496D02*
X172824800Y-80303258D01*
X172824800Y-80303258D02*
X172872419Y-80160401D01*
X172872419Y-80160401D02*
X172872419Y-80065163D01*
X172872419Y-80065163D02*
X172824800Y-79922306D01*
X172824800Y-79922306D02*
X172777180Y-79874687D01*
X172777180Y-79874687D02*
X172443847Y-79874687D01*
X172443847Y-79874687D02*
X172443847Y-80065163D01*
X172872419Y-79446115D02*
X171872419Y-79446115D01*
X171872419Y-79446115D02*
X172872419Y-78874687D01*
X172872419Y-78874687D02*
X171872419Y-78874687D01*
X172872419Y-78398496D02*
X171872419Y-78398496D01*
X171872419Y-78398496D02*
X171872419Y-78160401D01*
X171872419Y-78160401D02*
X171920038Y-78017544D01*
X171920038Y-78017544D02*
X172015276Y-77922306D01*
X172015276Y-77922306D02*
X172110514Y-77874687D01*
X172110514Y-77874687D02*
X172300990Y-77827068D01*
X172300990Y-77827068D02*
X172443847Y-77827068D01*
X172443847Y-77827068D02*
X172634323Y-77874687D01*
X172634323Y-77874687D02*
X172729561Y-77922306D01*
X172729561Y-77922306D02*
X172824800Y-78017544D01*
X172824800Y-78017544D02*
X172872419Y-78160401D01*
X172872419Y-78160401D02*
X172872419Y-78398496D01*
D11*
X125135259Y-103117869D02*
X124563831Y-103117869D01*
X124849545Y-103117869D02*
X124849545Y-102117869D01*
X124849545Y-102117869D02*
X124754307Y-102260726D01*
X124754307Y-102260726D02*
X124659069Y-102355964D01*
X124659069Y-102355964D02*
X124563831Y-102403583D01*
X125754307Y-102117869D02*
X125849545Y-102117869D01*
X125849545Y-102117869D02*
X125944783Y-102165488D01*
X125944783Y-102165488D02*
X125992402Y-102213107D01*
X125992402Y-102213107D02*
X126040021Y-102308345D01*
X126040021Y-102308345D02*
X126087640Y-102498821D01*
X126087640Y-102498821D02*
X126087640Y-102736916D01*
X126087640Y-102736916D02*
X126040021Y-102927392D01*
X126040021Y-102927392D02*
X125992402Y-103022630D01*
X125992402Y-103022630D02*
X125944783Y-103070250D01*
X125944783Y-103070250D02*
X125849545Y-103117869D01*
X125849545Y-103117869D02*
X125754307Y-103117869D01*
X125754307Y-103117869D02*
X125659069Y-103070250D01*
X125659069Y-103070250D02*
X125611450Y-103022630D01*
X125611450Y-103022630D02*
X125563831Y-102927392D01*
X125563831Y-102927392D02*
X125516212Y-102736916D01*
X125516212Y-102736916D02*
X125516212Y-102498821D01*
X125516212Y-102498821D02*
X125563831Y-102308345D01*
X125563831Y-102308345D02*
X125611450Y-102213107D01*
X125611450Y-102213107D02*
X125659069Y-102165488D01*
X125659069Y-102165488D02*
X125754307Y-102117869D01*
X127230497Y-102070250D02*
X126373355Y-103355964D01*
X127754307Y-102117869D02*
X127849545Y-102117869D01*
X127849545Y-102117869D02*
X127944783Y-102165488D01*
X127944783Y-102165488D02*
X127992402Y-102213107D01*
X127992402Y-102213107D02*
X128040021Y-102308345D01*
X128040021Y-102308345D02*
X128087640Y-102498821D01*
X128087640Y-102498821D02*
X128087640Y-102736916D01*
X128087640Y-102736916D02*
X128040021Y-102927392D01*
X128040021Y-102927392D02*
X127992402Y-103022630D01*
X127992402Y-103022630D02*
X127944783Y-103070250D01*
X127944783Y-103070250D02*
X127849545Y-103117869D01*
X127849545Y-103117869D02*
X127754307Y-103117869D01*
X127754307Y-103117869D02*
X127659069Y-103070250D01*
X127659069Y-103070250D02*
X127611450Y-103022630D01*
X127611450Y-103022630D02*
X127563831Y-102927392D01*
X127563831Y-102927392D02*
X127516212Y-102736916D01*
X127516212Y-102736916D02*
X127516212Y-102498821D01*
X127516212Y-102498821D02*
X127563831Y-102308345D01*
X127563831Y-102308345D02*
X127611450Y-102213107D01*
X127611450Y-102213107D02*
X127659069Y-102165488D01*
X127659069Y-102165488D02*
X127754307Y-102117869D01*
X128992402Y-102117869D02*
X128516212Y-102117869D01*
X128516212Y-102117869D02*
X128468593Y-102594059D01*
X128468593Y-102594059D02*
X128516212Y-102546440D01*
X128516212Y-102546440D02*
X128611450Y-102498821D01*
X128611450Y-102498821D02*
X128849545Y-102498821D01*
X128849545Y-102498821D02*
X128944783Y-102546440D01*
X128944783Y-102546440D02*
X128992402Y-102594059D01*
X128992402Y-102594059D02*
X129040021Y-102689297D01*
X129040021Y-102689297D02*
X129040021Y-102927392D01*
X129040021Y-102927392D02*
X128992402Y-103022630D01*
X128992402Y-103022630D02*
X128944783Y-103070250D01*
X128944783Y-103070250D02*
X128849545Y-103117869D01*
X128849545Y-103117869D02*
X128611450Y-103117869D01*
X128611450Y-103117869D02*
X128516212Y-103070250D01*
X128516212Y-103070250D02*
X128468593Y-103022630D01*
X130182878Y-102070250D02*
X129325736Y-103355964D01*
X130468593Y-102213107D02*
X130516212Y-102165488D01*
X130516212Y-102165488D02*
X130611450Y-102117869D01*
X130611450Y-102117869D02*
X130849545Y-102117869D01*
X130849545Y-102117869D02*
X130944783Y-102165488D01*
X130944783Y-102165488D02*
X130992402Y-102213107D01*
X130992402Y-102213107D02*
X131040021Y-102308345D01*
X131040021Y-102308345D02*
X131040021Y-102403583D01*
X131040021Y-102403583D02*
X130992402Y-102546440D01*
X130992402Y-102546440D02*
X130420974Y-103117869D01*
X130420974Y-103117869D02*
X131040021Y-103117869D01*
X131659069Y-102117869D02*
X131754307Y-102117869D01*
X131754307Y-102117869D02*
X131849545Y-102165488D01*
X131849545Y-102165488D02*
X131897164Y-102213107D01*
X131897164Y-102213107D02*
X131944783Y-102308345D01*
X131944783Y-102308345D02*
X131992402Y-102498821D01*
X131992402Y-102498821D02*
X131992402Y-102736916D01*
X131992402Y-102736916D02*
X131944783Y-102927392D01*
X131944783Y-102927392D02*
X131897164Y-103022630D01*
X131897164Y-103022630D02*
X131849545Y-103070250D01*
X131849545Y-103070250D02*
X131754307Y-103117869D01*
X131754307Y-103117869D02*
X131659069Y-103117869D01*
X131659069Y-103117869D02*
X131563831Y-103070250D01*
X131563831Y-103070250D02*
X131516212Y-103022630D01*
X131516212Y-103022630D02*
X131468593Y-102927392D01*
X131468593Y-102927392D02*
X131420974Y-102736916D01*
X131420974Y-102736916D02*
X131420974Y-102498821D01*
X131420974Y-102498821D02*
X131468593Y-102308345D01*
X131468593Y-102308345D02*
X131516212Y-102213107D01*
X131516212Y-102213107D02*
X131563831Y-102165488D01*
X131563831Y-102165488D02*
X131659069Y-102117869D01*
X132373355Y-102213107D02*
X132420974Y-102165488D01*
X132420974Y-102165488D02*
X132516212Y-102117869D01*
X132516212Y-102117869D02*
X132754307Y-102117869D01*
X132754307Y-102117869D02*
X132849545Y-102165488D01*
X132849545Y-102165488D02*
X132897164Y-102213107D01*
X132897164Y-102213107D02*
X132944783Y-102308345D01*
X132944783Y-102308345D02*
X132944783Y-102403583D01*
X132944783Y-102403583D02*
X132897164Y-102546440D01*
X132897164Y-102546440D02*
X132325736Y-103117869D01*
X132325736Y-103117869D02*
X132944783Y-103117869D01*
X133801926Y-102117869D02*
X133611450Y-102117869D01*
X133611450Y-102117869D02*
X133516212Y-102165488D01*
X133516212Y-102165488D02*
X133468593Y-102213107D01*
X133468593Y-102213107D02*
X133373355Y-102355964D01*
X133373355Y-102355964D02*
X133325736Y-102546440D01*
X133325736Y-102546440D02*
X133325736Y-102927392D01*
X133325736Y-102927392D02*
X133373355Y-103022630D01*
X133373355Y-103022630D02*
X133420974Y-103070250D01*
X133420974Y-103070250D02*
X133516212Y-103117869D01*
X133516212Y-103117869D02*
X133706688Y-103117869D01*
X133706688Y-103117869D02*
X133801926Y-103070250D01*
X133801926Y-103070250D02*
X133849545Y-103022630D01*
X133849545Y-103022630D02*
X133897164Y-102927392D01*
X133897164Y-102927392D02*
X133897164Y-102689297D01*
X133897164Y-102689297D02*
X133849545Y-102594059D01*
X133849545Y-102594059D02*
X133801926Y-102546440D01*
X133801926Y-102546440D02*
X133706688Y-102498821D01*
X133706688Y-102498821D02*
X133516212Y-102498821D01*
X133516212Y-102498821D02*
X133420974Y-102546440D01*
X133420974Y-102546440D02*
X133373355Y-102594059D01*
X133373355Y-102594059D02*
X133325736Y-102689297D01*
D12*
X110617219Y-70606517D02*
X110617219Y-71177945D01*
X110617219Y-70892231D02*
X109617219Y-70892231D01*
X109617219Y-70892231D02*
X109760076Y-70987469D01*
X109760076Y-70987469D02*
X109855314Y-71082707D01*
X109855314Y-71082707D02*
X109902933Y-71177945D01*
X109712457Y-70225564D02*
X109664838Y-70177945D01*
X109664838Y-70177945D02*
X109617219Y-70082707D01*
X109617219Y-70082707D02*
X109617219Y-69844612D01*
X109617219Y-69844612D02*
X109664838Y-69749374D01*
X109664838Y-69749374D02*
X109712457Y-69701755D01*
X109712457Y-69701755D02*
X109807695Y-69654136D01*
X109807695Y-69654136D02*
X109902933Y-69654136D01*
X109902933Y-69654136D02*
X110045790Y-69701755D01*
X110045790Y-69701755D02*
X110617219Y-70273183D01*
X110617219Y-70273183D02*
X110617219Y-69654136D01*
X109617219Y-69368421D02*
X110617219Y-69035088D01*
X110617219Y-69035088D02*
X109617219Y-68701755D01*
X110617219Y-67606516D02*
X109617219Y-67606516D01*
X110617219Y-67130326D02*
X109617219Y-67130326D01*
X109617219Y-67130326D02*
X110617219Y-66558898D01*
X110617219Y-66558898D02*
X109617219Y-66558898D01*
X113664838Y-62606517D02*
X113617219Y-62701755D01*
X113617219Y-62701755D02*
X113617219Y-62844612D01*
X113617219Y-62844612D02*
X113664838Y-62987469D01*
X113664838Y-62987469D02*
X113760076Y-63082707D01*
X113760076Y-63082707D02*
X113855314Y-63130326D01*
X113855314Y-63130326D02*
X114045790Y-63177945D01*
X114045790Y-63177945D02*
X114188647Y-63177945D01*
X114188647Y-63177945D02*
X114379123Y-63130326D01*
X114379123Y-63130326D02*
X114474361Y-63082707D01*
X114474361Y-63082707D02*
X114569600Y-62987469D01*
X114569600Y-62987469D02*
X114617219Y-62844612D01*
X114617219Y-62844612D02*
X114617219Y-62749374D01*
X114617219Y-62749374D02*
X114569600Y-62606517D01*
X114569600Y-62606517D02*
X114521980Y-62558898D01*
X114521980Y-62558898D02*
X114188647Y-62558898D01*
X114188647Y-62558898D02*
X114188647Y-62749374D01*
X114617219Y-62130326D02*
X113617219Y-62130326D01*
X113617219Y-62130326D02*
X114617219Y-61558898D01*
X114617219Y-61558898D02*
X113617219Y-61558898D01*
X114617219Y-61082707D02*
X113617219Y-61082707D01*
X113617219Y-61082707D02*
X113617219Y-60844612D01*
X113617219Y-60844612D02*
X113664838Y-60701755D01*
X113664838Y-60701755D02*
X113760076Y-60606517D01*
X113760076Y-60606517D02*
X113855314Y-60558898D01*
X113855314Y-60558898D02*
X114045790Y-60511279D01*
X114045790Y-60511279D02*
X114188647Y-60511279D01*
X114188647Y-60511279D02*
X114379123Y-60558898D01*
X114379123Y-60558898D02*
X114474361Y-60606517D01*
X114474361Y-60606517D02*
X114569600Y-60701755D01*
X114569600Y-60701755D02*
X114617219Y-60844612D01*
X114617219Y-60844612D02*
X114617219Y-61082707D01*
X113617219Y-78023183D02*
X114617219Y-77689850D01*
X114617219Y-77689850D02*
X113617219Y-77356517D01*
X114617219Y-77023183D02*
X113617219Y-77023183D01*
X114617219Y-76546993D02*
X113617219Y-76546993D01*
X113617219Y-76546993D02*
X114617219Y-75975565D01*
X114617219Y-75975565D02*
X113617219Y-75975565D01*
D13*
X115925939Y-107280400D02*
X116097368Y-107337542D01*
X116097368Y-107337542D02*
X116383082Y-107337542D01*
X116383082Y-107337542D02*
X116497368Y-107280400D01*
X116497368Y-107280400D02*
X116554510Y-107223257D01*
X116554510Y-107223257D02*
X116611653Y-107108971D01*
X116611653Y-107108971D02*
X116611653Y-106994685D01*
X116611653Y-106994685D02*
X116554510Y-106880400D01*
X116554510Y-106880400D02*
X116497368Y-106823257D01*
X116497368Y-106823257D02*
X116383082Y-106766114D01*
X116383082Y-106766114D02*
X116154510Y-106708971D01*
X116154510Y-106708971D02*
X116040225Y-106651828D01*
X116040225Y-106651828D02*
X115983082Y-106594685D01*
X115983082Y-106594685D02*
X115925939Y-106480400D01*
X115925939Y-106480400D02*
X115925939Y-106366114D01*
X115925939Y-106366114D02*
X115983082Y-106251828D01*
X115983082Y-106251828D02*
X116040225Y-106194685D01*
X116040225Y-106194685D02*
X116154510Y-106137542D01*
X116154510Y-106137542D02*
X116440225Y-106137542D01*
X116440225Y-106137542D02*
X116611653Y-106194685D01*
X117125939Y-107337542D02*
X117125939Y-106137542D01*
X117125939Y-106137542D02*
X117525939Y-106994685D01*
X117525939Y-106994685D02*
X117925939Y-106137542D01*
X117925939Y-106137542D02*
X117925939Y-107337542D01*
X118440225Y-106994685D02*
X119011654Y-106994685D01*
X118325939Y-107337542D02*
X118725939Y-106137542D01*
X118725939Y-106137542D02*
X119125939Y-107337542D01*
X120211653Y-107337542D02*
X119811653Y-106766114D01*
X119525939Y-107337542D02*
X119525939Y-106137542D01*
X119525939Y-106137542D02*
X119983082Y-106137542D01*
X119983082Y-106137542D02*
X120097367Y-106194685D01*
X120097367Y-106194685D02*
X120154510Y-106251828D01*
X120154510Y-106251828D02*
X120211653Y-106366114D01*
X120211653Y-106366114D02*
X120211653Y-106537542D01*
X120211653Y-106537542D02*
X120154510Y-106651828D01*
X120154510Y-106651828D02*
X120097367Y-106708971D01*
X120097367Y-106708971D02*
X119983082Y-106766114D01*
X119983082Y-106766114D02*
X119525939Y-106766114D01*
X120554510Y-106137542D02*
X121240225Y-106137542D01*
X120897367Y-107337542D02*
X120897367Y-106137542D01*
X122554511Y-107337542D02*
X122554511Y-106137542D01*
X122554511Y-106137542D02*
X123011654Y-106137542D01*
X123011654Y-106137542D02*
X123125939Y-106194685D01*
X123125939Y-106194685D02*
X123183082Y-106251828D01*
X123183082Y-106251828D02*
X123240225Y-106366114D01*
X123240225Y-106366114D02*
X123240225Y-106537542D01*
X123240225Y-106537542D02*
X123183082Y-106651828D01*
X123183082Y-106651828D02*
X123125939Y-106708971D01*
X123125939Y-106708971D02*
X123011654Y-106766114D01*
X123011654Y-106766114D02*
X122554511Y-106766114D01*
X123983082Y-106137542D02*
X124211654Y-106137542D01*
X124211654Y-106137542D02*
X124325939Y-106194685D01*
X124325939Y-106194685D02*
X124440225Y-106308971D01*
X124440225Y-106308971D02*
X124497368Y-106537542D01*
X124497368Y-106537542D02*
X124497368Y-106937542D01*
X124497368Y-106937542D02*
X124440225Y-107166114D01*
X124440225Y-107166114D02*
X124325939Y-107280400D01*
X124325939Y-107280400D02*
X124211654Y-107337542D01*
X124211654Y-107337542D02*
X123983082Y-107337542D01*
X123983082Y-107337542D02*
X123868797Y-107280400D01*
X123868797Y-107280400D02*
X123754511Y-107166114D01*
X123754511Y-107166114D02*
X123697368Y-106937542D01*
X123697368Y-106937542D02*
X123697368Y-106537542D01*
X123697368Y-106537542D02*
X123754511Y-106308971D01*
X123754511Y-106308971D02*
X123868797Y-106194685D01*
X123868797Y-106194685D02*
X123983082Y-106137542D01*
X124897368Y-106137542D02*
X125183082Y-107337542D01*
X125183082Y-107337542D02*
X125411654Y-106480400D01*
X125411654Y-106480400D02*
X125640225Y-107337542D01*
X125640225Y-107337542D02*
X125925940Y-106137542D01*
X126383083Y-106708971D02*
X126783083Y-106708971D01*
X126954511Y-107337542D02*
X126383083Y-107337542D01*
X126383083Y-107337542D02*
X126383083Y-106137542D01*
X126383083Y-106137542D02*
X126954511Y-106137542D01*
X128154511Y-107337542D02*
X127754511Y-106766114D01*
X127468797Y-107337542D02*
X127468797Y-106137542D01*
X127468797Y-106137542D02*
X127925940Y-106137542D01*
X127925940Y-106137542D02*
X128040225Y-106194685D01*
X128040225Y-106194685D02*
X128097368Y-106251828D01*
X128097368Y-106251828D02*
X128154511Y-106366114D01*
X128154511Y-106366114D02*
X128154511Y-106537542D01*
X128154511Y-106537542D02*
X128097368Y-106651828D01*
X128097368Y-106651828D02*
X128040225Y-106708971D01*
X128040225Y-106708971D02*
X127925940Y-106766114D01*
X127925940Y-106766114D02*
X127468797Y-106766114D01*
X129583083Y-107337542D02*
X129583083Y-106137542D01*
X129583083Y-106137542D02*
X129983083Y-106994685D01*
X129983083Y-106994685D02*
X130383083Y-106137542D01*
X130383083Y-106137542D02*
X130383083Y-107337542D01*
X130897369Y-106994685D02*
X131468798Y-106994685D01*
X130783083Y-107337542D02*
X131183083Y-106137542D01*
X131183083Y-106137542D02*
X131583083Y-107337542D01*
X131983083Y-107337542D02*
X131983083Y-106137542D01*
X131983083Y-106137542D02*
X132668797Y-107337542D01*
X132668797Y-107337542D02*
X132668797Y-106137542D01*
X133183083Y-106994685D02*
X133754512Y-106994685D01*
X133068797Y-107337542D02*
X133468797Y-106137542D01*
X133468797Y-106137542D02*
X133868797Y-107337542D01*
X134897368Y-106194685D02*
X134783083Y-106137542D01*
X134783083Y-106137542D02*
X134611654Y-106137542D01*
X134611654Y-106137542D02*
X134440225Y-106194685D01*
X134440225Y-106194685D02*
X134325940Y-106308971D01*
X134325940Y-106308971D02*
X134268797Y-106423257D01*
X134268797Y-106423257D02*
X134211654Y-106651828D01*
X134211654Y-106651828D02*
X134211654Y-106823257D01*
X134211654Y-106823257D02*
X134268797Y-107051828D01*
X134268797Y-107051828D02*
X134325940Y-107166114D01*
X134325940Y-107166114D02*
X134440225Y-107280400D01*
X134440225Y-107280400D02*
X134611654Y-107337542D01*
X134611654Y-107337542D02*
X134725940Y-107337542D01*
X134725940Y-107337542D02*
X134897368Y-107280400D01*
X134897368Y-107280400D02*
X134954511Y-107223257D01*
X134954511Y-107223257D02*
X134954511Y-106823257D01*
X134954511Y-106823257D02*
X134725940Y-106823257D01*
X135468797Y-107337542D02*
X135468797Y-106137542D01*
X135468797Y-106137542D02*
X135868797Y-106994685D01*
X135868797Y-106994685D02*
X136268797Y-106137542D01*
X136268797Y-106137542D02*
X136268797Y-107337542D01*
X136840226Y-106708971D02*
X137240226Y-106708971D01*
X137411654Y-107337542D02*
X136840226Y-107337542D01*
X136840226Y-107337542D02*
X136840226Y-106137542D01*
X136840226Y-106137542D02*
X137411654Y-106137542D01*
X137925940Y-107337542D02*
X137925940Y-106137542D01*
X137925940Y-106137542D02*
X138611654Y-107337542D01*
X138611654Y-107337542D02*
X138611654Y-106137542D01*
X139011654Y-106137542D02*
X139697369Y-106137542D01*
X139354511Y-107337542D02*
X139354511Y-106137542D01*
X141411655Y-106708971D02*
X141583083Y-106766114D01*
X141583083Y-106766114D02*
X141640226Y-106823257D01*
X141640226Y-106823257D02*
X141697369Y-106937542D01*
X141697369Y-106937542D02*
X141697369Y-107108971D01*
X141697369Y-107108971D02*
X141640226Y-107223257D01*
X141640226Y-107223257D02*
X141583083Y-107280400D01*
X141583083Y-107280400D02*
X141468798Y-107337542D01*
X141468798Y-107337542D02*
X141011655Y-107337542D01*
X141011655Y-107337542D02*
X141011655Y-106137542D01*
X141011655Y-106137542D02*
X141411655Y-106137542D01*
X141411655Y-106137542D02*
X141525941Y-106194685D01*
X141525941Y-106194685D02*
X141583083Y-106251828D01*
X141583083Y-106251828D02*
X141640226Y-106366114D01*
X141640226Y-106366114D02*
X141640226Y-106480400D01*
X141640226Y-106480400D02*
X141583083Y-106594685D01*
X141583083Y-106594685D02*
X141525941Y-106651828D01*
X141525941Y-106651828D02*
X141411655Y-106708971D01*
X141411655Y-106708971D02*
X141011655Y-106708971D01*
X142440226Y-106137542D02*
X142668798Y-106137542D01*
X142668798Y-106137542D02*
X142783083Y-106194685D01*
X142783083Y-106194685D02*
X142897369Y-106308971D01*
X142897369Y-106308971D02*
X142954512Y-106537542D01*
X142954512Y-106537542D02*
X142954512Y-106937542D01*
X142954512Y-106937542D02*
X142897369Y-107166114D01*
X142897369Y-107166114D02*
X142783083Y-107280400D01*
X142783083Y-107280400D02*
X142668798Y-107337542D01*
X142668798Y-107337542D02*
X142440226Y-107337542D01*
X142440226Y-107337542D02*
X142325941Y-107280400D01*
X142325941Y-107280400D02*
X142211655Y-107166114D01*
X142211655Y-107166114D02*
X142154512Y-106937542D01*
X142154512Y-106937542D02*
X142154512Y-106537542D01*
X142154512Y-106537542D02*
X142211655Y-106308971D01*
X142211655Y-106308971D02*
X142325941Y-106194685D01*
X142325941Y-106194685D02*
X142440226Y-106137542D01*
X143411655Y-106994685D02*
X143983084Y-106994685D01*
X143297369Y-107337542D02*
X143697369Y-106137542D01*
X143697369Y-106137542D02*
X144097369Y-107337542D01*
X145183083Y-107337542D02*
X144783083Y-106766114D01*
X144497369Y-107337542D02*
X144497369Y-106137542D01*
X144497369Y-106137542D02*
X144954512Y-106137542D01*
X144954512Y-106137542D02*
X145068797Y-106194685D01*
X145068797Y-106194685D02*
X145125940Y-106251828D01*
X145125940Y-106251828D02*
X145183083Y-106366114D01*
X145183083Y-106366114D02*
X145183083Y-106537542D01*
X145183083Y-106537542D02*
X145125940Y-106651828D01*
X145125940Y-106651828D02*
X145068797Y-106708971D01*
X145068797Y-106708971D02*
X144954512Y-106766114D01*
X144954512Y-106766114D02*
X144497369Y-106766114D01*
X145697369Y-107337542D02*
X145697369Y-106137542D01*
X145697369Y-106137542D02*
X145983083Y-106137542D01*
X145983083Y-106137542D02*
X146154512Y-106194685D01*
X146154512Y-106194685D02*
X146268797Y-106308971D01*
X146268797Y-106308971D02*
X146325940Y-106423257D01*
X146325940Y-106423257D02*
X146383083Y-106651828D01*
X146383083Y-106651828D02*
X146383083Y-106823257D01*
X146383083Y-106823257D02*
X146325940Y-107051828D01*
X146325940Y-107051828D02*
X146268797Y-107166114D01*
X146268797Y-107166114D02*
X146154512Y-107280400D01*
X146154512Y-107280400D02*
X145983083Y-107337542D01*
X145983083Y-107337542D02*
X145697369Y-107337542D01*
X124554510Y-100800828D02*
X124554510Y-99300828D01*
X124554510Y-99300828D02*
X125054510Y-100372257D01*
X125054510Y-100372257D02*
X125554510Y-99300828D01*
X125554510Y-99300828D02*
X125554510Y-100800828D01*
X126911654Y-100800828D02*
X126911654Y-100015114D01*
X126911654Y-100015114D02*
X126840225Y-99872257D01*
X126840225Y-99872257D02*
X126697368Y-99800828D01*
X126697368Y-99800828D02*
X126411654Y-99800828D01*
X126411654Y-99800828D02*
X126268796Y-99872257D01*
X126911654Y-100729400D02*
X126768796Y-100800828D01*
X126768796Y-100800828D02*
X126411654Y-100800828D01*
X126411654Y-100800828D02*
X126268796Y-100729400D01*
X126268796Y-100729400D02*
X126197368Y-100586542D01*
X126197368Y-100586542D02*
X126197368Y-100443685D01*
X126197368Y-100443685D02*
X126268796Y-100300828D01*
X126268796Y-100300828D02*
X126411654Y-100229400D01*
X126411654Y-100229400D02*
X126768796Y-100229400D01*
X126768796Y-100229400D02*
X126911654Y-100157971D01*
X128268797Y-100800828D02*
X128268797Y-99300828D01*
X128268797Y-100729400D02*
X128125939Y-100800828D01*
X128125939Y-100800828D02*
X127840225Y-100800828D01*
X127840225Y-100800828D02*
X127697368Y-100729400D01*
X127697368Y-100729400D02*
X127625939Y-100657971D01*
X127625939Y-100657971D02*
X127554511Y-100515114D01*
X127554511Y-100515114D02*
X127554511Y-100086542D01*
X127554511Y-100086542D02*
X127625939Y-99943685D01*
X127625939Y-99943685D02*
X127697368Y-99872257D01*
X127697368Y-99872257D02*
X127840225Y-99800828D01*
X127840225Y-99800828D02*
X128125939Y-99800828D01*
X128125939Y-99800828D02*
X128268797Y-99872257D01*
X129554511Y-100729400D02*
X129411654Y-100800828D01*
X129411654Y-100800828D02*
X129125940Y-100800828D01*
X129125940Y-100800828D02*
X128983082Y-100729400D01*
X128983082Y-100729400D02*
X128911654Y-100586542D01*
X128911654Y-100586542D02*
X128911654Y-100015114D01*
X128911654Y-100015114D02*
X128983082Y-99872257D01*
X128983082Y-99872257D02*
X129125940Y-99800828D01*
X129125940Y-99800828D02*
X129411654Y-99800828D01*
X129411654Y-99800828D02*
X129554511Y-99872257D01*
X129554511Y-99872257D02*
X129625940Y-100015114D01*
X129625940Y-100015114D02*
X129625940Y-100157971D01*
X129625940Y-100157971D02*
X128911654Y-100300828D01*
X131911653Y-100015114D02*
X132125939Y-100086542D01*
X132125939Y-100086542D02*
X132197368Y-100157971D01*
X132197368Y-100157971D02*
X132268796Y-100300828D01*
X132268796Y-100300828D02*
X132268796Y-100515114D01*
X132268796Y-100515114D02*
X132197368Y-100657971D01*
X132197368Y-100657971D02*
X132125939Y-100729400D01*
X132125939Y-100729400D02*
X131983082Y-100800828D01*
X131983082Y-100800828D02*
X131411653Y-100800828D01*
X131411653Y-100800828D02*
X131411653Y-99300828D01*
X131411653Y-99300828D02*
X131911653Y-99300828D01*
X131911653Y-99300828D02*
X132054511Y-99372257D01*
X132054511Y-99372257D02*
X132125939Y-99443685D01*
X132125939Y-99443685D02*
X132197368Y-99586542D01*
X132197368Y-99586542D02*
X132197368Y-99729400D01*
X132197368Y-99729400D02*
X132125939Y-99872257D01*
X132125939Y-99872257D02*
X132054511Y-99943685D01*
X132054511Y-99943685D02*
X131911653Y-100015114D01*
X131911653Y-100015114D02*
X131411653Y-100015114D01*
X132768796Y-99800828D02*
X133125939Y-100800828D01*
X133483082Y-99800828D02*
X133125939Y-100800828D01*
X133125939Y-100800828D02*
X132983082Y-101157971D01*
X132983082Y-101157971D02*
X132911653Y-101229400D01*
X132911653Y-101229400D02*
X132768796Y-101300828D01*
X134054510Y-100657971D02*
X134125939Y-100729400D01*
X134125939Y-100729400D02*
X134054510Y-100800828D01*
X134054510Y-100800828D02*
X133983082Y-100729400D01*
X133983082Y-100729400D02*
X134054510Y-100657971D01*
X134054510Y-100657971D02*
X134054510Y-100800828D01*
X134054510Y-99872257D02*
X134125939Y-99943685D01*
X134125939Y-99943685D02*
X134054510Y-100015114D01*
X134054510Y-100015114D02*
X133983082Y-99943685D01*
X133983082Y-99943685D02*
X134054510Y-99872257D01*
X134054510Y-99872257D02*
X134054510Y-100015114D01*
X136625939Y-100800828D02*
X135911653Y-100800828D01*
X135911653Y-100800828D02*
X135911653Y-99300828D01*
X137125939Y-100657971D02*
X137197368Y-100729400D01*
X137197368Y-100729400D02*
X137125939Y-100800828D01*
X137125939Y-100800828D02*
X137054511Y-100729400D01*
X137054511Y-100729400D02*
X137125939Y-100657971D01*
X137125939Y-100657971D02*
X137125939Y-100800828D01*
X137840225Y-100800828D02*
X137840225Y-99300828D01*
X137840225Y-99300828D02*
X138340225Y-100372257D01*
X138340225Y-100372257D02*
X138840225Y-99300828D01*
X138840225Y-99300828D02*
X138840225Y-100800828D01*
X139554511Y-100657971D02*
X139625940Y-100729400D01*
X139625940Y-100729400D02*
X139554511Y-100800828D01*
X139554511Y-100800828D02*
X139483083Y-100729400D01*
X139483083Y-100729400D02*
X139554511Y-100657971D01*
X139554511Y-100657971D02*
X139554511Y-100800828D01*
X141125940Y-100800828D02*
X140625940Y-100086542D01*
X140268797Y-100800828D02*
X140268797Y-99300828D01*
X140268797Y-99300828D02*
X140840226Y-99300828D01*
X140840226Y-99300828D02*
X140983083Y-99372257D01*
X140983083Y-99372257D02*
X141054512Y-99443685D01*
X141054512Y-99443685D02*
X141125940Y-99586542D01*
X141125940Y-99586542D02*
X141125940Y-99800828D01*
X141125940Y-99800828D02*
X141054512Y-99943685D01*
X141054512Y-99943685D02*
X140983083Y-100015114D01*
X140983083Y-100015114D02*
X140840226Y-100086542D01*
X140840226Y-100086542D02*
X140268797Y-100086542D01*
D14*
X159604438Y-107761904D02*
X159556819Y-107857142D01*
X159556819Y-107857142D02*
X159556819Y-107999999D01*
X159556819Y-107999999D02*
X159604438Y-108142856D01*
X159604438Y-108142856D02*
X159699676Y-108238094D01*
X159699676Y-108238094D02*
X159794914Y-108285713D01*
X159794914Y-108285713D02*
X159985390Y-108333332D01*
X159985390Y-108333332D02*
X160128247Y-108333332D01*
X160128247Y-108333332D02*
X160318723Y-108285713D01*
X160318723Y-108285713D02*
X160413961Y-108238094D01*
X160413961Y-108238094D02*
X160509200Y-108142856D01*
X160509200Y-108142856D02*
X160556819Y-107999999D01*
X160556819Y-107999999D02*
X160556819Y-107904761D01*
X160556819Y-107904761D02*
X160509200Y-107761904D01*
X160509200Y-107761904D02*
X160461580Y-107714285D01*
X160461580Y-107714285D02*
X160128247Y-107714285D01*
X160128247Y-107714285D02*
X160128247Y-107904761D01*
X160556819Y-107285713D02*
X159556819Y-107285713D01*
X159556819Y-107285713D02*
X160556819Y-106714285D01*
X160556819Y-106714285D02*
X159556819Y-106714285D01*
X160556819Y-106238094D02*
X159556819Y-106238094D01*
X159556819Y-106238094D02*
X159556819Y-105999999D01*
X159556819Y-105999999D02*
X159604438Y-105857142D01*
X159604438Y-105857142D02*
X159699676Y-105761904D01*
X159699676Y-105761904D02*
X159794914Y-105714285D01*
X159794914Y-105714285D02*
X159985390Y-105666666D01*
X159985390Y-105666666D02*
X160128247Y-105666666D01*
X160128247Y-105666666D02*
X160318723Y-105714285D01*
X160318723Y-105714285D02*
X160413961Y-105761904D01*
X160413961Y-105761904D02*
X160509200Y-105857142D01*
X160509200Y-105857142D02*
X160556819Y-105999999D01*
X160556819Y-105999999D02*
X160556819Y-106238094D01*
X153075866Y-108285713D02*
X153075866Y-107523809D01*
X153456819Y-107904761D02*
X152694914Y-107904761D01*
X152456819Y-106571428D02*
X152456819Y-107047618D01*
X152456819Y-107047618D02*
X152933009Y-107095237D01*
X152933009Y-107095237D02*
X152885390Y-107047618D01*
X152885390Y-107047618D02*
X152837771Y-106952380D01*
X152837771Y-106952380D02*
X152837771Y-106714285D01*
X152837771Y-106714285D02*
X152885390Y-106619047D01*
X152885390Y-106619047D02*
X152933009Y-106571428D01*
X152933009Y-106571428D02*
X153028247Y-106523809D01*
X153028247Y-106523809D02*
X153266342Y-106523809D01*
X153266342Y-106523809D02*
X153361580Y-106571428D01*
X153361580Y-106571428D02*
X153409200Y-106619047D01*
X153409200Y-106619047D02*
X153456819Y-106714285D01*
X153456819Y-106714285D02*
X153456819Y-106952380D01*
X153456819Y-106952380D02*
X153409200Y-107047618D01*
X153409200Y-107047618D02*
X153361580Y-107095237D01*
X152456819Y-106238094D02*
X153456819Y-105904761D01*
X153456819Y-105904761D02*
X152456819Y-105571428D01*
X111283333Y-92359580D02*
X111235714Y-92407200D01*
X111235714Y-92407200D02*
X111092857Y-92454819D01*
X111092857Y-92454819D02*
X110997619Y-92454819D01*
X110997619Y-92454819D02*
X110854762Y-92407200D01*
X110854762Y-92407200D02*
X110759524Y-92311961D01*
X110759524Y-92311961D02*
X110711905Y-92216723D01*
X110711905Y-92216723D02*
X110664286Y-92026247D01*
X110664286Y-92026247D02*
X110664286Y-91883390D01*
X110664286Y-91883390D02*
X110711905Y-91692914D01*
X110711905Y-91692914D02*
X110759524Y-91597676D01*
X110759524Y-91597676D02*
X110854762Y-91502438D01*
X110854762Y-91502438D02*
X110997619Y-91454819D01*
X110997619Y-91454819D02*
X111092857Y-91454819D01*
X111092857Y-91454819D02*
X111235714Y-91502438D01*
X111235714Y-91502438D02*
X111283333Y-91550057D01*
X112140476Y-91788152D02*
X112140476Y-92454819D01*
X111902381Y-91407200D02*
X111664286Y-92121485D01*
X111664286Y-92121485D02*
X112283333Y-92121485D01*
X158407319Y-83588333D02*
X159121604Y-83588333D01*
X159121604Y-83588333D02*
X159264461Y-83635952D01*
X159264461Y-83635952D02*
X159359700Y-83731190D01*
X159359700Y-83731190D02*
X159407319Y-83874047D01*
X159407319Y-83874047D02*
X159407319Y-83969285D01*
X158407319Y-83207380D02*
X158407319Y-82588333D01*
X158407319Y-82588333D02*
X158788271Y-82921666D01*
X158788271Y-82921666D02*
X158788271Y-82778809D01*
X158788271Y-82778809D02*
X158835890Y-82683571D01*
X158835890Y-82683571D02*
X158883509Y-82635952D01*
X158883509Y-82635952D02*
X158978747Y-82588333D01*
X158978747Y-82588333D02*
X159216842Y-82588333D01*
X159216842Y-82588333D02*
X159312080Y-82635952D01*
X159312080Y-82635952D02*
X159359700Y-82683571D01*
X159359700Y-82683571D02*
X159407319Y-82778809D01*
X159407319Y-82778809D02*
X159407319Y-83064523D01*
X159407319Y-83064523D02*
X159359700Y-83159761D01*
X159359700Y-83159761D02*
X159312080Y-83207380D01*
X134258333Y-83354819D02*
X133925000Y-82878628D01*
X133686905Y-83354819D02*
X133686905Y-82354819D01*
X133686905Y-82354819D02*
X134067857Y-82354819D01*
X134067857Y-82354819D02*
X134163095Y-82402438D01*
X134163095Y-82402438D02*
X134210714Y-82450057D01*
X134210714Y-82450057D02*
X134258333Y-82545295D01*
X134258333Y-82545295D02*
X134258333Y-82688152D01*
X134258333Y-82688152D02*
X134210714Y-82783390D01*
X134210714Y-82783390D02*
X134163095Y-82831009D01*
X134163095Y-82831009D02*
X134067857Y-82878628D01*
X134067857Y-82878628D02*
X133686905Y-82878628D01*
X135163095Y-82354819D02*
X134686905Y-82354819D01*
X134686905Y-82354819D02*
X134639286Y-82831009D01*
X134639286Y-82831009D02*
X134686905Y-82783390D01*
X134686905Y-82783390D02*
X134782143Y-82735771D01*
X134782143Y-82735771D02*
X135020238Y-82735771D01*
X135020238Y-82735771D02*
X135115476Y-82783390D01*
X135115476Y-82783390D02*
X135163095Y-82831009D01*
X135163095Y-82831009D02*
X135210714Y-82926247D01*
X135210714Y-82926247D02*
X135210714Y-83164342D01*
X135210714Y-83164342D02*
X135163095Y-83259580D01*
X135163095Y-83259580D02*
X135115476Y-83307200D01*
X135115476Y-83307200D02*
X135020238Y-83354819D01*
X135020238Y-83354819D02*
X134782143Y-83354819D01*
X134782143Y-83354819D02*
X134686905Y-83307200D01*
X134686905Y-83307200D02*
X134639286Y-83259580D01*
X168189166Y-91289819D02*
X168189166Y-92004104D01*
X168189166Y-92004104D02*
X168141547Y-92146961D01*
X168141547Y-92146961D02*
X168046309Y-92242200D01*
X168046309Y-92242200D02*
X167903452Y-92289819D01*
X167903452Y-92289819D02*
X167808214Y-92289819D01*
X169093928Y-91623152D02*
X169093928Y-92289819D01*
X168855833Y-91242200D02*
X168617738Y-91956485D01*
X168617738Y-91956485D02*
X169236785Y-91956485D01*
X111533333Y-89704819D02*
X111200000Y-89228628D01*
X110961905Y-89704819D02*
X110961905Y-88704819D01*
X110961905Y-88704819D02*
X111342857Y-88704819D01*
X111342857Y-88704819D02*
X111438095Y-88752438D01*
X111438095Y-88752438D02*
X111485714Y-88800057D01*
X111485714Y-88800057D02*
X111533333Y-88895295D01*
X111533333Y-88895295D02*
X111533333Y-89038152D01*
X111533333Y-89038152D02*
X111485714Y-89133390D01*
X111485714Y-89133390D02*
X111438095Y-89181009D01*
X111438095Y-89181009D02*
X111342857Y-89228628D01*
X111342857Y-89228628D02*
X110961905Y-89228628D01*
X112104762Y-89133390D02*
X112009524Y-89085771D01*
X112009524Y-89085771D02*
X111961905Y-89038152D01*
X111961905Y-89038152D02*
X111914286Y-88942914D01*
X111914286Y-88942914D02*
X111914286Y-88895295D01*
X111914286Y-88895295D02*
X111961905Y-88800057D01*
X111961905Y-88800057D02*
X112009524Y-88752438D01*
X112009524Y-88752438D02*
X112104762Y-88704819D01*
X112104762Y-88704819D02*
X112295238Y-88704819D01*
X112295238Y-88704819D02*
X112390476Y-88752438D01*
X112390476Y-88752438D02*
X112438095Y-88800057D01*
X112438095Y-88800057D02*
X112485714Y-88895295D01*
X112485714Y-88895295D02*
X112485714Y-88942914D01*
X112485714Y-88942914D02*
X112438095Y-89038152D01*
X112438095Y-89038152D02*
X112390476Y-89085771D01*
X112390476Y-89085771D02*
X112295238Y-89133390D01*
X112295238Y-89133390D02*
X112104762Y-89133390D01*
X112104762Y-89133390D02*
X112009524Y-89181009D01*
X112009524Y-89181009D02*
X111961905Y-89228628D01*
X111961905Y-89228628D02*
X111914286Y-89323866D01*
X111914286Y-89323866D02*
X111914286Y-89514342D01*
X111914286Y-89514342D02*
X111961905Y-89609580D01*
X111961905Y-89609580D02*
X112009524Y-89657200D01*
X112009524Y-89657200D02*
X112104762Y-89704819D01*
X112104762Y-89704819D02*
X112295238Y-89704819D01*
X112295238Y-89704819D02*
X112390476Y-89657200D01*
X112390476Y-89657200D02*
X112438095Y-89609580D01*
X112438095Y-89609580D02*
X112485714Y-89514342D01*
X112485714Y-89514342D02*
X112485714Y-89323866D01*
X112485714Y-89323866D02*
X112438095Y-89228628D01*
X112438095Y-89228628D02*
X112390476Y-89181009D01*
X112390476Y-89181009D02*
X112295238Y-89133390D01*
X128833333Y-73304819D02*
X128500000Y-72828628D01*
X128261905Y-73304819D02*
X128261905Y-72304819D01*
X128261905Y-72304819D02*
X128642857Y-72304819D01*
X128642857Y-72304819D02*
X128738095Y-72352438D01*
X128738095Y-72352438D02*
X128785714Y-72400057D01*
X128785714Y-72400057D02*
X128833333Y-72495295D01*
X128833333Y-72495295D02*
X128833333Y-72638152D01*
X128833333Y-72638152D02*
X128785714Y-72733390D01*
X128785714Y-72733390D02*
X128738095Y-72781009D01*
X128738095Y-72781009D02*
X128642857Y-72828628D01*
X128642857Y-72828628D02*
X128261905Y-72828628D01*
X129214286Y-72400057D02*
X129261905Y-72352438D01*
X129261905Y-72352438D02*
X129357143Y-72304819D01*
X129357143Y-72304819D02*
X129595238Y-72304819D01*
X129595238Y-72304819D02*
X129690476Y-72352438D01*
X129690476Y-72352438D02*
X129738095Y-72400057D01*
X129738095Y-72400057D02*
X129785714Y-72495295D01*
X129785714Y-72495295D02*
X129785714Y-72590533D01*
X129785714Y-72590533D02*
X129738095Y-72733390D01*
X129738095Y-72733390D02*
X129166667Y-73304819D01*
X129166667Y-73304819D02*
X129785714Y-73304819D01*
X152335984Y-74429580D02*
X152288365Y-74477200D01*
X152288365Y-74477200D02*
X152145508Y-74524819D01*
X152145508Y-74524819D02*
X152050270Y-74524819D01*
X152050270Y-74524819D02*
X151907413Y-74477200D01*
X151907413Y-74477200D02*
X151812175Y-74381961D01*
X151812175Y-74381961D02*
X151764556Y-74286723D01*
X151764556Y-74286723D02*
X151716937Y-74096247D01*
X151716937Y-74096247D02*
X151716937Y-73953390D01*
X151716937Y-73953390D02*
X151764556Y-73762914D01*
X151764556Y-73762914D02*
X151812175Y-73667676D01*
X151812175Y-73667676D02*
X151907413Y-73572438D01*
X151907413Y-73572438D02*
X152050270Y-73524819D01*
X152050270Y-73524819D02*
X152145508Y-73524819D01*
X152145508Y-73524819D02*
X152288365Y-73572438D01*
X152288365Y-73572438D02*
X152335984Y-73620057D01*
X152669318Y-73524819D02*
X153288365Y-73524819D01*
X153288365Y-73524819D02*
X152955032Y-73905771D01*
X152955032Y-73905771D02*
X153097889Y-73905771D01*
X153097889Y-73905771D02*
X153193127Y-73953390D01*
X153193127Y-73953390D02*
X153240746Y-74001009D01*
X153240746Y-74001009D02*
X153288365Y-74096247D01*
X153288365Y-74096247D02*
X153288365Y-74334342D01*
X153288365Y-74334342D02*
X153240746Y-74429580D01*
X153240746Y-74429580D02*
X153193127Y-74477200D01*
X153193127Y-74477200D02*
X153097889Y-74524819D01*
X153097889Y-74524819D02*
X152812175Y-74524819D01*
X152812175Y-74524819D02*
X152716937Y-74477200D01*
X152716937Y-74477200D02*
X152669318Y-74429580D01*
X152554819Y-95738094D02*
X151554819Y-95738094D01*
X151554819Y-95738094D02*
X151554819Y-95499999D01*
X151554819Y-95499999D02*
X151602438Y-95357142D01*
X151602438Y-95357142D02*
X151697676Y-95261904D01*
X151697676Y-95261904D02*
X151792914Y-95214285D01*
X151792914Y-95214285D02*
X151983390Y-95166666D01*
X151983390Y-95166666D02*
X152126247Y-95166666D01*
X152126247Y-95166666D02*
X152316723Y-95214285D01*
X152316723Y-95214285D02*
X152411961Y-95261904D01*
X152411961Y-95261904D02*
X152507200Y-95357142D01*
X152507200Y-95357142D02*
X152554819Y-95499999D01*
X152554819Y-95499999D02*
X152554819Y-95738094D01*
X151650057Y-94785713D02*
X151602438Y-94738094D01*
X151602438Y-94738094D02*
X151554819Y-94642856D01*
X151554819Y-94642856D02*
X151554819Y-94404761D01*
X151554819Y-94404761D02*
X151602438Y-94309523D01*
X151602438Y-94309523D02*
X151650057Y-94261904D01*
X151650057Y-94261904D02*
X151745295Y-94214285D01*
X151745295Y-94214285D02*
X151840533Y-94214285D01*
X151840533Y-94214285D02*
X151983390Y-94261904D01*
X151983390Y-94261904D02*
X152554819Y-94833332D01*
X152554819Y-94833332D02*
X152554819Y-94214285D01*
X118244166Y-76781009D02*
X117910833Y-76781009D01*
X117910833Y-77304819D02*
X117910833Y-76304819D01*
X117910833Y-76304819D02*
X118387023Y-76304819D01*
X119291785Y-77304819D02*
X118720357Y-77304819D01*
X119006071Y-77304819D02*
X119006071Y-76304819D01*
X119006071Y-76304819D02*
X118910833Y-76447676D01*
X118910833Y-76447676D02*
X118815595Y-76542914D01*
X118815595Y-76542914D02*
X118720357Y-76590533D01*
X152780682Y-79359580D02*
X152733063Y-79407200D01*
X152733063Y-79407200D02*
X152590206Y-79454819D01*
X152590206Y-79454819D02*
X152494968Y-79454819D01*
X152494968Y-79454819D02*
X152352111Y-79407200D01*
X152352111Y-79407200D02*
X152256873Y-79311961D01*
X152256873Y-79311961D02*
X152209254Y-79216723D01*
X152209254Y-79216723D02*
X152161635Y-79026247D01*
X152161635Y-79026247D02*
X152161635Y-78883390D01*
X152161635Y-78883390D02*
X152209254Y-78692914D01*
X152209254Y-78692914D02*
X152256873Y-78597676D01*
X152256873Y-78597676D02*
X152352111Y-78502438D01*
X152352111Y-78502438D02*
X152494968Y-78454819D01*
X152494968Y-78454819D02*
X152590206Y-78454819D01*
X152590206Y-78454819D02*
X152733063Y-78502438D01*
X152733063Y-78502438D02*
X152780682Y-78550057D01*
X153161635Y-78550057D02*
X153209254Y-78502438D01*
X153209254Y-78502438D02*
X153304492Y-78454819D01*
X153304492Y-78454819D02*
X153542587Y-78454819D01*
X153542587Y-78454819D02*
X153637825Y-78502438D01*
X153637825Y-78502438D02*
X153685444Y-78550057D01*
X153685444Y-78550057D02*
X153733063Y-78645295D01*
X153733063Y-78645295D02*
X153733063Y-78740533D01*
X153733063Y-78740533D02*
X153685444Y-78883390D01*
X153685444Y-78883390D02*
X153114016Y-79454819D01*
X153114016Y-79454819D02*
X153733063Y-79454819D01*
X140511905Y-65704819D02*
X140511905Y-64704819D01*
X140511905Y-64704819D02*
X140750000Y-64704819D01*
X140750000Y-64704819D02*
X140892857Y-64752438D01*
X140892857Y-64752438D02*
X140988095Y-64847676D01*
X140988095Y-64847676D02*
X141035714Y-64942914D01*
X141035714Y-64942914D02*
X141083333Y-65133390D01*
X141083333Y-65133390D02*
X141083333Y-65276247D01*
X141083333Y-65276247D02*
X141035714Y-65466723D01*
X141035714Y-65466723D02*
X140988095Y-65561961D01*
X140988095Y-65561961D02*
X140892857Y-65657200D01*
X140892857Y-65657200D02*
X140750000Y-65704819D01*
X140750000Y-65704819D02*
X140511905Y-65704819D01*
X142035714Y-65704819D02*
X141464286Y-65704819D01*
X141750000Y-65704819D02*
X141750000Y-64704819D01*
X141750000Y-64704819D02*
X141654762Y-64847676D01*
X141654762Y-64847676D02*
X141559524Y-64942914D01*
X141559524Y-64942914D02*
X141464286Y-64990533D01*
X126609580Y-62069317D02*
X126657200Y-62116936D01*
X126657200Y-62116936D02*
X126704819Y-62259793D01*
X126704819Y-62259793D02*
X126704819Y-62355031D01*
X126704819Y-62355031D02*
X126657200Y-62497888D01*
X126657200Y-62497888D02*
X126561961Y-62593126D01*
X126561961Y-62593126D02*
X126466723Y-62640745D01*
X126466723Y-62640745D02*
X126276247Y-62688364D01*
X126276247Y-62688364D02*
X126133390Y-62688364D01*
X126133390Y-62688364D02*
X125942914Y-62640745D01*
X125942914Y-62640745D02*
X125847676Y-62593126D01*
X125847676Y-62593126D02*
X125752438Y-62497888D01*
X125752438Y-62497888D02*
X125704819Y-62355031D01*
X125704819Y-62355031D02*
X125704819Y-62259793D01*
X125704819Y-62259793D02*
X125752438Y-62116936D01*
X125752438Y-62116936D02*
X125800057Y-62069317D01*
X126704819Y-61116936D02*
X126704819Y-61688364D01*
X126704819Y-61402650D02*
X125704819Y-61402650D01*
X125704819Y-61402650D02*
X125847676Y-61497888D01*
X125847676Y-61497888D02*
X125942914Y-61593126D01*
X125942914Y-61593126D02*
X125990533Y-61688364D01*
X134170833Y-88354819D02*
X133837500Y-87878628D01*
X133599405Y-88354819D02*
X133599405Y-87354819D01*
X133599405Y-87354819D02*
X133980357Y-87354819D01*
X133980357Y-87354819D02*
X134075595Y-87402438D01*
X134075595Y-87402438D02*
X134123214Y-87450057D01*
X134123214Y-87450057D02*
X134170833Y-87545295D01*
X134170833Y-87545295D02*
X134170833Y-87688152D01*
X134170833Y-87688152D02*
X134123214Y-87783390D01*
X134123214Y-87783390D02*
X134075595Y-87831009D01*
X134075595Y-87831009D02*
X133980357Y-87878628D01*
X133980357Y-87878628D02*
X133599405Y-87878628D01*
X135027976Y-87688152D02*
X135027976Y-88354819D01*
X134789881Y-87307200D02*
X134551786Y-88021485D01*
X134551786Y-88021485D02*
X135170833Y-88021485D01*
X156483009Y-108357142D02*
X156530628Y-108214285D01*
X156530628Y-108214285D02*
X156578247Y-108166666D01*
X156578247Y-108166666D02*
X156673485Y-108119047D01*
X156673485Y-108119047D02*
X156816342Y-108119047D01*
X156816342Y-108119047D02*
X156911580Y-108166666D01*
X156911580Y-108166666D02*
X156959200Y-108214285D01*
X156959200Y-108214285D02*
X157006819Y-108309523D01*
X157006819Y-108309523D02*
X157006819Y-108690475D01*
X157006819Y-108690475D02*
X156006819Y-108690475D01*
X156006819Y-108690475D02*
X156006819Y-108357142D01*
X156006819Y-108357142D02*
X156054438Y-108261904D01*
X156054438Y-108261904D02*
X156102057Y-108214285D01*
X156102057Y-108214285D02*
X156197295Y-108166666D01*
X156197295Y-108166666D02*
X156292533Y-108166666D01*
X156292533Y-108166666D02*
X156387771Y-108214285D01*
X156387771Y-108214285D02*
X156435390Y-108261904D01*
X156435390Y-108261904D02*
X156483009Y-108357142D01*
X156483009Y-108357142D02*
X156483009Y-108690475D01*
X156721104Y-107738094D02*
X156721104Y-107261904D01*
X157006819Y-107833332D02*
X156006819Y-107499999D01*
X156006819Y-107499999D02*
X157006819Y-107166666D01*
X156006819Y-106976189D02*
X156006819Y-106404761D01*
X157006819Y-106690475D02*
X156006819Y-106690475D01*
X156625866Y-106071427D02*
X156625866Y-105309523D01*
X157006819Y-105690475D02*
X156244914Y-105690475D01*
X121588095Y-87479819D02*
X121588095Y-88289342D01*
X121588095Y-88289342D02*
X121635714Y-88384580D01*
X121635714Y-88384580D02*
X121683333Y-88432200D01*
X121683333Y-88432200D02*
X121778571Y-88479819D01*
X121778571Y-88479819D02*
X121969047Y-88479819D01*
X121969047Y-88479819D02*
X122064285Y-88432200D01*
X122064285Y-88432200D02*
X122111904Y-88384580D01*
X122111904Y-88384580D02*
X122159523Y-88289342D01*
X122159523Y-88289342D02*
X122159523Y-87479819D01*
X122588095Y-87575057D02*
X122635714Y-87527438D01*
X122635714Y-87527438D02*
X122730952Y-87479819D01*
X122730952Y-87479819D02*
X122969047Y-87479819D01*
X122969047Y-87479819D02*
X123064285Y-87527438D01*
X123064285Y-87527438D02*
X123111904Y-87575057D01*
X123111904Y-87575057D02*
X123159523Y-87670295D01*
X123159523Y-87670295D02*
X123159523Y-87765533D01*
X123159523Y-87765533D02*
X123111904Y-87908390D01*
X123111904Y-87908390D02*
X122540476Y-88479819D01*
X122540476Y-88479819D02*
X123159523Y-88479819D01*
X141442319Y-92916666D02*
X140966128Y-93249999D01*
X141442319Y-93488094D02*
X140442319Y-93488094D01*
X140442319Y-93488094D02*
X140442319Y-93107142D01*
X140442319Y-93107142D02*
X140489938Y-93011904D01*
X140489938Y-93011904D02*
X140537557Y-92964285D01*
X140537557Y-92964285D02*
X140632795Y-92916666D01*
X140632795Y-92916666D02*
X140775652Y-92916666D01*
X140775652Y-92916666D02*
X140870890Y-92964285D01*
X140870890Y-92964285D02*
X140918509Y-93011904D01*
X140918509Y-93011904D02*
X140966128Y-93107142D01*
X140966128Y-93107142D02*
X140966128Y-93488094D01*
X140442319Y-92583332D02*
X140442319Y-91916666D01*
X140442319Y-91916666D02*
X141442319Y-92345237D01*
X160413095Y-60529819D02*
X160413095Y-61339342D01*
X160413095Y-61339342D02*
X160460714Y-61434580D01*
X160460714Y-61434580D02*
X160508333Y-61482200D01*
X160508333Y-61482200D02*
X160603571Y-61529819D01*
X160603571Y-61529819D02*
X160794047Y-61529819D01*
X160794047Y-61529819D02*
X160889285Y-61482200D01*
X160889285Y-61482200D02*
X160936904Y-61434580D01*
X160936904Y-61434580D02*
X160984523Y-61339342D01*
X160984523Y-61339342D02*
X160984523Y-60529819D01*
X161984523Y-61529819D02*
X161413095Y-61529819D01*
X161698809Y-61529819D02*
X161698809Y-60529819D01*
X161698809Y-60529819D02*
X161603571Y-60672676D01*
X161603571Y-60672676D02*
X161508333Y-60767914D01*
X161508333Y-60767914D02*
X161413095Y-60815533D01*
X148906819Y-108095237D02*
X149906819Y-107761904D01*
X149906819Y-107761904D02*
X148906819Y-107428571D01*
X149906819Y-107095237D02*
X148906819Y-107095237D01*
X149906819Y-106619047D02*
X148906819Y-106619047D01*
X148906819Y-106619047D02*
X149906819Y-106047619D01*
X149906819Y-106047619D02*
X148906819Y-106047619D01*
X120283333Y-96929580D02*
X120235714Y-96977200D01*
X120235714Y-96977200D02*
X120092857Y-97024819D01*
X120092857Y-97024819D02*
X119997619Y-97024819D01*
X119997619Y-97024819D02*
X119854762Y-96977200D01*
X119854762Y-96977200D02*
X119759524Y-96881961D01*
X119759524Y-96881961D02*
X119711905Y-96786723D01*
X119711905Y-96786723D02*
X119664286Y-96596247D01*
X119664286Y-96596247D02*
X119664286Y-96453390D01*
X119664286Y-96453390D02*
X119711905Y-96262914D01*
X119711905Y-96262914D02*
X119759524Y-96167676D01*
X119759524Y-96167676D02*
X119854762Y-96072438D01*
X119854762Y-96072438D02*
X119997619Y-96024819D01*
X119997619Y-96024819D02*
X120092857Y-96024819D01*
X120092857Y-96024819D02*
X120235714Y-96072438D01*
X120235714Y-96072438D02*
X120283333Y-96120057D01*
X121188095Y-96024819D02*
X120711905Y-96024819D01*
X120711905Y-96024819D02*
X120664286Y-96501009D01*
X120664286Y-96501009D02*
X120711905Y-96453390D01*
X120711905Y-96453390D02*
X120807143Y-96405771D01*
X120807143Y-96405771D02*
X121045238Y-96405771D01*
X121045238Y-96405771D02*
X121140476Y-96453390D01*
X121140476Y-96453390D02*
X121188095Y-96501009D01*
X121188095Y-96501009D02*
X121235714Y-96596247D01*
X121235714Y-96596247D02*
X121235714Y-96834342D01*
X121235714Y-96834342D02*
X121188095Y-96929580D01*
X121188095Y-96929580D02*
X121140476Y-96977200D01*
X121140476Y-96977200D02*
X121045238Y-97024819D01*
X121045238Y-97024819D02*
X120807143Y-97024819D01*
X120807143Y-97024819D02*
X120711905Y-96977200D01*
X120711905Y-96977200D02*
X120664286Y-96929580D01*
X139842261Y-81450057D02*
X139747023Y-81402438D01*
X139747023Y-81402438D02*
X139651785Y-81307200D01*
X139651785Y-81307200D02*
X139508928Y-81164342D01*
X139508928Y-81164342D02*
X139413690Y-81116723D01*
X139413690Y-81116723D02*
X139318452Y-81116723D01*
X139366071Y-81354819D02*
X139270833Y-81307200D01*
X139270833Y-81307200D02*
X139175595Y-81211961D01*
X139175595Y-81211961D02*
X139127976Y-81021485D01*
X139127976Y-81021485D02*
X139127976Y-80688152D01*
X139127976Y-80688152D02*
X139175595Y-80497676D01*
X139175595Y-80497676D02*
X139270833Y-80402438D01*
X139270833Y-80402438D02*
X139366071Y-80354819D01*
X139366071Y-80354819D02*
X139556547Y-80354819D01*
X139556547Y-80354819D02*
X139651785Y-80402438D01*
X139651785Y-80402438D02*
X139747023Y-80497676D01*
X139747023Y-80497676D02*
X139794642Y-80688152D01*
X139794642Y-80688152D02*
X139794642Y-81021485D01*
X139794642Y-81021485D02*
X139747023Y-81211961D01*
X139747023Y-81211961D02*
X139651785Y-81307200D01*
X139651785Y-81307200D02*
X139556547Y-81354819D01*
X139556547Y-81354819D02*
X139366071Y-81354819D01*
X140175595Y-80450057D02*
X140223214Y-80402438D01*
X140223214Y-80402438D02*
X140318452Y-80354819D01*
X140318452Y-80354819D02*
X140556547Y-80354819D01*
X140556547Y-80354819D02*
X140651785Y-80402438D01*
X140651785Y-80402438D02*
X140699404Y-80450057D01*
X140699404Y-80450057D02*
X140747023Y-80545295D01*
X140747023Y-80545295D02*
X140747023Y-80640533D01*
X140747023Y-80640533D02*
X140699404Y-80783390D01*
X140699404Y-80783390D02*
X140127976Y-81354819D01*
X140127976Y-81354819D02*
X140747023Y-81354819D01*
X123402319Y-70078333D02*
X124116604Y-70078333D01*
X124116604Y-70078333D02*
X124259461Y-70125952D01*
X124259461Y-70125952D02*
X124354700Y-70221190D01*
X124354700Y-70221190D02*
X124402319Y-70364047D01*
X124402319Y-70364047D02*
X124402319Y-70459285D01*
X124402319Y-69078333D02*
X124402319Y-69649761D01*
X124402319Y-69364047D02*
X123402319Y-69364047D01*
X123402319Y-69364047D02*
X123545176Y-69459285D01*
X123545176Y-69459285D02*
X123640414Y-69554523D01*
X123640414Y-69554523D02*
X123688033Y-69649761D01*
X143433333Y-79554819D02*
X142957143Y-79554819D01*
X142957143Y-79554819D02*
X142957143Y-78554819D01*
X144290476Y-79554819D02*
X143719048Y-79554819D01*
X144004762Y-79554819D02*
X144004762Y-78554819D01*
X144004762Y-78554819D02*
X143909524Y-78697676D01*
X143909524Y-78697676D02*
X143814286Y-78792914D01*
X143814286Y-78792914D02*
X143719048Y-78840533D01*
X127200057Y-69907738D02*
X127152438Y-70002976D01*
X127152438Y-70002976D02*
X127057200Y-70098214D01*
X127057200Y-70098214D02*
X126914342Y-70241071D01*
X126914342Y-70241071D02*
X126866723Y-70336309D01*
X126866723Y-70336309D02*
X126866723Y-70431547D01*
X127104819Y-70383928D02*
X127057200Y-70479166D01*
X127057200Y-70479166D02*
X126961961Y-70574404D01*
X126961961Y-70574404D02*
X126771485Y-70622023D01*
X126771485Y-70622023D02*
X126438152Y-70622023D01*
X126438152Y-70622023D02*
X126247676Y-70574404D01*
X126247676Y-70574404D02*
X126152438Y-70479166D01*
X126152438Y-70479166D02*
X126104819Y-70383928D01*
X126104819Y-70383928D02*
X126104819Y-70193452D01*
X126104819Y-70193452D02*
X126152438Y-70098214D01*
X126152438Y-70098214D02*
X126247676Y-70002976D01*
X126247676Y-70002976D02*
X126438152Y-69955357D01*
X126438152Y-69955357D02*
X126771485Y-69955357D01*
X126771485Y-69955357D02*
X126961961Y-70002976D01*
X126961961Y-70002976D02*
X127057200Y-70098214D01*
X127057200Y-70098214D02*
X127104819Y-70193452D01*
X127104819Y-70193452D02*
X127104819Y-70383928D01*
X127104819Y-69002976D02*
X127104819Y-69574404D01*
X127104819Y-69288690D02*
X126104819Y-69288690D01*
X126104819Y-69288690D02*
X126247676Y-69383928D01*
X126247676Y-69383928D02*
X126342914Y-69479166D01*
X126342914Y-69479166D02*
X126390533Y-69574404D01*
X132892319Y-92916666D02*
X132416128Y-93249999D01*
X132892319Y-93488094D02*
X131892319Y-93488094D01*
X131892319Y-93488094D02*
X131892319Y-93107142D01*
X131892319Y-93107142D02*
X131939938Y-93011904D01*
X131939938Y-93011904D02*
X131987557Y-92964285D01*
X131987557Y-92964285D02*
X132082795Y-92916666D01*
X132082795Y-92916666D02*
X132225652Y-92916666D01*
X132225652Y-92916666D02*
X132320890Y-92964285D01*
X132320890Y-92964285D02*
X132368509Y-93011904D01*
X132368509Y-93011904D02*
X132416128Y-93107142D01*
X132416128Y-93107142D02*
X132416128Y-93488094D01*
X131892319Y-92059523D02*
X131892319Y-92249999D01*
X131892319Y-92249999D02*
X131939938Y-92345237D01*
X131939938Y-92345237D02*
X131987557Y-92392856D01*
X131987557Y-92392856D02*
X132130414Y-92488094D01*
X132130414Y-92488094D02*
X132320890Y-92535713D01*
X132320890Y-92535713D02*
X132701842Y-92535713D01*
X132701842Y-92535713D02*
X132797080Y-92488094D01*
X132797080Y-92488094D02*
X132844700Y-92440475D01*
X132844700Y-92440475D02*
X132892319Y-92345237D01*
X132892319Y-92345237D02*
X132892319Y-92154761D01*
X132892319Y-92154761D02*
X132844700Y-92059523D01*
X132844700Y-92059523D02*
X132797080Y-92011904D01*
X132797080Y-92011904D02*
X132701842Y-91964285D01*
X132701842Y-91964285D02*
X132463747Y-91964285D01*
X132463747Y-91964285D02*
X132368509Y-92011904D01*
X132368509Y-92011904D02*
X132320890Y-92059523D01*
X132320890Y-92059523D02*
X132273271Y-92154761D01*
X132273271Y-92154761D02*
X132273271Y-92345237D01*
X132273271Y-92345237D02*
X132320890Y-92440475D01*
X132320890Y-92440475D02*
X132368509Y-92488094D01*
X132368509Y-92488094D02*
X132463747Y-92535713D01*
X116666666Y-99204819D02*
X116666666Y-99919104D01*
X116666666Y-99919104D02*
X116619047Y-100061961D01*
X116619047Y-100061961D02*
X116523809Y-100157200D01*
X116523809Y-100157200D02*
X116380952Y-100204819D01*
X116380952Y-100204819D02*
X116285714Y-100204819D01*
X117095238Y-99300057D02*
X117142857Y-99252438D01*
X117142857Y-99252438D02*
X117238095Y-99204819D01*
X117238095Y-99204819D02*
X117476190Y-99204819D01*
X117476190Y-99204819D02*
X117571428Y-99252438D01*
X117571428Y-99252438D02*
X117619047Y-99300057D01*
X117619047Y-99300057D02*
X117666666Y-99395295D01*
X117666666Y-99395295D02*
X117666666Y-99490533D01*
X117666666Y-99490533D02*
X117619047Y-99633390D01*
X117619047Y-99633390D02*
X117047619Y-100204819D01*
X117047619Y-100204819D02*
X117666666Y-100204819D01*
X123554819Y-73666666D02*
X123078628Y-73999999D01*
X123554819Y-74238094D02*
X122554819Y-74238094D01*
X122554819Y-74238094D02*
X122554819Y-73857142D01*
X122554819Y-73857142D02*
X122602438Y-73761904D01*
X122602438Y-73761904D02*
X122650057Y-73714285D01*
X122650057Y-73714285D02*
X122745295Y-73666666D01*
X122745295Y-73666666D02*
X122888152Y-73666666D01*
X122888152Y-73666666D02*
X122983390Y-73714285D01*
X122983390Y-73714285D02*
X123031009Y-73761904D01*
X123031009Y-73761904D02*
X123078628Y-73857142D01*
X123078628Y-73857142D02*
X123078628Y-74238094D01*
X123554819Y-72714285D02*
X123554819Y-73285713D01*
X123554819Y-72999999D02*
X122554819Y-72999999D01*
X122554819Y-72999999D02*
X122697676Y-73095237D01*
X122697676Y-73095237D02*
X122792914Y-73190475D01*
X122792914Y-73190475D02*
X122840533Y-73285713D01*
%TO.C,GND*%
D15*
X162700000Y-107000000D02*
G75*
G02*
X160800000Y-107000000I-950000J0D01*
G01*
X160800000Y-107000000D02*
G75*
G02*
X162700000Y-107000000I950000J0D01*
G01*
%TO.C,+5V*%
X155600000Y-107000000D02*
G75*
G02*
X153700000Y-107000000I-950000J0D01*
G01*
X153700000Y-107000000D02*
G75*
G02*
X155600000Y-107000000I950000J0D01*
G01*
%TO.C,C4*%
X114711252Y-91265000D02*
X114188748Y-91265000D01*
X114711252Y-92735000D02*
X114188748Y-92735000D01*
%TO.C,J3*%
X159952500Y-78055000D02*
X169992500Y-78055000D01*
X159952500Y-88455000D02*
X159952500Y-78055000D01*
X162972500Y-88455000D02*
X162972500Y-78055000D01*
X167872500Y-88455000D02*
X167872500Y-78055000D01*
X169372500Y-88455000D02*
X169372500Y-78055000D01*
X169992500Y-78055000D02*
X169992500Y-85495000D01*
X169992500Y-86095000D02*
X169992500Y-88455000D01*
X169992500Y-88455000D02*
X159952500Y-88455000D01*
X170602500Y-86235000D02*
X169992500Y-85795000D01*
X170602500Y-85355000D01*
X170602500Y-86235000D01*
G36*
X170602500Y-86235000D02*
G01*
X169992500Y-85795000D01*
X170602500Y-85355000D01*
X170602500Y-86235000D01*
G37*
%TO.C,R5*%
X134652064Y-80515000D02*
X134197936Y-80515000D01*
X134652064Y-81985000D02*
X134197936Y-81985000D01*
%TO.C,J4*%
X167142500Y-92835000D02*
X168522500Y-92835000D01*
X167142500Y-94215000D02*
X167142500Y-92835000D01*
X167142500Y-95485000D02*
X167142500Y-100675000D01*
X167142500Y-95485000D02*
X169902500Y-95485000D01*
X167142500Y-100675000D02*
X169902500Y-100675000D01*
X169902500Y-95485000D02*
X169902500Y-100675000D01*
%TO.C,R8*%
X114764564Y-88515000D02*
X114310436Y-88515000D01*
X114764564Y-89985000D02*
X114310436Y-89985000D01*
%TO.C,R2*%
X128772936Y-73765000D02*
X129227064Y-73765000D01*
X128772936Y-75235000D02*
X129227064Y-75235000D01*
%TO.C,C3*%
X152241399Y-75015000D02*
X152763903Y-75015000D01*
X152241399Y-76485000D02*
X152763903Y-76485000D01*
%TO.C,D2*%
X147950000Y-91490000D02*
X147950000Y-97000000D01*
X151250000Y-91490000D02*
X147950000Y-91490000D01*
X151250000Y-91490000D02*
X151250000Y-97000000D01*
%TO.C,F1*%
X117191248Y-77790000D02*
X119963752Y-77790000D01*
X117191248Y-81210000D02*
X119963752Y-81210000D01*
%TO.C,C2*%
X148537651Y-81935000D02*
X149337651Y-81935000D01*
X148937651Y-81535000D02*
X148937651Y-82335000D01*
X152947349Y-80170000D02*
X152947349Y-88330000D01*
X152987349Y-80170000D02*
X152987349Y-88330000D01*
X153027349Y-80171000D02*
X153027349Y-88329000D01*
X153067349Y-80172000D02*
X153067349Y-88328000D01*
X153107349Y-80173000D02*
X153107349Y-88327000D01*
X153147349Y-80175000D02*
X153147349Y-88325000D01*
X153187349Y-80177000D02*
X153187349Y-88323000D01*
X153227349Y-80180000D02*
X153227349Y-88320000D01*
X153267349Y-80182000D02*
X153267349Y-88318000D01*
X153307349Y-80186000D02*
X153307349Y-88314000D01*
X153347349Y-80189000D02*
X153347349Y-88311000D01*
X153387349Y-80194000D02*
X153387349Y-88306000D01*
X153427349Y-80198000D02*
X153427349Y-88302000D01*
X153467349Y-80203000D02*
X153467349Y-88297000D01*
X153507349Y-80208000D02*
X153507349Y-88292000D01*
X153547349Y-80214000D02*
X153547349Y-88286000D01*
X153587349Y-80220000D02*
X153587349Y-88280000D01*
X153627349Y-80227000D02*
X153627349Y-88273000D01*
X153667349Y-80233000D02*
X153667349Y-83210000D01*
X153667349Y-85290000D02*
X153667349Y-88267000D01*
X153707349Y-80241000D02*
X153707349Y-83210000D01*
X153707349Y-85290000D02*
X153707349Y-88259000D01*
X153747349Y-80248000D02*
X153747349Y-83210000D01*
X153747349Y-85290000D02*
X153747349Y-88252000D01*
X153787349Y-80257000D02*
X153787349Y-83210000D01*
X153787349Y-85290000D02*
X153787349Y-88243000D01*
X153827349Y-80265000D02*
X153827349Y-83210000D01*
X153827349Y-85290000D02*
X153827349Y-88235000D01*
X153867349Y-80274000D02*
X153867349Y-83210000D01*
X153867349Y-85290000D02*
X153867349Y-88226000D01*
X153907349Y-80283000D02*
X153907349Y-83210000D01*
X153907349Y-85290000D02*
X153907349Y-88217000D01*
X153947349Y-80293000D02*
X153947349Y-83210000D01*
X153947349Y-85290000D02*
X153947349Y-88207000D01*
X153987349Y-80303000D02*
X153987349Y-83210000D01*
X153987349Y-85290000D02*
X153987349Y-88197000D01*
X154027349Y-80314000D02*
X154027349Y-83210000D01*
X154027349Y-85290000D02*
X154027349Y-88186000D01*
X154067349Y-80325000D02*
X154067349Y-83210000D01*
X154067349Y-85290000D02*
X154067349Y-88175000D01*
X154107349Y-80337000D02*
X154107349Y-83210000D01*
X154107349Y-85290000D02*
X154107349Y-88163000D01*
X154147349Y-80349000D02*
X154147349Y-83210000D01*
X154147349Y-85290000D02*
X154147349Y-88151000D01*
X154187349Y-80361000D02*
X154187349Y-83210000D01*
X154187349Y-85290000D02*
X154187349Y-88139000D01*
X154227349Y-80374000D02*
X154227349Y-83210000D01*
X154227349Y-85290000D02*
X154227349Y-88126000D01*
X154267349Y-80387000D02*
X154267349Y-83210000D01*
X154267349Y-85290000D02*
X154267349Y-88113000D01*
X154307349Y-80401000D02*
X154307349Y-83210000D01*
X154307349Y-85290000D02*
X154307349Y-88099000D01*
X154347349Y-80415000D02*
X154347349Y-83210000D01*
X154347349Y-85290000D02*
X154347349Y-88085000D01*
X154387349Y-80430000D02*
X154387349Y-83210000D01*
X154387349Y-85290000D02*
X154387349Y-88070000D01*
X154427349Y-80445000D02*
X154427349Y-83210000D01*
X154427349Y-85290000D02*
X154427349Y-88055000D01*
X154467349Y-80461000D02*
X154467349Y-83210000D01*
X154467349Y-85290000D02*
X154467349Y-88039000D01*
X154507349Y-80477000D02*
X154507349Y-83210000D01*
X154507349Y-85290000D02*
X154507349Y-88023000D01*
X154547349Y-80493000D02*
X154547349Y-83210000D01*
X154547349Y-85290000D02*
X154547349Y-88007000D01*
X154587349Y-80510000D02*
X154587349Y-83210000D01*
X154587349Y-85290000D02*
X154587349Y-87990000D01*
X154627349Y-80528000D02*
X154627349Y-83210000D01*
X154627349Y-85290000D02*
X154627349Y-87972000D01*
X154667349Y-80546000D02*
X154667349Y-83210000D01*
X154667349Y-85290000D02*
X154667349Y-87954000D01*
X154707349Y-80565000D02*
X154707349Y-83210000D01*
X154707349Y-85290000D02*
X154707349Y-87935000D01*
X154747349Y-80584000D02*
X154747349Y-83210000D01*
X154747349Y-85290000D02*
X154747349Y-87916000D01*
X154787349Y-80604000D02*
X154787349Y-83210000D01*
X154787349Y-85290000D02*
X154787349Y-87896000D01*
X154827349Y-80624000D02*
X154827349Y-83210000D01*
X154827349Y-85290000D02*
X154827349Y-87876000D01*
X154867349Y-80645000D02*
X154867349Y-83210000D01*
X154867349Y-85290000D02*
X154867349Y-87855000D01*
X154907349Y-80666000D02*
X154907349Y-83210000D01*
X154907349Y-85290000D02*
X154907349Y-87834000D01*
X154947349Y-80688000D02*
X154947349Y-83210000D01*
X154947349Y-85290000D02*
X154947349Y-87812000D01*
X154987349Y-80711000D02*
X154987349Y-83210000D01*
X154987349Y-85290000D02*
X154987349Y-87789000D01*
X155027349Y-80734000D02*
X155027349Y-83210000D01*
X155027349Y-85290000D02*
X155027349Y-87766000D01*
X155067349Y-80757000D02*
X155067349Y-83210000D01*
X155067349Y-85290000D02*
X155067349Y-87743000D01*
X155107349Y-80782000D02*
X155107349Y-83210000D01*
X155107349Y-85290000D02*
X155107349Y-87718000D01*
X155147349Y-80807000D02*
X155147349Y-83210000D01*
X155147349Y-85290000D02*
X155147349Y-87693000D01*
X155187349Y-80832000D02*
X155187349Y-83210000D01*
X155187349Y-85290000D02*
X155187349Y-87668000D01*
X155227349Y-80858000D02*
X155227349Y-83210000D01*
X155227349Y-85290000D02*
X155227349Y-87642000D01*
X155267349Y-80885000D02*
X155267349Y-83210000D01*
X155267349Y-85290000D02*
X155267349Y-87615000D01*
X155307349Y-80913000D02*
X155307349Y-83210000D01*
X155307349Y-85290000D02*
X155307349Y-87587000D01*
X155347349Y-80941000D02*
X155347349Y-83210000D01*
X155347349Y-85290000D02*
X155347349Y-87559000D01*
X155387349Y-80970000D02*
X155387349Y-83210000D01*
X155387349Y-85290000D02*
X155387349Y-87530000D01*
X155427349Y-81000000D02*
X155427349Y-83210000D01*
X155427349Y-85290000D02*
X155427349Y-87500000D01*
X155467349Y-81031000D02*
X155467349Y-83210000D01*
X155467349Y-85290000D02*
X155467349Y-87469000D01*
X155507349Y-81062000D02*
X155507349Y-83210000D01*
X155507349Y-85290000D02*
X155507349Y-87438000D01*
X155547349Y-81094000D02*
X155547349Y-83210000D01*
X155547349Y-85290000D02*
X155547349Y-87406000D01*
X155587349Y-81127000D02*
X155587349Y-83210000D01*
X155587349Y-85290000D02*
X155587349Y-87373000D01*
X155627349Y-81161000D02*
X155627349Y-83210000D01*
X155627349Y-85290000D02*
X155627349Y-87339000D01*
X155667349Y-81195000D02*
X155667349Y-83210000D01*
X155667349Y-85290000D02*
X155667349Y-87305000D01*
X155707349Y-81231000D02*
X155707349Y-83210000D01*
X155707349Y-85290000D02*
X155707349Y-87269000D01*
X155747349Y-81268000D02*
X155747349Y-87232000D01*
X155787349Y-81305000D02*
X155787349Y-87195000D01*
X155827349Y-81344000D02*
X155827349Y-87156000D01*
X155867349Y-81383000D02*
X155867349Y-87117000D01*
X155907349Y-81424000D02*
X155907349Y-87076000D01*
X155947349Y-81466000D02*
X155947349Y-87034000D01*
X155987349Y-81509000D02*
X155987349Y-86991000D01*
X156027349Y-81554000D02*
X156027349Y-86946000D01*
X156067349Y-81599000D02*
X156067349Y-86901000D01*
X156107349Y-81646000D02*
X156107349Y-86854000D01*
X156147349Y-81695000D02*
X156147349Y-86805000D01*
X156187349Y-81745000D02*
X156187349Y-86755000D01*
X156227349Y-81797000D02*
X156227349Y-86703000D01*
X156267349Y-81850000D02*
X156267349Y-86650000D01*
X156307349Y-81906000D02*
X156307349Y-86594000D01*
X156347349Y-81963000D02*
X156347349Y-86537000D01*
X156387349Y-82023000D02*
X156387349Y-86477000D01*
X156427349Y-82085000D02*
X156427349Y-86415000D01*
X156467349Y-82149000D02*
X156467349Y-86351000D01*
X156507349Y-82216000D02*
X156507349Y-86284000D01*
X156547349Y-82286000D02*
X156547349Y-86214000D01*
X156587349Y-82360000D02*
X156587349Y-86140000D01*
X156627349Y-82437000D02*
X156627349Y-86063000D01*
X156667349Y-82519000D02*
X156667349Y-85981000D01*
X156707349Y-82606000D02*
X156707349Y-85894000D01*
X156747349Y-82698000D02*
X156747349Y-85802000D01*
X156787349Y-82797000D02*
X156787349Y-85703000D01*
X156827349Y-82904000D02*
X156827349Y-85596000D01*
X156867349Y-83022000D02*
X156867349Y-85478000D01*
X156907349Y-83153000D02*
X156907349Y-85347000D01*
X156947349Y-83303000D02*
X156947349Y-85197000D01*
X156987349Y-83482000D02*
X156987349Y-85018000D01*
X157027349Y-83717000D02*
X157027349Y-84783000D01*
X157067349Y-84250000D02*
G75*
G02*
X148827349Y-84250000I-4120000J0D01*
G01*
X148827349Y-84250000D02*
G75*
G02*
X157067349Y-84250000I4120000J0D01*
G01*
%TO.C,D1*%
X149360000Y-62850000D02*
X143850000Y-62850000D01*
X149360000Y-66150000D02*
X143850000Y-66150000D01*
X149360000Y-66150000D02*
X149360000Y-62850000D01*
%TO.C,C1*%
X127420000Y-61862651D02*
X135580000Y-61862651D01*
X127420000Y-61902651D02*
X135580000Y-61902651D01*
X127421000Y-61822651D02*
X135579000Y-61822651D01*
X127422000Y-61782651D02*
X135578000Y-61782651D01*
X127423000Y-61742651D02*
X135577000Y-61742651D01*
X127425000Y-61702651D02*
X135575000Y-61702651D01*
X127427000Y-61662651D02*
X135573000Y-61662651D01*
X127430000Y-61622651D02*
X135570000Y-61622651D01*
X127432000Y-61582651D02*
X135568000Y-61582651D01*
X127436000Y-61542651D02*
X135564000Y-61542651D01*
X127439000Y-61502651D02*
X135561000Y-61502651D01*
X127444000Y-61462651D02*
X135556000Y-61462651D01*
X127448000Y-61422651D02*
X135552000Y-61422651D01*
X127453000Y-61382651D02*
X135547000Y-61382651D01*
X127458000Y-61342651D02*
X135542000Y-61342651D01*
X127464000Y-61302651D02*
X135536000Y-61302651D01*
X127470000Y-61262651D02*
X135530000Y-61262651D01*
X127477000Y-61222651D02*
X135523000Y-61222651D01*
X127483000Y-61182651D02*
X130460000Y-61182651D01*
X127491000Y-61142651D02*
X130460000Y-61142651D01*
X127498000Y-61102651D02*
X130460000Y-61102651D01*
X127507000Y-61062651D02*
X130460000Y-61062651D01*
X127515000Y-61022651D02*
X130460000Y-61022651D01*
X127524000Y-60982651D02*
X130460000Y-60982651D01*
X127533000Y-60942651D02*
X130460000Y-60942651D01*
X127543000Y-60902651D02*
X130460000Y-60902651D01*
X127553000Y-60862651D02*
X130460000Y-60862651D01*
X127564000Y-60822651D02*
X130460000Y-60822651D01*
X127575000Y-60782651D02*
X130460000Y-60782651D01*
X127587000Y-60742651D02*
X130460000Y-60742651D01*
X127599000Y-60702651D02*
X130460000Y-60702651D01*
X127611000Y-60662651D02*
X130460000Y-60662651D01*
X127624000Y-60622651D02*
X130460000Y-60622651D01*
X127637000Y-60582651D02*
X130460000Y-60582651D01*
X127651000Y-60542651D02*
X130460000Y-60542651D01*
X127665000Y-60502651D02*
X130460000Y-60502651D01*
X127680000Y-60462651D02*
X130460000Y-60462651D01*
X127695000Y-60422651D02*
X130460000Y-60422651D01*
X127711000Y-60382651D02*
X130460000Y-60382651D01*
X127727000Y-60342651D02*
X130460000Y-60342651D01*
X127743000Y-60302651D02*
X130460000Y-60302651D01*
X127760000Y-60262651D02*
X130460000Y-60262651D01*
X127778000Y-60222651D02*
X130460000Y-60222651D01*
X127796000Y-60182651D02*
X130460000Y-60182651D01*
X127815000Y-60142651D02*
X130460000Y-60142651D01*
X127834000Y-60102651D02*
X130460000Y-60102651D01*
X127854000Y-60062651D02*
X130460000Y-60062651D01*
X127874000Y-60022651D02*
X130460000Y-60022651D01*
X127895000Y-59982651D02*
X130460000Y-59982651D01*
X127916000Y-59942651D02*
X130460000Y-59942651D01*
X127938000Y-59902651D02*
X130460000Y-59902651D01*
X127961000Y-59862651D02*
X130460000Y-59862651D01*
X127984000Y-59822651D02*
X130460000Y-59822651D01*
X128007000Y-59782651D02*
X130460000Y-59782651D01*
X128032000Y-59742651D02*
X130460000Y-59742651D01*
X128057000Y-59702651D02*
X130460000Y-59702651D01*
X128082000Y-59662651D02*
X130460000Y-59662651D01*
X128108000Y-59622651D02*
X130460000Y-59622651D01*
X128135000Y-59582651D02*
X130460000Y-59582651D01*
X128163000Y-59542651D02*
X130460000Y-59542651D01*
X128191000Y-59502651D02*
X130460000Y-59502651D01*
X128220000Y-59462651D02*
X130460000Y-59462651D01*
X128250000Y-59422651D02*
X130460000Y-59422651D01*
X128281000Y-59382651D02*
X130460000Y-59382651D01*
X128312000Y-59342651D02*
X130460000Y-59342651D01*
X128344000Y-59302651D02*
X130460000Y-59302651D01*
X128377000Y-59262651D02*
X130460000Y-59262651D01*
X128411000Y-59222651D02*
X130460000Y-59222651D01*
X128445000Y-59182651D02*
X130460000Y-59182651D01*
X128481000Y-59142651D02*
X130460000Y-59142651D01*
X128518000Y-59102651D02*
X134482000Y-59102651D01*
X128555000Y-59062651D02*
X134445000Y-59062651D01*
X128594000Y-59022651D02*
X134406000Y-59022651D01*
X128633000Y-58982651D02*
X134367000Y-58982651D01*
X128674000Y-58942651D02*
X134326000Y-58942651D01*
X128716000Y-58902651D02*
X134284000Y-58902651D01*
X128759000Y-58862651D02*
X134241000Y-58862651D01*
X128785000Y-65912349D02*
X129585000Y-65912349D01*
X128804000Y-58822651D02*
X134196000Y-58822651D01*
X128849000Y-58782651D02*
X134151000Y-58782651D01*
X128896000Y-58742651D02*
X134104000Y-58742651D01*
X128945000Y-58702651D02*
X134055000Y-58702651D01*
X128995000Y-58662651D02*
X134005000Y-58662651D01*
X129047000Y-58622651D02*
X133953000Y-58622651D01*
X129100000Y-58582651D02*
X133900000Y-58582651D01*
X129156000Y-58542651D02*
X133844000Y-58542651D01*
X129185000Y-66312349D02*
X129185000Y-65512349D01*
X129213000Y-58502651D02*
X133787000Y-58502651D01*
X129273000Y-58462651D02*
X133727000Y-58462651D01*
X129335000Y-58422651D02*
X133665000Y-58422651D01*
X129399000Y-58382651D02*
X133601000Y-58382651D01*
X129466000Y-58342651D02*
X133534000Y-58342651D01*
X129536000Y-58302651D02*
X133464000Y-58302651D01*
X129610000Y-58262651D02*
X133390000Y-58262651D01*
X129687000Y-58222651D02*
X133313000Y-58222651D01*
X129769000Y-58182651D02*
X133231000Y-58182651D01*
X129856000Y-58142651D02*
X133144000Y-58142651D01*
X129948000Y-58102651D02*
X133052000Y-58102651D01*
X130047000Y-58062651D02*
X132953000Y-58062651D01*
X130154000Y-58022651D02*
X132846000Y-58022651D01*
X130272000Y-57982651D02*
X132728000Y-57982651D01*
X130403000Y-57942651D02*
X132597000Y-57942651D01*
X130553000Y-57902651D02*
X132447000Y-57902651D01*
X130732000Y-57862651D02*
X132268000Y-57862651D01*
X130967000Y-57822651D02*
X132033000Y-57822651D01*
X132540000Y-59142651D02*
X134519000Y-59142651D01*
X132540000Y-59182651D02*
X134555000Y-59182651D01*
X132540000Y-59222651D02*
X134589000Y-59222651D01*
X132540000Y-59262651D02*
X134623000Y-59262651D01*
X132540000Y-59302651D02*
X134656000Y-59302651D01*
X132540000Y-59342651D02*
X134688000Y-59342651D01*
X132540000Y-59382651D02*
X134719000Y-59382651D01*
X132540000Y-59422651D02*
X134750000Y-59422651D01*
X132540000Y-59462651D02*
X134780000Y-59462651D01*
X132540000Y-59502651D02*
X134809000Y-59502651D01*
X132540000Y-59542651D02*
X134837000Y-59542651D01*
X132540000Y-59582651D02*
X134865000Y-59582651D01*
X132540000Y-59622651D02*
X134892000Y-59622651D01*
X132540000Y-59662651D02*
X134918000Y-59662651D01*
X132540000Y-59702651D02*
X134943000Y-59702651D01*
X132540000Y-59742651D02*
X134968000Y-59742651D01*
X132540000Y-59782651D02*
X134993000Y-59782651D01*
X132540000Y-59822651D02*
X135016000Y-59822651D01*
X132540000Y-59862651D02*
X135039000Y-59862651D01*
X132540000Y-59902651D02*
X135062000Y-59902651D01*
X132540000Y-59942651D02*
X135084000Y-59942651D01*
X132540000Y-59982651D02*
X135105000Y-59982651D01*
X132540000Y-60022651D02*
X135126000Y-60022651D01*
X132540000Y-60062651D02*
X135146000Y-60062651D01*
X132540000Y-60102651D02*
X135166000Y-60102651D01*
X132540000Y-60142651D02*
X135185000Y-60142651D01*
X132540000Y-60182651D02*
X135204000Y-60182651D01*
X132540000Y-60222651D02*
X135222000Y-60222651D01*
X132540000Y-60262651D02*
X135240000Y-60262651D01*
X132540000Y-60302651D02*
X135257000Y-60302651D01*
X132540000Y-60342651D02*
X135273000Y-60342651D01*
X132540000Y-60382651D02*
X135289000Y-60382651D01*
X132540000Y-60422651D02*
X135305000Y-60422651D01*
X132540000Y-60462651D02*
X135320000Y-60462651D01*
X132540000Y-60502651D02*
X135335000Y-60502651D01*
X132540000Y-60542651D02*
X135349000Y-60542651D01*
X132540000Y-60582651D02*
X135363000Y-60582651D01*
X132540000Y-60622651D02*
X135376000Y-60622651D01*
X132540000Y-60662651D02*
X135389000Y-60662651D01*
X132540000Y-60702651D02*
X135401000Y-60702651D01*
X132540000Y-60742651D02*
X135413000Y-60742651D01*
X132540000Y-60782651D02*
X135425000Y-60782651D01*
X132540000Y-60822651D02*
X135436000Y-60822651D01*
X132540000Y-60862651D02*
X135447000Y-60862651D01*
X132540000Y-60902651D02*
X135457000Y-60902651D01*
X132540000Y-60942651D02*
X135467000Y-60942651D01*
X132540000Y-60982651D02*
X135476000Y-60982651D01*
X132540000Y-61022651D02*
X135485000Y-61022651D01*
X132540000Y-61062651D02*
X135493000Y-61062651D01*
X132540000Y-61102651D02*
X135502000Y-61102651D01*
X132540000Y-61142651D02*
X135509000Y-61142651D01*
X132540000Y-61182651D02*
X135517000Y-61182651D01*
X135620000Y-61902651D02*
G75*
G02*
X127380000Y-61902651I-4120000J0D01*
G01*
X127380000Y-61902651D02*
G75*
G02*
X135620000Y-61902651I4120000J0D01*
G01*
%TO.C,R4*%
X134564564Y-85515000D02*
X134110436Y-85515000D01*
X134564564Y-86985000D02*
X134110436Y-86985000D01*
%TO.C,BAT+*%
X159150000Y-107000000D02*
G75*
G02*
X157250000Y-107000000I-950000J0D01*
G01*
X157250000Y-107000000D02*
G75*
G02*
X159150000Y-107000000I950000J0D01*
G01*
%TO.C,U2*%
X120290000Y-88865000D02*
X124410000Y-88865000D01*
X120290000Y-88960000D02*
X120290000Y-88865000D01*
X120290000Y-93985000D02*
X120290000Y-93890000D01*
X124410000Y-88865000D02*
X124410000Y-88960000D01*
X124410000Y-93890000D02*
X124410000Y-93985000D01*
X124410000Y-93985000D02*
X120290000Y-93985000D01*
X119750000Y-88955000D02*
X119510000Y-88625000D01*
X119990000Y-88625000D01*
X119750000Y-88955000D01*
G36*
X119750000Y-88955000D02*
G01*
X119510000Y-88625000D01*
X119990000Y-88625000D01*
X119750000Y-88955000D01*
G37*
%TO.C,R7*%
X138602500Y-92522936D02*
X138602500Y-92977064D01*
X140072500Y-92522936D02*
X140072500Y-92977064D01*
%TO.C,U1*%
X156350000Y-62525000D02*
X156350000Y-63475000D01*
X156350000Y-72925000D02*
X156350000Y-71975000D01*
X157715000Y-62525000D02*
X156350000Y-62525000D01*
X157715000Y-72925000D02*
X156350000Y-72925000D01*
X153525000Y-63515000D02*
X153185000Y-63045000D01*
X153865000Y-63045000D01*
X153525000Y-63515000D01*
G36*
X153525000Y-63515000D02*
G01*
X153185000Y-63045000D01*
X153865000Y-63045000D01*
X153525000Y-63515000D01*
G37*
%TO.C,VIN*%
X152050000Y-107000000D02*
G75*
G02*
X150150000Y-107000000I-950000J0D01*
G01*
X150150000Y-107000000D02*
G75*
G02*
X152050000Y-107000000I950000J0D01*
G01*
%TO.C,C5*%
X120188748Y-97515000D02*
X120711252Y-97515000D01*
X120188748Y-98985000D02*
X120711252Y-98985000D01*
%TO.C,Q2*%
X139177500Y-81740000D02*
X140697500Y-81740000D01*
X139177500Y-81790000D02*
X139177500Y-81740000D01*
X139177500Y-83690000D02*
X139177500Y-82910000D01*
X139177500Y-84860000D02*
X139177500Y-84810000D01*
X140697500Y-81740000D02*
X140697500Y-82740000D01*
X140697500Y-83860000D02*
X140697500Y-84860000D01*
X140697500Y-84860000D02*
X139177500Y-84860000D01*
X138877500Y-83250000D02*
X138397500Y-83250000D01*
X138637500Y-82920000D01*
X138877500Y-83250000D01*
G36*
X138877500Y-83250000D02*
G01*
X138397500Y-83250000D01*
X138637500Y-82920000D01*
X138877500Y-83250000D01*
G37*
%TO.C,J1*%
X111857500Y-64545000D02*
X121897500Y-64545000D01*
X111857500Y-66905000D02*
X111857500Y-64545000D01*
X111857500Y-74945000D02*
X111857500Y-67505000D01*
X112477500Y-64545000D02*
X112477500Y-74945000D01*
X113977500Y-64545000D02*
X113977500Y-74945000D01*
X118877500Y-64545000D02*
X118877500Y-74945000D01*
X121897500Y-64545000D02*
X121897500Y-74945000D01*
X121897500Y-74945000D02*
X111857500Y-74945000D01*
X111857500Y-67205000D02*
X111247500Y-67645000D01*
X111247500Y-66765000D01*
X111857500Y-67205000D01*
G36*
X111857500Y-67205000D02*
G01*
X111247500Y-67645000D01*
X111247500Y-66765000D01*
X111857500Y-67205000D01*
G37*
%TO.C,L1*%
X138300000Y-67450000D02*
X148900000Y-67450000D01*
X138300000Y-70650000D02*
X138300000Y-67450000D01*
X138300000Y-78050000D02*
X138300000Y-74850000D01*
X148900000Y-67450000D02*
X148900000Y-70650000D01*
X148900000Y-74850000D02*
X148900000Y-78050000D01*
X148900000Y-78050000D02*
X138300000Y-78050000D01*
%TO.C,Q1*%
X127490000Y-69052500D02*
X128490000Y-69052500D01*
X127490000Y-70572500D02*
X127490000Y-69052500D01*
X127540000Y-70572500D02*
X127490000Y-70572500D01*
X129440000Y-70572500D02*
X128660000Y-70572500D01*
X129610000Y-69052500D02*
X130610000Y-69052500D01*
X130610000Y-69052500D02*
X130610000Y-70572500D01*
X130610000Y-70572500D02*
X130560000Y-70572500D01*
X129000000Y-71352500D02*
X128670000Y-71112500D01*
X129000000Y-70872500D01*
X129000000Y-71352500D01*
G36*
X129000000Y-71352500D02*
G01*
X128670000Y-71112500D01*
X129000000Y-70872500D01*
X129000000Y-71352500D01*
G37*
%TO.C,R6*%
X133352500Y-92977064D02*
X133352500Y-92522936D01*
X134822500Y-92977064D02*
X134822500Y-92522936D01*
%TO.C,J2*%
X110840000Y-99110000D02*
X110840000Y-100360000D01*
X110840000Y-100360000D02*
X112090000Y-100360000D01*
X110940000Y-98300000D02*
X110940000Y-98600000D01*
X110940000Y-98600000D02*
X111140000Y-98600000D01*
X111040000Y-98300000D02*
X111040000Y-98600000D01*
X111140000Y-97500000D02*
X111750000Y-97500000D01*
X111140000Y-98300000D02*
X110940000Y-98300000D01*
X111750000Y-94550000D02*
X111750000Y-96500000D01*
X111750000Y-96500000D02*
X111140000Y-96500000D01*
X111750000Y-97500000D02*
X111750000Y-99450000D01*
X111750000Y-99450000D02*
X115250000Y-99450000D01*
X112450000Y-93940000D02*
X112450000Y-94550000D01*
X112450000Y-100060000D02*
X112450000Y-99450000D01*
X113750000Y-93940000D02*
X113750000Y-94550000D01*
X113750000Y-100060000D02*
X113750000Y-99450000D01*
X114750000Y-96900000D02*
X115250000Y-96900000D01*
X114750000Y-97100000D02*
X114750000Y-96900000D01*
X115250000Y-94550000D02*
X111750000Y-94550000D01*
X115250000Y-97000000D02*
X114750000Y-97000000D01*
X115250000Y-97100000D02*
X114750000Y-97100000D01*
X115250000Y-99450000D02*
X115250000Y-94550000D01*
X111140000Y-93940000D02*
X115860000Y-93940000D01*
X115860000Y-100060000D01*
X111140000Y-100060000D01*
X111140000Y-93940000D01*
%TO.C,R1*%
X124015000Y-73727064D02*
X124015000Y-73272936D01*
X125485000Y-73727064D02*
X125485000Y-73272936D01*
%TD*%
M02*
