%TF.GenerationSoftware,KiCad,Pcbnew,10.0.1*%
%TF.CreationDate,2026-05-10T02:07:07+01:00*%
%TF.ProjectId,Smart Power Management Board.,536d6172-7420-4506-9f77-6572204d616e,rev?*%
%TF.SameCoordinates,Original*%
%TF.FileFunction,Soldermask,Top*%
%TF.FilePolarity,Negative*%
%FSLAX46Y46*%
G04 Gerber Fmt 4.6, Leading zero omitted, Abs format (unit mm)*
G04 Created by KiCad (PCBNEW 10.0.1) date 2026-05-10 02:07:07*
%MOMM*%
%LPD*%
G01*
G04 APERTURE LIST*
G04 Aperture macros list*
%AMRoundRect*
0 Rectangle with rounded corners*
0 $1 Rounding radius*
0 $2 $3 $4 $5 $6 $7 $8 $9 X,Y pos of 4 corners*
0 Add a 4 corners polygon primitive as box body*
4,1,4,$2,$3,$4,$5,$6,$7,$8,$9,$2,$3,0*
0 Add four circle primitives for the rounded corners*
1,1,$1+$1,$2,$3*
1,1,$1+$1,$4,$5*
1,1,$1+$1,$6,$7*
1,1,$1+$1,$8,$9*
0 Add four rect primitives between the rounded corners*
20,1,$1+$1,$2,$3,$4,$5,0*
20,1,$1+$1,$4,$5,$6,$7,0*
20,1,$1+$1,$6,$7,$8,$9,0*
20,1,$1+$1,$8,$9,$2,$3,0*%
G04 Aperture macros list end*
%ADD10C,1.500000*%
%ADD11C,2.100000*%
%ADD12RoundRect,0.250000X0.250000X0.475000X-0.250000X0.475000X-0.250000X-0.475000X0.250000X-0.475000X0*%
%ADD13RoundRect,0.250000X1.050000X-1.050000X1.050000X1.050000X-1.050000X1.050000X-1.050000X-1.050000X0*%
%ADD14C,2.600000*%
%ADD15RoundRect,0.250000X0.262500X0.450000X-0.262500X0.450000X-0.262500X-0.450000X0.262500X-0.450000X0*%
%ADD16R,1.700000X1.700000*%
%ADD17C,1.700000*%
%ADD18RoundRect,0.250000X-0.262500X-0.450000X0.262500X-0.450000X0.262500X0.450000X-0.262500X0.450000X0*%
%ADD19RoundRect,0.250000X-0.250000X-0.475000X0.250000X-0.475000X0.250000X0.475000X-0.250000X0.475000X0*%
%ADD20RoundRect,0.250000X-0.650000X1.000000X-0.650000X-1.000000X0.650000X-1.000000X0.650000X1.000000X0*%
%ADD21RoundRect,0.250000X-0.312500X-1.450000X0.312500X-1.450000X0.312500X1.450000X-0.312500X1.450000X0*%
%ADD22RoundRect,0.250000X-0.550000X-0.550000X0.550000X-0.550000X0.550000X0.550000X-0.550000X0.550000X0*%
%ADD23C,1.600000*%
%ADD24RoundRect,0.250000X1.000000X0.650000X-1.000000X0.650000X-1.000000X-0.650000X1.000000X-0.650000X0*%
%ADD25RoundRect,0.250000X0.550000X-0.550000X0.550000X0.550000X-0.550000X0.550000X-0.550000X-0.550000X0*%
%ADD26RoundRect,0.150000X-0.825000X-0.150000X0.825000X-0.150000X0.825000X0.150000X-0.825000X0.150000X0*%
%ADD27R,2.410000X3.300000*%
%ADD28RoundRect,0.250000X-0.450000X0.262500X-0.450000X-0.262500X0.450000X-0.262500X0.450000X0.262500X0*%
%ADD29RoundRect,0.250000X-2.050000X-0.300000X2.050000X-0.300000X2.050000X0.300000X-2.050000X0.300000X0*%
%ADD30RoundRect,0.250002X-4.449998X-5.149998X4.449998X-5.149998X4.449998X5.149998X-4.449998X5.149998X0*%
%ADD31RoundRect,0.150000X-0.587500X-0.150000X0.587500X-0.150000X0.587500X0.150000X-0.587500X0.150000X0*%
%ADD32RoundRect,0.250000X-1.050000X1.050000X-1.050000X-1.050000X1.050000X-1.050000X1.050000X1.050000X0*%
%ADD33R,2.700000X3.600000*%
%ADD34RoundRect,0.150000X0.150000X-0.587500X0.150000X0.587500X-0.150000X0.587500X-0.150000X-0.587500X0*%
%ADD35RoundRect,0.250000X0.450000X-0.262500X0.450000X0.262500X-0.450000X0.262500X-0.450000X-0.262500X0*%
%ADD36RoundRect,0.250000X0.625000X-0.350000X0.625000X0.350000X-0.625000X0.350000X-0.625000X-0.350000X0*%
%ADD37O,1.750000X1.200000*%
G04 APERTURE END LIST*
D10*
%TO.C,GND*%
X161750000Y-107000000D03*
%TD*%
%TO.C,+5V*%
X154650000Y-107000000D03*
%TD*%
D11*
%TO.C,*%
X168000000Y-105250000D03*
%TD*%
%TO.C,*%
X112000000Y-59500000D03*
%TD*%
D12*
%TO.C,C4*%
X115400000Y-92000000D03*
X113500000Y-92000000D03*
%TD*%
D13*
%TO.C,J3*%
X165272500Y-85795000D03*
D14*
X165272500Y-80715000D03*
%TD*%
D15*
%TO.C,R5*%
X135337500Y-81250000D03*
X133512500Y-81250000D03*
%TD*%
D16*
%TO.C,J4*%
X168522500Y-94215000D03*
D17*
X168522500Y-96755000D03*
X168522500Y-99295000D03*
%TD*%
D15*
%TO.C,R8*%
X115450000Y-89250000D03*
X113625000Y-89250000D03*
%TD*%
D18*
%TO.C,R2*%
X128087500Y-74500000D03*
X129912500Y-74500000D03*
%TD*%
D19*
%TO.C,C3*%
X151552651Y-75750000D03*
X153452651Y-75750000D03*
%TD*%
D20*
%TO.C,D2*%
X149600000Y-93000000D03*
X149600000Y-97000000D03*
%TD*%
D11*
%TO.C,*%
X168500000Y-59250000D03*
%TD*%
D21*
%TO.C,F1*%
X116440000Y-79500000D03*
X120715000Y-79500000D03*
%TD*%
D22*
%TO.C,C2*%
X151197349Y-84250000D03*
D23*
X154697349Y-84250000D03*
%TD*%
D24*
%TO.C,D1*%
X147850000Y-64500000D03*
X143850000Y-64500000D03*
%TD*%
D25*
%TO.C,C1*%
X131500000Y-63652651D03*
D23*
X131500000Y-60152651D03*
%TD*%
D15*
%TO.C,R4*%
X135250000Y-86250000D03*
X133425000Y-86250000D03*
%TD*%
D10*
%TO.C,BAT+*%
X158200000Y-107000000D03*
%TD*%
D26*
%TO.C,U2*%
X119875000Y-89520000D03*
X119875000Y-90790000D03*
X119875000Y-92060000D03*
X119875000Y-93330000D03*
X124825000Y-93330000D03*
X124825000Y-92060000D03*
X124825000Y-90790000D03*
X124825000Y-89520000D03*
D27*
X122350000Y-91425000D03*
%TD*%
D28*
%TO.C,R7*%
X139337500Y-91837500D03*
X139337500Y-93662500D03*
%TD*%
D11*
%TO.C,*%
X112000000Y-105000000D03*
%TD*%
D29*
%TO.C,U1*%
X153525000Y-64325000D03*
X153525000Y-66025000D03*
X153525000Y-67725000D03*
D30*
X162675000Y-67725000D03*
D29*
X153525000Y-69425000D03*
X153525000Y-71125000D03*
%TD*%
D10*
%TO.C,VIN*%
X151100000Y-107000000D03*
%TD*%
D19*
%TO.C,C5*%
X119500000Y-98250000D03*
X121400000Y-98250000D03*
%TD*%
D31*
%TO.C,Q2*%
X139000000Y-82350000D03*
X139000000Y-84250000D03*
X140875000Y-83300000D03*
%TD*%
D32*
%TO.C,J1*%
X116577500Y-67205000D03*
D14*
X116577500Y-72285000D03*
%TD*%
D33*
%TO.C,L1*%
X147750000Y-72750000D03*
X139450000Y-72750000D03*
%TD*%
D34*
%TO.C,Q1*%
X128100000Y-70750000D03*
X130000000Y-70750000D03*
X129050000Y-68875000D03*
%TD*%
D35*
%TO.C,R6*%
X134087500Y-93662500D03*
X134087500Y-91837500D03*
%TD*%
D36*
%TO.C,J2*%
X112950000Y-98000000D03*
D37*
X112950000Y-96000000D03*
%TD*%
D35*
%TO.C,R1*%
X124750000Y-74412500D03*
X124750000Y-72587500D03*
%TD*%
M02*
