%TF.GenerationSoftware,KiCad,Pcbnew,10.0.1*%
%TF.CreationDate,2026-05-10T02:07:07+01:00*%
%TF.ProjectId,Smart Power Management Board.,536d6172-7420-4506-9f77-6572204d616e,rev?*%
%TF.SameCoordinates,Original*%
%TF.FileFunction,Copper,L1,Top*%
%TF.FilePolarity,Positive*%
%FSLAX46Y46*%
G04 Gerber Fmt 4.6, Leading zero omitted, Abs format (unit mm)*
G04 Created by KiCad (PCBNEW 10.0.1) date 2026-05-10 02:07:07*
%MOMM*%
%LPD*%
G01*
G04 APERTURE LIST*
G04 Aperture macros list*
%AMRoundRect*
0 Rectangle with rounded corners*
0 $1 Rounding radius*
0 $2 $3 $4 $5 $6 $7 $8 $9 X,Y pos of 4 corners*
0 Add a 4 corners polygon primitive as box body*
4,1,4,$2,$3,$4,$5,$6,$7,$8,$9,$2,$3,0*
0 Add four circle primitives for the rounded corners*
1,1,$1+$1,$2,$3*
1,1,$1+$1,$4,$5*
1,1,$1+$1,$6,$7*
1,1,$1+$1,$8,$9*
0 Add four rect primitives between the rounded corners*
20,1,$1+$1,$2,$3,$4,$5,0*
20,1,$1+$1,$4,$5,$6,$7,0*
20,1,$1+$1,$6,$7,$8,$9,0*
20,1,$1+$1,$8,$9,$2,$3,0*%
G04 Aperture macros list end*
%TA.AperFunction,SMDPad,CuDef*%
%ADD10C,1.500000*%
%TD*%
%TA.AperFunction,SMDPad,CuDef*%
%ADD11RoundRect,0.250000X0.250000X0.475000X-0.250000X0.475000X-0.250000X-0.475000X0.250000X-0.475000X0*%
%TD*%
%TA.AperFunction,ComponentPad*%
%ADD12RoundRect,0.250000X1.050000X-1.050000X1.050000X1.050000X-1.050000X1.050000X-1.050000X-1.050000X0*%
%TD*%
%TA.AperFunction,ComponentPad*%
%ADD13C,2.600000*%
%TD*%
%TA.AperFunction,SMDPad,CuDef*%
%ADD14RoundRect,0.250000X0.262500X0.450000X-0.262500X0.450000X-0.262500X-0.450000X0.262500X-0.450000X0*%
%TD*%
%TA.AperFunction,ComponentPad*%
%ADD15R,1.700000X1.700000*%
%TD*%
%TA.AperFunction,ComponentPad*%
%ADD16C,1.700000*%
%TD*%
%TA.AperFunction,SMDPad,CuDef*%
%ADD17RoundRect,0.250000X-0.262500X-0.450000X0.262500X-0.450000X0.262500X0.450000X-0.262500X0.450000X0*%
%TD*%
%TA.AperFunction,SMDPad,CuDef*%
%ADD18RoundRect,0.250000X-0.250000X-0.475000X0.250000X-0.475000X0.250000X0.475000X-0.250000X0.475000X0*%
%TD*%
%TA.AperFunction,SMDPad,CuDef*%
%ADD19RoundRect,0.250000X-0.650000X1.000000X-0.650000X-1.000000X0.650000X-1.000000X0.650000X1.000000X0*%
%TD*%
%TA.AperFunction,SMDPad,CuDef*%
%ADD20RoundRect,0.250000X-0.312500X-1.450000X0.312500X-1.450000X0.312500X1.450000X-0.312500X1.450000X0*%
%TD*%
%TA.AperFunction,ComponentPad*%
%ADD21RoundRect,0.250000X-0.550000X-0.550000X0.550000X-0.550000X0.550000X0.550000X-0.550000X0.550000X0*%
%TD*%
%TA.AperFunction,ComponentPad*%
%ADD22C,1.600000*%
%TD*%
%TA.AperFunction,SMDPad,CuDef*%
%ADD23RoundRect,0.250000X1.000000X0.650000X-1.000000X0.650000X-1.000000X-0.650000X1.000000X-0.650000X0*%
%TD*%
%TA.AperFunction,ComponentPad*%
%ADD24RoundRect,0.250000X0.550000X-0.550000X0.550000X0.550000X-0.550000X0.550000X-0.550000X-0.550000X0*%
%TD*%
%TA.AperFunction,SMDPad,CuDef*%
%ADD25RoundRect,0.150000X-0.825000X-0.150000X0.825000X-0.150000X0.825000X0.150000X-0.825000X0.150000X0*%
%TD*%
%TA.AperFunction,HeatsinkPad*%
%ADD26C,0.500000*%
%TD*%
%TA.AperFunction,HeatsinkPad*%
%ADD27R,2.410000X3.300000*%
%TD*%
%TA.AperFunction,SMDPad,CuDef*%
%ADD28RoundRect,0.250000X-0.450000X0.262500X-0.450000X-0.262500X0.450000X-0.262500X0.450000X0.262500X0*%
%TD*%
%TA.AperFunction,SMDPad,CuDef*%
%ADD29RoundRect,0.250000X-2.050000X-0.300000X2.050000X-0.300000X2.050000X0.300000X-2.050000X0.300000X0*%
%TD*%
%TA.AperFunction,SMDPad,CuDef*%
%ADD30RoundRect,0.250002X-4.449998X-5.149998X4.449998X-5.149998X4.449998X5.149998X-4.449998X5.149998X0*%
%TD*%
%TA.AperFunction,SMDPad,CuDef*%
%ADD31RoundRect,0.150000X-0.587500X-0.150000X0.587500X-0.150000X0.587500X0.150000X-0.587500X0.150000X0*%
%TD*%
%TA.AperFunction,ComponentPad*%
%ADD32RoundRect,0.250000X-1.050000X1.050000X-1.050000X-1.050000X1.050000X-1.050000X1.050000X1.050000X0*%
%TD*%
%TA.AperFunction,SMDPad,CuDef*%
%ADD33R,2.700000X3.600000*%
%TD*%
%TA.AperFunction,SMDPad,CuDef*%
%ADD34RoundRect,0.150000X0.150000X-0.587500X0.150000X0.587500X-0.150000X0.587500X-0.150000X-0.587500X0*%
%TD*%
%TA.AperFunction,SMDPad,CuDef*%
%ADD35RoundRect,0.250000X0.450000X-0.262500X0.450000X0.262500X-0.450000X0.262500X-0.450000X-0.262500X0*%
%TD*%
%TA.AperFunction,ComponentPad*%
%ADD36RoundRect,0.250000X0.625000X-0.350000X0.625000X0.350000X-0.625000X0.350000X-0.625000X-0.350000X0*%
%TD*%
%TA.AperFunction,ComponentPad*%
%ADD37O,1.750000X1.200000*%
%TD*%
%TA.AperFunction,ViaPad*%
%ADD38C,0.600000*%
%TD*%
%TA.AperFunction,ViaPad*%
%ADD39C,0.800000*%
%TD*%
%TA.AperFunction,Conductor*%
%ADD40C,0.200000*%
%TD*%
%TA.AperFunction,Conductor*%
%ADD41C,1.500000*%
%TD*%
%TA.AperFunction,Conductor*%
%ADD42C,1.000000*%
%TD*%
G04 APERTURE END LIST*
D10*
%TO.P,GND,1,1_1*%
%TO.N,GND*%
X161750000Y-107000000D03*
%TD*%
%TO.P,+5V,1,1_1*%
%TO.N,+5V*%
X154650000Y-107000000D03*
%TD*%
D11*
%TO.P,C4,1*%
%TO.N,+5V*%
X115400000Y-92000000D03*
%TO.P,C4,2*%
%TO.N,GND*%
X113500000Y-92000000D03*
%TD*%
D12*
%TO.P,J3,1,Pin_1_1*%
%TO.N,/SYS_5V_LOAD*%
X165272500Y-85795000D03*
D13*
%TO.P,J3,2,Pin_2_2*%
%TO.N,GND*%
X165272500Y-80715000D03*
%TD*%
D14*
%TO.P,R5,1*%
%TO.N,/PWR_GATE*%
X135337500Y-81250000D03*
%TO.P,R5,2*%
%TO.N,GND*%
X133512500Y-81250000D03*
%TD*%
D15*
%TO.P,J4,1,Pin_1_1*%
%TO.N,/BAT+*%
X168522500Y-94215000D03*
D16*
%TO.P,J4,2,Pin_2_2*%
%TO.N,/BAT_SENSE*%
X168522500Y-96755000D03*
%TO.P,J4,3,Pin_3_3*%
%TO.N,GND*%
X168522500Y-99295000D03*
%TD*%
D14*
%TO.P,R8,1*%
%TO.N,/PROG_NODE*%
X115450000Y-89250000D03*
%TO.P,R8,2*%
%TO.N,GND*%
X113625000Y-89250000D03*
%TD*%
D17*
%TO.P,R2,1*%
%TO.N,/RP_GATE*%
X128087500Y-74500000D03*
%TO.P,R2,2*%
%TO.N,/VIN_FUSED*%
X129912500Y-74500000D03*
%TD*%
D18*
%TO.P,C3,1*%
%TO.N,+5V*%
X151552651Y-75750000D03*
%TO.P,C3,2*%
%TO.N,GND*%
X153452651Y-75750000D03*
%TD*%
D19*
%TO.P,D2,1,K_1*%
%TO.N,/SYS_5V_LOAD*%
X149600000Y-93000000D03*
%TO.P,D2,2,A_2*%
%TO.N,+5V*%
X149600000Y-97000000D03*
%TD*%
D20*
%TO.P,F1,1*%
%TO.N,/VIN_12V*%
X116440000Y-79500000D03*
%TO.P,F1,2*%
%TO.N,/VIN_FUSED*%
X120715000Y-79500000D03*
%TD*%
D21*
%TO.P,C2,1*%
%TO.N,+5V*%
X151197349Y-84250000D03*
D22*
%TO.P,C2,2*%
%TO.N,GND*%
X154697349Y-84250000D03*
%TD*%
D23*
%TO.P,D1,1,K_1*%
%TO.N,/SW_NODE*%
X147850000Y-64500000D03*
%TO.P,D1,2,A_2*%
%TO.N,GND*%
X143850000Y-64500000D03*
%TD*%
D24*
%TO.P,C1,1*%
%TO.N,/SYS_VIN*%
X131500000Y-63652651D03*
D22*
%TO.P,C1,2*%
%TO.N,GND*%
X131500000Y-60152651D03*
%TD*%
D14*
%TO.P,R4,1*%
%TO.N,/PWR_GATE*%
X135250000Y-86250000D03*
%TO.P,R4,2*%
%TO.N,/SYS_VIN*%
X133425000Y-86250000D03*
%TD*%
D10*
%TO.P,BAT+,1,1_1*%
%TO.N,/BAT+*%
X158200000Y-107000000D03*
%TD*%
D25*
%TO.P,U2,1,TEMP_1*%
%TO.N,GND*%
X119875000Y-89520000D03*
%TO.P,U2,2,PROG_2*%
%TO.N,/PROG_NODE*%
X119875000Y-90790000D03*
%TO.P,U2,3,GND_3*%
%TO.N,GND*%
X119875000Y-92060000D03*
%TO.P,U2,4,V_{CC}_4*%
%TO.N,+5V*%
X119875000Y-93330000D03*
%TO.P,U2,5,BAT_5*%
%TO.N,/BAT+*%
X124825000Y-93330000D03*
%TO.P,U2,6,~{STDBY}_6*%
%TO.N,unconnected-(U2-~{STDBY}-Pad6)*%
X124825000Y-92060000D03*
%TO.P,U2,7,~{CHRG}_7*%
%TO.N,unconnected-(U2-~{CHRG}-Pad7)*%
X124825000Y-90790000D03*
%TO.P,U2,8,CE_8*%
%TO.N,+5V*%
X124825000Y-89520000D03*
D26*
%TO.P,U2,9,EPAD_9*%
%TO.N,GND*%
X121650000Y-90225000D03*
X121650000Y-91425000D03*
X121650000Y-92625000D03*
D27*
X122350000Y-91425000D03*
D26*
X123050000Y-90225000D03*
X123050000Y-91425000D03*
X123050000Y-92625000D03*
%TD*%
D28*
%TO.P,R7,1*%
%TO.N,/BAT_SENSE*%
X139337500Y-91837500D03*
%TO.P,R7,2*%
%TO.N,GND*%
X139337500Y-93662500D03*
%TD*%
D29*
%TO.P,U1,1,VIN_1*%
%TO.N,/SYS_VIN*%
X153525000Y-64325000D03*
%TO.P,U1,2,OUT_2*%
%TO.N,/SW_NODE*%
X153525000Y-66025000D03*
%TO.P,U1,3,GND_3*%
%TO.N,GND*%
X153525000Y-67725000D03*
D30*
X162675000Y-67725000D03*
D29*
%TO.P,U1,4,FB_4*%
%TO.N,+5V*%
X153525000Y-69425000D03*
%TO.P,U1,5,~{ON}/OFF_5*%
%TO.N,GND*%
X153525000Y-71125000D03*
%TD*%
D10*
%TO.P,VIN,1,1_1*%
%TO.N,/VIN_FUSED*%
X151100000Y-107000000D03*
%TD*%
D18*
%TO.P,C5,1*%
%TO.N,/BAT+*%
X119500000Y-98250000D03*
%TO.P,C5,2*%
%TO.N,GND*%
X121400000Y-98250000D03*
%TD*%
D31*
%TO.P,Q2,1,G_1*%
%TO.N,/PWR_GATE*%
X139000000Y-82350000D03*
%TO.P,Q2,2,S_2*%
%TO.N,+BATT*%
X139000000Y-84250000D03*
%TO.P,Q2,3,D_3*%
%TO.N,/SYS_5V_LOAD*%
X140875000Y-83300000D03*
%TD*%
D32*
%TO.P,J1,1,Pin_1_1*%
%TO.N,GND*%
X116577500Y-67205000D03*
D13*
%TO.P,J1,2,Pin_2_2*%
%TO.N,/VIN_12V*%
X116577500Y-72285000D03*
%TD*%
D33*
%TO.P,L1,1,1_1*%
%TO.N,/SW_NODE*%
X147750000Y-72750000D03*
%TO.P,L1,2,2_2*%
%TO.N,+5V*%
X139450000Y-72750000D03*
%TD*%
D34*
%TO.P,Q1,1,G_1*%
%TO.N,/RP_GATE*%
X128100000Y-70750000D03*
%TO.P,Q1,2,S_2*%
%TO.N,/VIN_FUSED*%
X130000000Y-70750000D03*
%TO.P,Q1,3,D_3*%
%TO.N,/SYS_VIN*%
X129050000Y-68875000D03*
%TD*%
D35*
%TO.P,R6,1*%
%TO.N,/BAT+*%
X134087500Y-93662500D03*
%TO.P,R6,2*%
%TO.N,/BAT_SENSE*%
X134087500Y-91837500D03*
%TD*%
D36*
%TO.P,J2,1,Pin_1_1*%
%TO.N,/BAT+*%
X112950000Y-98000000D03*
D37*
%TO.P,J2,2,Pin_2_2*%
%TO.N,GND*%
X112950000Y-96000000D03*
%TD*%
D35*
%TO.P,R1,1*%
%TO.N,/RP_GATE*%
X124750000Y-74412500D03*
%TO.P,R1,2*%
%TO.N,GND*%
X124750000Y-72587500D03*
%TD*%
D38*
%TO.N,+5V*%
X126500000Y-92250000D03*
X149750000Y-96050000D03*
X121000000Y-94500000D03*
%TO.N,/BAT_SENSE*%
X142000000Y-93750000D03*
X142750000Y-95500000D03*
%TO.N,/VIN_FUSED*%
X125500000Y-80000000D03*
X139750000Y-96000000D03*
%TO.N,/SYS_VIN*%
X131000000Y-80250000D03*
X131500000Y-81750000D03*
%TO.N,GND*%
X155750000Y-74500000D03*
D39*
X133250000Y-83000000D03*
X124750000Y-71000000D03*
X141750000Y-64500000D03*
D38*
X118750000Y-88000000D03*
D39*
X137750000Y-93500000D03*
D38*
X116750000Y-62750000D03*
D39*
X150500000Y-67750000D03*
D38*
X122750000Y-98250000D03*
%TO.N,/BAT+*%
X163500000Y-94500000D03*
X161750000Y-96250000D03*
%TD*%
%TO.N,+5V*%
D40*
X149600000Y-96200000D02*
X149750000Y-96050000D01*
X149600000Y-97000000D02*
X149600000Y-96200000D01*
X124825000Y-87375000D02*
X124825000Y-89520000D01*
X154650000Y-104400000D02*
X149600000Y-99350000D01*
X119458738Y-93330000D02*
X119875000Y-93330000D01*
X139450000Y-72750000D02*
X141772349Y-75072349D01*
X125799999Y-89520000D02*
X126500000Y-90220001D01*
X151197349Y-84250000D02*
X151197349Y-76105302D01*
X152019544Y-69425000D02*
X150875000Y-70569544D01*
X116730000Y-93330000D02*
X115400000Y-92000000D01*
X124825000Y-89520000D02*
X125799999Y-89520000D01*
X151197349Y-76105302D02*
X151552651Y-75750000D01*
X139450000Y-72750000D02*
X124825000Y-87375000D01*
X149600000Y-99350000D02*
X149600000Y-97000000D01*
X121000000Y-94455000D02*
X119875000Y-93330000D01*
X154650000Y-107000000D02*
X154650000Y-104400000D01*
X126500000Y-90220001D02*
X126500000Y-92250000D01*
X119875000Y-93330000D02*
X116730000Y-93330000D01*
X153525000Y-69425000D02*
X152019544Y-69425000D01*
X121000000Y-94500000D02*
X121000000Y-94455000D01*
X150875000Y-75072349D02*
X151552651Y-75750000D01*
X150875000Y-70569544D02*
X150875000Y-75072349D01*
X141772349Y-75072349D02*
X150875000Y-75072349D01*
%TO.N,/PWR_GATE*%
X135250000Y-81337500D02*
X135337500Y-81250000D01*
X135250000Y-86250000D02*
X135250000Y-81337500D01*
X135337500Y-81250000D02*
X137900000Y-81250000D01*
X137900000Y-81250000D02*
X139000000Y-82350000D01*
%TO.N,/BAT_SENSE*%
X142000000Y-93750000D02*
X140087500Y-91837500D01*
X139337500Y-91837500D02*
X134087500Y-91837500D01*
X142800000Y-95450000D02*
X142750000Y-95500000D01*
X168522500Y-96755000D02*
X167217500Y-95450000D01*
X167217500Y-95450000D02*
X142800000Y-95450000D01*
X140087500Y-91837500D02*
X139337500Y-91837500D01*
%TO.N,/PROG_NODE*%
X115450000Y-89250000D02*
X116990000Y-90790000D01*
X116990000Y-90790000D02*
X119875000Y-90790000D01*
%TO.N,/RP_GATE*%
X128100000Y-74487500D02*
X128087500Y-74500000D01*
X128087500Y-74500000D02*
X124837500Y-74500000D01*
X128100000Y-70750000D02*
X128100000Y-74487500D01*
X124837500Y-74500000D02*
X124750000Y-74412500D01*
%TO.N,/VIN_FUSED*%
X150750000Y-107000000D02*
X139750000Y-96000000D01*
X125500000Y-80000000D02*
X125412500Y-80000000D01*
X124912500Y-79500000D02*
X129912500Y-74500000D01*
X120715000Y-79500000D02*
X124912500Y-79500000D01*
X129912500Y-70837500D02*
X130000000Y-70750000D01*
X151100000Y-107000000D02*
X150750000Y-107000000D01*
X129912500Y-74500000D02*
X129912500Y-70837500D01*
X125412500Y-80000000D02*
X124912500Y-79500000D01*
%TO.N,/SW_NODE*%
X147750000Y-68400000D02*
X150125000Y-66025000D01*
X149375000Y-66025000D02*
X150125000Y-66025000D01*
X147850000Y-64500000D02*
X149375000Y-66025000D01*
X150125000Y-66025000D02*
X153525000Y-66025000D01*
X147750000Y-72750000D02*
X147750000Y-68400000D01*
%TO.N,/SYS_VIN*%
X131500000Y-81750000D02*
X131500000Y-84250000D01*
X130000000Y-66425000D02*
X130000000Y-67925000D01*
X131500000Y-63652651D02*
X131500000Y-64925000D01*
X131000000Y-70371948D02*
X129503052Y-68875000D01*
X152450000Y-63250000D02*
X131902651Y-63250000D01*
X129503052Y-68875000D02*
X129050000Y-68875000D01*
X132500000Y-85325000D02*
X133425000Y-86250000D01*
X153525000Y-64325000D02*
X152450000Y-63250000D01*
X130000000Y-67925000D02*
X129050000Y-68875000D01*
X131000000Y-80250000D02*
X131000000Y-70371948D01*
X132500000Y-85250000D02*
X132500000Y-85325000D01*
X131500000Y-64925000D02*
X130000000Y-66425000D01*
X131902651Y-63250000D02*
X131500000Y-63652651D01*
X131500000Y-84250000D02*
X132500000Y-85250000D01*
%TO.N,GND*%
D41*
X154500000Y-75750000D02*
X155750000Y-74500000D01*
X113500000Y-92000000D02*
X113500000Y-95450000D01*
X119845000Y-89490000D02*
X119875000Y-89490000D01*
X161750000Y-107000000D02*
X161750000Y-106067500D01*
X137912500Y-93662500D02*
X137750000Y-93500000D01*
X153525000Y-67725000D02*
X150525000Y-67725000D01*
X116577500Y-62922500D02*
X116750000Y-62750000D01*
X153525000Y-72275000D02*
X155750000Y-74500000D01*
X161750000Y-106067500D02*
X168522500Y-99295000D01*
X124750000Y-72587500D02*
X124750000Y-71000000D01*
X113500000Y-95450000D02*
X112950000Y-96000000D01*
X162525000Y-67725000D02*
X155750000Y-74500000D01*
X153452651Y-75750000D02*
X154500000Y-75750000D01*
X150525000Y-67725000D02*
X150500000Y-67750000D01*
X162675000Y-67725000D02*
X162525000Y-67725000D01*
X153525000Y-71125000D02*
X153525000Y-72275000D01*
D42*
X121085000Y-92060000D02*
X121650000Y-92625000D01*
D41*
X133512500Y-81250000D02*
X133512500Y-82737500D01*
X139337500Y-93662500D02*
X137912500Y-93662500D01*
D42*
X121400000Y-98250000D02*
X122750000Y-98250000D01*
D41*
X113625000Y-91875000D02*
X113500000Y-92000000D01*
X133512500Y-82737500D02*
X133250000Y-83000000D01*
X113625000Y-89250000D02*
X113625000Y-91875000D01*
D42*
X119875000Y-92060000D02*
X121085000Y-92060000D01*
D41*
X118750000Y-88000000D02*
X118750000Y-88395000D01*
X116577500Y-67205000D02*
X116577500Y-62922500D01*
X143850000Y-64500000D02*
X141750000Y-64500000D01*
X118750000Y-88395000D02*
X119845000Y-89490000D01*
%TO.N,/BAT+*%
D40*
X167535343Y-95202157D02*
X167383185Y-95050000D01*
X142501471Y-94900000D02*
X142151471Y-95250000D01*
X119500000Y-98250000D02*
X113200000Y-98250000D01*
X142998529Y-94900000D02*
X142501471Y-94900000D01*
X124420000Y-93330000D02*
X119500000Y-98250000D01*
X158200000Y-107000000D02*
X161750000Y-103450000D01*
X134087500Y-93662500D02*
X125157500Y-93662500D01*
X163500000Y-94500000D02*
X164000000Y-95000000D01*
X168522500Y-94215000D02*
X167535343Y-95202157D01*
X113200000Y-98250000D02*
X112950000Y-98000000D01*
X161750000Y-103450000D02*
X161750000Y-96250000D01*
X167383185Y-95050000D02*
X163250000Y-95050000D01*
X163250000Y-95050000D02*
X143148529Y-95050000D01*
X124825000Y-93330000D02*
X124420000Y-93330000D01*
X164000000Y-95000000D02*
X164000000Y-95050000D01*
X142151471Y-95250000D02*
X135675000Y-95250000D01*
X135675000Y-95250000D02*
X134087500Y-93662500D01*
X143148529Y-95050000D02*
X142998529Y-94900000D01*
X125157500Y-93662500D02*
X124825000Y-93330000D01*
%TO.N,/SYS_5V_LOAD*%
X155000000Y-89000000D02*
X156000000Y-88000000D01*
X149600000Y-93000000D02*
X153600000Y-89000000D01*
X149600000Y-92025000D02*
X140875000Y-83300000D01*
X163067500Y-88000000D02*
X165272500Y-85795000D01*
X153600000Y-89000000D02*
X155000000Y-89000000D01*
X156000000Y-88000000D02*
X163067500Y-88000000D01*
X149600000Y-93000000D02*
X149600000Y-92025000D01*
%TO.N,/VIN_12V*%
X116577500Y-79362500D02*
X116440000Y-79500000D01*
X116577500Y-72285000D02*
X116577500Y-79362500D01*
%TD*%
M02*
