%TF.GenerationSoftware,KiCad,Pcbnew,10.0.1*%
%TF.CreationDate,2026-05-10T02:07:07+01:00*%
%TF.ProjectId,Smart Power Management Board.,536d6172-7420-4506-9f77-6572204d616e,rev?*%
%TF.SameCoordinates,Original*%
%TF.FileFunction,Copper,L2,Bot*%
%TF.FilePolarity,Positive*%
%FSLAX46Y46*%
G04 Gerber Fmt 4.6, Leading zero omitted, Abs format (unit mm)*
G04 Created by KiCad (PCBNEW 10.0.1) date 2026-05-10 02:07:07*
%MOMM*%
%LPD*%
G01*
G04 APERTURE LIST*
G04 Aperture macros list*
%AMRoundRect*
0 Rectangle with rounded corners*
0 $1 Rounding radius*
0 $2 $3 $4 $5 $6 $7 $8 $9 X,Y pos of 4 corners*
0 Add a 4 corners polygon primitive as box body*
4,1,4,$2,$3,$4,$5,$6,$7,$8,$9,$2,$3,0*
0 Add four circle primitives for the rounded corners*
1,1,$1+$1,$2,$3*
1,1,$1+$1,$4,$5*
1,1,$1+$1,$6,$7*
1,1,$1+$1,$8,$9*
0 Add four rect primitives between the rounded corners*
20,1,$1+$1,$2,$3,$4,$5,0*
20,1,$1+$1,$4,$5,$6,$7,0*
20,1,$1+$1,$6,$7,$8,$9,0*
20,1,$1+$1,$8,$9,$2,$3,0*%
G04 Aperture macros list end*
%TA.AperFunction,ComponentPad*%
%ADD10RoundRect,0.250000X1.050000X-1.050000X1.050000X1.050000X-1.050000X1.050000X-1.050000X-1.050000X0*%
%TD*%
%TA.AperFunction,ComponentPad*%
%ADD11C,2.600000*%
%TD*%
%TA.AperFunction,ComponentPad*%
%ADD12R,1.700000X1.700000*%
%TD*%
%TA.AperFunction,ComponentPad*%
%ADD13C,1.700000*%
%TD*%
%TA.AperFunction,ComponentPad*%
%ADD14RoundRect,0.250000X-0.550000X-0.550000X0.550000X-0.550000X0.550000X0.550000X-0.550000X0.550000X0*%
%TD*%
%TA.AperFunction,ComponentPad*%
%ADD15C,1.600000*%
%TD*%
%TA.AperFunction,ComponentPad*%
%ADD16RoundRect,0.250000X0.550000X-0.550000X0.550000X0.550000X-0.550000X0.550000X-0.550000X-0.550000X0*%
%TD*%
%TA.AperFunction,HeatsinkPad*%
%ADD17C,0.500000*%
%TD*%
%TA.AperFunction,HeatsinkPad*%
%ADD18R,1.900000X2.900000*%
%TD*%
%TA.AperFunction,ComponentPad*%
%ADD19RoundRect,0.250000X-1.050000X1.050000X-1.050000X-1.050000X1.050000X-1.050000X1.050000X1.050000X0*%
%TD*%
%TA.AperFunction,ComponentPad*%
%ADD20RoundRect,0.250000X0.625000X-0.350000X0.625000X0.350000X-0.625000X0.350000X-0.625000X-0.350000X0*%
%TD*%
%TA.AperFunction,ComponentPad*%
%ADD21O,1.750000X1.200000*%
%TD*%
%TA.AperFunction,ViaPad*%
%ADD22C,0.600000*%
%TD*%
%TA.AperFunction,ViaPad*%
%ADD23C,0.800000*%
%TD*%
%TA.AperFunction,Conductor*%
%ADD24C,0.200000*%
%TD*%
G04 APERTURE END LIST*
D10*
%TO.P,J3,1,Pin_1_1*%
%TO.N,/SYS_5V_LOAD*%
X165272500Y-85795000D03*
D11*
%TO.P,J3,2,Pin_2_2*%
%TO.N,GND*%
X165272500Y-80715000D03*
%TD*%
D12*
%TO.P,J4,1,Pin_1_1*%
%TO.N,/BAT+*%
X168522500Y-94215000D03*
D13*
%TO.P,J4,2,Pin_2_2*%
%TO.N,/BAT_SENSE*%
X168522500Y-96755000D03*
%TO.P,J4,3,Pin_3_3*%
%TO.N,GND*%
X168522500Y-99295000D03*
%TD*%
D14*
%TO.P,C2,1*%
%TO.N,+5V*%
X151197349Y-84250000D03*
D15*
%TO.P,C2,2*%
%TO.N,GND*%
X154697349Y-84250000D03*
%TD*%
D16*
%TO.P,C1,1*%
%TO.N,/SYS_VIN*%
X131500000Y-63652651D03*
D15*
%TO.P,C1,2*%
%TO.N,GND*%
X131500000Y-60152651D03*
%TD*%
D17*
%TO.P,U2,9,EPAD_9*%
%TO.N,GND*%
X121650000Y-90225000D03*
X121650000Y-91425000D03*
X121650000Y-92625000D03*
D18*
X122350000Y-91425000D03*
D17*
X123050000Y-90225000D03*
X123050000Y-91425000D03*
X123050000Y-92625000D03*
%TD*%
D19*
%TO.P,J1,1,Pin_1_1*%
%TO.N,GND*%
X116577500Y-67205000D03*
D11*
%TO.P,J1,2,Pin_2_2*%
%TO.N,/VIN_12V*%
X116577500Y-72285000D03*
%TD*%
D20*
%TO.P,J2,1,Pin_1_1*%
%TO.N,/BAT+*%
X112950000Y-98000000D03*
D21*
%TO.P,J2,2,Pin_2_2*%
%TO.N,GND*%
X112950000Y-96000000D03*
%TD*%
D22*
%TO.N,+5V*%
X126500000Y-92250000D03*
X149750000Y-96050000D03*
X121000000Y-94500000D03*
%TO.N,/BAT_SENSE*%
X142000000Y-93750000D03*
X142750000Y-95500000D03*
%TO.N,/VIN_FUSED*%
X125500000Y-80000000D03*
X139750000Y-96000000D03*
%TO.N,/SYS_VIN*%
X131000000Y-80250000D03*
X131500000Y-81750000D03*
%TO.N,GND*%
X155750000Y-74500000D03*
D23*
X133250000Y-83000000D03*
X124750000Y-71000000D03*
X141750000Y-64500000D03*
D22*
X118750000Y-88000000D03*
D23*
X137750000Y-93500000D03*
D22*
X116750000Y-62750000D03*
D23*
X150500000Y-67750000D03*
D22*
X122750000Y-98250000D03*
%TO.N,/BAT+*%
X163500000Y-94500000D03*
X161750000Y-96250000D03*
%TD*%
%TO.N,+5V*%
D24*
X124250000Y-94500000D02*
X121000000Y-94500000D01*
X151197349Y-92302651D02*
X151197349Y-84250000D01*
X149750000Y-93750000D02*
X151197349Y-92302651D01*
X126500000Y-92250000D02*
X124250000Y-94500000D01*
X149750000Y-96050000D02*
X149750000Y-93750000D01*
%TO.N,/BAT_SENSE*%
X142000000Y-94750000D02*
X142000000Y-93750000D01*
X142750000Y-95500000D02*
X142000000Y-94750000D01*
%TO.N,/VIN_FUSED*%
X136000000Y-96000000D02*
X133000000Y-93000000D01*
X133000000Y-87500000D02*
X125500000Y-80000000D01*
X139750000Y-96000000D02*
X136000000Y-96000000D01*
X133000000Y-93000000D02*
X133000000Y-87500000D01*
%TO.N,/SYS_VIN*%
X131675735Y-81175735D02*
X131675735Y-80925735D01*
X131675735Y-80925735D02*
X131000000Y-80250000D01*
X131500000Y-81351470D02*
X131675735Y-81175735D01*
X131500000Y-81750000D02*
X131500000Y-81351470D01*
%TO.N,/BAT+*%
X163500000Y-94500000D02*
X163350000Y-94500000D01*
X163350000Y-94500000D02*
X161750000Y-96100000D01*
X161750000Y-96100000D02*
X161750000Y-96250000D01*
%TD*%
%TA.AperFunction,Conductor*%
%TO.N,GND*%
G36*
X173442539Y-55295185D02*
G01*
X173488294Y-55347989D01*
X173499500Y-55399500D01*
X173499500Y-109625500D01*
X173479815Y-109692539D01*
X173427011Y-109738294D01*
X173375500Y-109749500D01*
X107872000Y-109749500D01*
X107804961Y-109729815D01*
X107759206Y-109677011D01*
X107748000Y-109625500D01*
X107748000Y-104897648D01*
X110699500Y-104897648D01*
X110699500Y-105102351D01*
X110731522Y-105304534D01*
X110794781Y-105499223D01*
X110887715Y-105681613D01*
X111008028Y-105847213D01*
X111152786Y-105991971D01*
X111307749Y-106104556D01*
X111318390Y-106112287D01*
X111434607Y-106171503D01*
X111500776Y-106205218D01*
X111500778Y-106205218D01*
X111500781Y-106205220D01*
X111605137Y-106239127D01*
X111695465Y-106268477D01*
X111796557Y-106284488D01*
X111897648Y-106300500D01*
X111897649Y-106300500D01*
X112102351Y-106300500D01*
X112102352Y-106300500D01*
X112304534Y-106268477D01*
X112499219Y-106205220D01*
X112681610Y-106112287D01*
X112774590Y-106044732D01*
X112847213Y-105991971D01*
X112847215Y-105991968D01*
X112847219Y-105991966D01*
X112991966Y-105847219D01*
X112991968Y-105847215D01*
X112991971Y-105847213D01*
X113044732Y-105774590D01*
X113112287Y-105681610D01*
X113205220Y-105499219D01*
X113268477Y-105304534D01*
X113293326Y-105147648D01*
X166699500Y-105147648D01*
X166699500Y-105352351D01*
X166731522Y-105554534D01*
X166794781Y-105749223D01*
X166887715Y-105931613D01*
X167008028Y-106097213D01*
X167152786Y-106241971D01*
X167307749Y-106354556D01*
X167318390Y-106362287D01*
X167434607Y-106421503D01*
X167500776Y-106455218D01*
X167500778Y-106455218D01*
X167500781Y-106455220D01*
X167605137Y-106489127D01*
X167695465Y-106518477D01*
X167796557Y-106534488D01*
X167897648Y-106550500D01*
X167897649Y-106550500D01*
X168102351Y-106550500D01*
X168102352Y-106550500D01*
X168304534Y-106518477D01*
X168499219Y-106455220D01*
X168681610Y-106362287D01*
X168774590Y-106294732D01*
X168847213Y-106241971D01*
X168847215Y-106241968D01*
X168847219Y-106241966D01*
X168991966Y-106097219D01*
X168991968Y-106097215D01*
X168991971Y-106097213D01*
X169044732Y-106024590D01*
X169112287Y-105931610D01*
X169205220Y-105749219D01*
X169268477Y-105554534D01*
X169300500Y-105352352D01*
X169300500Y-105147648D01*
X169268477Y-104945466D01*
X169205220Y-104750781D01*
X169205218Y-104750778D01*
X169205218Y-104750776D01*
X169171503Y-104684607D01*
X169112287Y-104568390D01*
X169063163Y-104500776D01*
X168991971Y-104402786D01*
X168847213Y-104258028D01*
X168681613Y-104137715D01*
X168681612Y-104137714D01*
X168681610Y-104137713D01*
X168624653Y-104108691D01*
X168499223Y-104044781D01*
X168304534Y-103981522D01*
X168129995Y-103953878D01*
X168102352Y-103949500D01*
X167897648Y-103949500D01*
X167873329Y-103953351D01*
X167695465Y-103981522D01*
X167500776Y-104044781D01*
X167318386Y-104137715D01*
X167152786Y-104258028D01*
X167008028Y-104402786D01*
X166887715Y-104568386D01*
X166794781Y-104750776D01*
X166731522Y-104945465D01*
X166699500Y-105147648D01*
X113293326Y-105147648D01*
X113300500Y-105102352D01*
X113300500Y-104897648D01*
X113268477Y-104695466D01*
X113205220Y-104500781D01*
X113205218Y-104500778D01*
X113205218Y-104500776D01*
X113155286Y-104402781D01*
X113112287Y-104318390D01*
X113104556Y-104307749D01*
X112991971Y-104152786D01*
X112847213Y-104008028D01*
X112681613Y-103887715D01*
X112681612Y-103887714D01*
X112681610Y-103887713D01*
X112624653Y-103858691D01*
X112499223Y-103794781D01*
X112304534Y-103731522D01*
X112129995Y-103703878D01*
X112102352Y-103699500D01*
X111897648Y-103699500D01*
X111873329Y-103703351D01*
X111695465Y-103731522D01*
X111500776Y-103794781D01*
X111318386Y-103887715D01*
X111152786Y-104008028D01*
X111008028Y-104152786D01*
X110887715Y-104318386D01*
X110794781Y-104500776D01*
X110731522Y-104695465D01*
X110699500Y-104897648D01*
X107748000Y-104897648D01*
X107748000Y-97599983D01*
X111574500Y-97599983D01*
X111574500Y-98400001D01*
X111574501Y-98400019D01*
X111585000Y-98502796D01*
X111585001Y-98502799D01*
X111613052Y-98587449D01*
X111640186Y-98669334D01*
X111732288Y-98818656D01*
X111856344Y-98942712D01*
X112005666Y-99034814D01*
X112172203Y-99089999D01*
X112274991Y-99100500D01*
X113625008Y-99100499D01*
X113727797Y-99089999D01*
X113894334Y-99034814D01*
X114043656Y-98942712D01*
X114167712Y-98818656D01*
X114259814Y-98669334D01*
X114314999Y-98502797D01*
X114325500Y-98400009D01*
X114325499Y-97599992D01*
X114314999Y-97497203D01*
X114259814Y-97330666D01*
X114167712Y-97181344D01*
X114043656Y-97057288D01*
X114043655Y-97057287D01*
X113982776Y-97019737D01*
X113979018Y-97017419D01*
X113932294Y-96965472D01*
X113921071Y-96896510D01*
X113948914Y-96832428D01*
X113956434Y-96824199D01*
X114064035Y-96716598D01*
X114165804Y-96576524D01*
X114244408Y-96422255D01*
X114297914Y-96257584D01*
X114299115Y-96250000D01*
X113230330Y-96250000D01*
X113250075Y-96230255D01*
X113299444Y-96144745D01*
X113325000Y-96049370D01*
X113325000Y-95950630D01*
X113299444Y-95855255D01*
X113250075Y-95769745D01*
X113230330Y-95750000D01*
X114299115Y-95750000D01*
X114299115Y-95749999D01*
X114297914Y-95742415D01*
X114244408Y-95577744D01*
X114165804Y-95423475D01*
X114064032Y-95283397D01*
X113941602Y-95160967D01*
X113801524Y-95059195D01*
X113647257Y-94980591D01*
X113482584Y-94927085D01*
X113311571Y-94900000D01*
X113200000Y-94900000D01*
X113200000Y-95719670D01*
X113180255Y-95699925D01*
X113094745Y-95650556D01*
X112999370Y-95625000D01*
X112900630Y-95625000D01*
X112805255Y-95650556D01*
X112719745Y-95699925D01*
X112700000Y-95719670D01*
X112700000Y-94900000D01*
X112588429Y-94900000D01*
X112417415Y-94927085D01*
X112252742Y-94980591D01*
X112098475Y-95059195D01*
X111958397Y-95160967D01*
X111835967Y-95283397D01*
X111734195Y-95423475D01*
X111655591Y-95577744D01*
X111602085Y-95742415D01*
X111600884Y-95749999D01*
X111600885Y-95750000D01*
X112669670Y-95750000D01*
X112649925Y-95769745D01*
X112600556Y-95855255D01*
X112575000Y-95950630D01*
X112575000Y-96049370D01*
X112600556Y-96144745D01*
X112649925Y-96230255D01*
X112669670Y-96250000D01*
X111600885Y-96250000D01*
X111602085Y-96257584D01*
X111655591Y-96422255D01*
X111734195Y-96576524D01*
X111835967Y-96716602D01*
X111943565Y-96824200D01*
X111977050Y-96885523D01*
X111972066Y-96955215D01*
X111930194Y-97011148D01*
X111920983Y-97017418D01*
X111917224Y-97019737D01*
X111856342Y-97057289D01*
X111732289Y-97181342D01*
X111640187Y-97330663D01*
X111640186Y-97330666D01*
X111585001Y-97497203D01*
X111585001Y-97497204D01*
X111585000Y-97497204D01*
X111574500Y-97599983D01*
X107748000Y-97599983D01*
X107748000Y-94421153D01*
X120199500Y-94421153D01*
X120199500Y-94578846D01*
X120230261Y-94733489D01*
X120230264Y-94733501D01*
X120290602Y-94879172D01*
X120290609Y-94879185D01*
X120378210Y-95010288D01*
X120378213Y-95010292D01*
X120489707Y-95121786D01*
X120489711Y-95121789D01*
X120620814Y-95209390D01*
X120620827Y-95209397D01*
X120758683Y-95266498D01*
X120766503Y-95269737D01*
X120921153Y-95300499D01*
X120921156Y-95300500D01*
X120921158Y-95300500D01*
X121078844Y-95300500D01*
X121078845Y-95300499D01*
X121233497Y-95269737D01*
X121379179Y-95209394D01*
X121379185Y-95209390D01*
X121510875Y-95121398D01*
X121577553Y-95100520D01*
X121579766Y-95100500D01*
X124163331Y-95100500D01*
X124163347Y-95100501D01*
X124170943Y-95100501D01*
X124329054Y-95100501D01*
X124329057Y-95100501D01*
X124481785Y-95059577D01*
X124531904Y-95030639D01*
X124618716Y-94980520D01*
X124730520Y-94868716D01*
X124730520Y-94868714D01*
X124740728Y-94858507D01*
X124740729Y-94858504D01*
X126514664Y-93084571D01*
X126575985Y-93051088D01*
X126578152Y-93050637D01*
X126578841Y-93050500D01*
X126578842Y-93050500D01*
X126733497Y-93019737D01*
X126879179Y-92959394D01*
X127010289Y-92871789D01*
X127121789Y-92760289D01*
X127209394Y-92629179D01*
X127269737Y-92483497D01*
X127300500Y-92328842D01*
X127300500Y-92171158D01*
X127300500Y-92171155D01*
X127300499Y-92171153D01*
X127280297Y-92069592D01*
X127269737Y-92016503D01*
X127263959Y-92002553D01*
X127209397Y-91870827D01*
X127209390Y-91870814D01*
X127121789Y-91739711D01*
X127121786Y-91739707D01*
X127010292Y-91628213D01*
X127010288Y-91628210D01*
X126879185Y-91540609D01*
X126879172Y-91540602D01*
X126733501Y-91480264D01*
X126733489Y-91480261D01*
X126578845Y-91449500D01*
X126578842Y-91449500D01*
X126421158Y-91449500D01*
X126421155Y-91449500D01*
X126266510Y-91480261D01*
X126266498Y-91480264D01*
X126120827Y-91540602D01*
X126120814Y-91540609D01*
X125989711Y-91628210D01*
X125989707Y-91628213D01*
X125878213Y-91739707D01*
X125878210Y-91739711D01*
X125790609Y-91870814D01*
X125790602Y-91870827D01*
X125730264Y-92016498D01*
X125730261Y-92016508D01*
X125699362Y-92171848D01*
X125666977Y-92233759D01*
X125665426Y-92235337D01*
X124037584Y-93863181D01*
X123976261Y-93896666D01*
X123949903Y-93899500D01*
X121579766Y-93899500D01*
X121512727Y-93879815D01*
X121510875Y-93878602D01*
X121379185Y-93790609D01*
X121379172Y-93790602D01*
X121233501Y-93730264D01*
X121233489Y-93730261D01*
X121078845Y-93699500D01*
X121078842Y-93699500D01*
X120921158Y-93699500D01*
X120921155Y-93699500D01*
X120766510Y-93730261D01*
X120766498Y-93730264D01*
X120620827Y-93790602D01*
X120620814Y-93790609D01*
X120489711Y-93878210D01*
X120489707Y-93878213D01*
X120378213Y-93989707D01*
X120378210Y-93989711D01*
X120290609Y-94120814D01*
X120290602Y-94120827D01*
X120230264Y-94266498D01*
X120230261Y-94266510D01*
X120199500Y-94421153D01*
X107748000Y-94421153D01*
X107748000Y-93302577D01*
X121325975Y-93302577D01*
X121431236Y-93346178D01*
X121431240Y-93346179D01*
X121576126Y-93374999D01*
X121576129Y-93375000D01*
X121723871Y-93375000D01*
X121723873Y-93374999D01*
X121868760Y-93346179D01*
X121868775Y-93346175D01*
X121974024Y-93302578D01*
X121974024Y-93302577D01*
X122725975Y-93302577D01*
X122831236Y-93346178D01*
X122831240Y-93346179D01*
X122976126Y-93374999D01*
X122976129Y-93375000D01*
X123123871Y-93375000D01*
X123123873Y-93374999D01*
X123268760Y-93346179D01*
X123268775Y-93346175D01*
X123374024Y-93302578D01*
X123374024Y-93302577D01*
X123050001Y-92978554D01*
X123050000Y-92978554D01*
X122725975Y-93302577D01*
X121974024Y-93302577D01*
X121650001Y-92978554D01*
X121650000Y-92978554D01*
X121325975Y-93302577D01*
X107748000Y-93302577D01*
X107748000Y-92551126D01*
X120900000Y-92551126D01*
X120900000Y-92698873D01*
X120928820Y-92843759D01*
X120928822Y-92843767D01*
X120972421Y-92949024D01*
X121296446Y-92625000D01*
X121296446Y-92624999D01*
X121266610Y-92595163D01*
X121500000Y-92595163D01*
X121500000Y-92654837D01*
X121522836Y-92709968D01*
X121565032Y-92752164D01*
X121620163Y-92775000D01*
X121679837Y-92775000D01*
X121734968Y-92752164D01*
X121777164Y-92709968D01*
X121800000Y-92654837D01*
X121800000Y-92624999D01*
X122003554Y-92624999D01*
X122003554Y-92625001D01*
X122327929Y-92949376D01*
X122372069Y-92949376D01*
X122696446Y-92625000D01*
X122666609Y-92595163D01*
X122900000Y-92595163D01*
X122900000Y-92654837D01*
X122922836Y-92709968D01*
X122965032Y-92752164D01*
X123020163Y-92775000D01*
X123079837Y-92775000D01*
X123134968Y-92752164D01*
X123177164Y-92709968D01*
X123200000Y-92654837D01*
X123200000Y-92624999D01*
X123403554Y-92624999D01*
X123403554Y-92625001D01*
X123727577Y-92949024D01*
X123727578Y-92949024D01*
X123771175Y-92843775D01*
X123771179Y-92843760D01*
X123799999Y-92698873D01*
X123800000Y-92698871D01*
X123800000Y-92551128D01*
X123799999Y-92551126D01*
X123771179Y-92406240D01*
X123771178Y-92406236D01*
X123727577Y-92300975D01*
X123403554Y-92624999D01*
X123200000Y-92624999D01*
X123200000Y-92595163D01*
X123177164Y-92540032D01*
X123134968Y-92497836D01*
X123079837Y-92475000D01*
X123020163Y-92475000D01*
X122965032Y-92497836D01*
X122922836Y-92540032D01*
X122900000Y-92595163D01*
X122666609Y-92595163D01*
X122372068Y-92300622D01*
X122327930Y-92300622D01*
X122003554Y-92624999D01*
X121800000Y-92624999D01*
X121800000Y-92595163D01*
X121777164Y-92540032D01*
X121734968Y-92497836D01*
X121679837Y-92475000D01*
X121620163Y-92475000D01*
X121565032Y-92497836D01*
X121522836Y-92540032D01*
X121500000Y-92595163D01*
X121266610Y-92595163D01*
X120972421Y-92300974D01*
X120972420Y-92300974D01*
X120928823Y-92406228D01*
X120928820Y-92406240D01*
X120900000Y-92551126D01*
X107748000Y-92551126D01*
X107748000Y-92025000D01*
X121403554Y-92025000D01*
X121650000Y-92271446D01*
X121896446Y-92025000D01*
X122803554Y-92025000D01*
X123050000Y-92271446D01*
X123296446Y-92025000D01*
X123050000Y-91778554D01*
X122803554Y-92025000D01*
X121896446Y-92025000D01*
X121650000Y-91778554D01*
X121403554Y-92025000D01*
X107748000Y-92025000D01*
X107748000Y-91351126D01*
X120900000Y-91351126D01*
X120900000Y-91498873D01*
X120928820Y-91643759D01*
X120928822Y-91643767D01*
X120972421Y-91749024D01*
X121296446Y-91425000D01*
X121296446Y-91424999D01*
X121266610Y-91395163D01*
X121500000Y-91395163D01*
X121500000Y-91454837D01*
X121522836Y-91509968D01*
X121565032Y-91552164D01*
X121620163Y-91575000D01*
X121679837Y-91575000D01*
X121734968Y-91552164D01*
X121777164Y-91509968D01*
X121800000Y-91454837D01*
X121800000Y-91424999D01*
X122003554Y-91424999D01*
X122003554Y-91425001D01*
X122327929Y-91749376D01*
X122372069Y-91749376D01*
X122696446Y-91425000D01*
X122666609Y-91395163D01*
X122900000Y-91395163D01*
X122900000Y-91454837D01*
X122922836Y-91509968D01*
X122965032Y-91552164D01*
X123020163Y-91575000D01*
X123079837Y-91575000D01*
X123134968Y-91552164D01*
X123177164Y-91509968D01*
X123200000Y-91454837D01*
X123200000Y-91424999D01*
X123403554Y-91424999D01*
X123403554Y-91425001D01*
X123727577Y-91749024D01*
X123727578Y-91749024D01*
X123771175Y-91643775D01*
X123771179Y-91643760D01*
X123799999Y-91498873D01*
X123800000Y-91498871D01*
X123800000Y-91351128D01*
X123799999Y-91351126D01*
X123771179Y-91206240D01*
X123771178Y-91206236D01*
X123727577Y-91100975D01*
X123403554Y-91424999D01*
X123200000Y-91424999D01*
X123200000Y-91395163D01*
X123177164Y-91340032D01*
X123134968Y-91297836D01*
X123079837Y-91275000D01*
X123020163Y-91275000D01*
X122965032Y-91297836D01*
X122922836Y-91340032D01*
X122900000Y-91395163D01*
X122666609Y-91395163D01*
X122372068Y-91100622D01*
X122327930Y-91100622D01*
X122003554Y-91424999D01*
X121800000Y-91424999D01*
X121800000Y-91395163D01*
X121777164Y-91340032D01*
X121734968Y-91297836D01*
X121679837Y-91275000D01*
X121620163Y-91275000D01*
X121565032Y-91297836D01*
X121522836Y-91340032D01*
X121500000Y-91395163D01*
X121266610Y-91395163D01*
X120972421Y-91100974D01*
X120972420Y-91100974D01*
X120928823Y-91206228D01*
X120928820Y-91206240D01*
X120900000Y-91351126D01*
X107748000Y-91351126D01*
X107748000Y-90825000D01*
X121403554Y-90825000D01*
X121650000Y-91071446D01*
X121896446Y-90825000D01*
X122803554Y-90825000D01*
X123050000Y-91071446D01*
X123296446Y-90825000D01*
X123050000Y-90578554D01*
X122803554Y-90825000D01*
X121896446Y-90825000D01*
X121650000Y-90578554D01*
X121403554Y-90825000D01*
X107748000Y-90825000D01*
X107748000Y-90151126D01*
X120900000Y-90151126D01*
X120900000Y-90298873D01*
X120928820Y-90443759D01*
X120928822Y-90443767D01*
X120972421Y-90549024D01*
X121296446Y-90225000D01*
X121296446Y-90224999D01*
X121266610Y-90195163D01*
X121500000Y-90195163D01*
X121500000Y-90254837D01*
X121522836Y-90309968D01*
X121565032Y-90352164D01*
X121620163Y-90375000D01*
X121679837Y-90375000D01*
X121734968Y-90352164D01*
X121777164Y-90309968D01*
X121800000Y-90254837D01*
X121800000Y-90224999D01*
X122003554Y-90224999D01*
X122003554Y-90225001D01*
X122327929Y-90549376D01*
X122372069Y-90549376D01*
X122696446Y-90225000D01*
X122666609Y-90195163D01*
X122900000Y-90195163D01*
X122900000Y-90254837D01*
X122922836Y-90309968D01*
X122965032Y-90352164D01*
X123020163Y-90375000D01*
X123079837Y-90375000D01*
X123134968Y-90352164D01*
X123177164Y-90309968D01*
X123200000Y-90254837D01*
X123200000Y-90224999D01*
X123403554Y-90224999D01*
X123403554Y-90225001D01*
X123727577Y-90549024D01*
X123727578Y-90549024D01*
X123771175Y-90443775D01*
X123771179Y-90443760D01*
X123799999Y-90298873D01*
X123800000Y-90298871D01*
X123800000Y-90151128D01*
X123799999Y-90151126D01*
X123771179Y-90006240D01*
X123771178Y-90006236D01*
X123727577Y-89900975D01*
X123403554Y-90224999D01*
X123200000Y-90224999D01*
X123200000Y-90195163D01*
X123177164Y-90140032D01*
X123134968Y-90097836D01*
X123079837Y-90075000D01*
X123020163Y-90075000D01*
X122965032Y-90097836D01*
X122922836Y-90140032D01*
X122900000Y-90195163D01*
X122666609Y-90195163D01*
X122372068Y-89900622D01*
X122327930Y-89900622D01*
X122003554Y-90224999D01*
X121800000Y-90224999D01*
X121800000Y-90195163D01*
X121777164Y-90140032D01*
X121734968Y-90097836D01*
X121679837Y-90075000D01*
X121620163Y-90075000D01*
X121565032Y-90097836D01*
X121522836Y-90140032D01*
X121500000Y-90195163D01*
X121266610Y-90195163D01*
X120972421Y-89900974D01*
X120972420Y-89900974D01*
X120928823Y-90006228D01*
X120928820Y-90006240D01*
X120900000Y-90151126D01*
X107748000Y-90151126D01*
X107748000Y-89547420D01*
X121325974Y-89547420D01*
X121325974Y-89547421D01*
X121650000Y-89871446D01*
X121650001Y-89871446D01*
X121974024Y-89547421D01*
X121974022Y-89547420D01*
X122725974Y-89547420D01*
X122725974Y-89547421D01*
X123050000Y-89871446D01*
X123050001Y-89871446D01*
X123374024Y-89547421D01*
X123268767Y-89503822D01*
X123268759Y-89503820D01*
X123123872Y-89475000D01*
X122976128Y-89475000D01*
X122831240Y-89503820D01*
X122831228Y-89503823D01*
X122725974Y-89547420D01*
X121974022Y-89547420D01*
X121868767Y-89503822D01*
X121868759Y-89503820D01*
X121723872Y-89475000D01*
X121576128Y-89475000D01*
X121431240Y-89503820D01*
X121431228Y-89503823D01*
X121325974Y-89547420D01*
X107748000Y-89547420D01*
X107748000Y-79921153D01*
X124699500Y-79921153D01*
X124699500Y-80078846D01*
X124730261Y-80233489D01*
X124730264Y-80233501D01*
X124790602Y-80379172D01*
X124790609Y-80379185D01*
X124878210Y-80510288D01*
X124878213Y-80510292D01*
X124989707Y-80621786D01*
X124989711Y-80621789D01*
X125120814Y-80709390D01*
X125120827Y-80709397D01*
X125266498Y-80769735D01*
X125266503Y-80769737D01*
X125331147Y-80782595D01*
X125421849Y-80800638D01*
X125483760Y-80833023D01*
X125485339Y-80834574D01*
X132363181Y-87712416D01*
X132396666Y-87773739D01*
X132399500Y-87800097D01*
X132399500Y-92913330D01*
X132399499Y-92913348D01*
X132399499Y-93079054D01*
X132399498Y-93079054D01*
X132440423Y-93231785D01*
X132469358Y-93281900D01*
X132469359Y-93281904D01*
X132469360Y-93281904D01*
X132506468Y-93346179D01*
X132519479Y-93368714D01*
X132519481Y-93368717D01*
X132638349Y-93487585D01*
X132638354Y-93487589D01*
X135631284Y-96480520D01*
X135631286Y-96480521D01*
X135631290Y-96480524D01*
X135768209Y-96559573D01*
X135768216Y-96559577D01*
X135920943Y-96600501D01*
X135920945Y-96600501D01*
X136086654Y-96600501D01*
X136086670Y-96600500D01*
X139170234Y-96600500D01*
X139237273Y-96620185D01*
X139239125Y-96621398D01*
X139370814Y-96709390D01*
X139370827Y-96709397D01*
X139516498Y-96769735D01*
X139516503Y-96769737D01*
X139671153Y-96800499D01*
X139671156Y-96800500D01*
X139671158Y-96800500D01*
X139828844Y-96800500D01*
X139828845Y-96800499D01*
X139983497Y-96769737D01*
X140129179Y-96709394D01*
X140260289Y-96621789D01*
X140371789Y-96510289D01*
X140459394Y-96379179D01*
X140519737Y-96233497D01*
X140550500Y-96078842D01*
X140550500Y-95921158D01*
X140550500Y-95921155D01*
X140550499Y-95921153D01*
X140519737Y-95766503D01*
X140512901Y-95749999D01*
X140459397Y-95620827D01*
X140459390Y-95620814D01*
X140371789Y-95489711D01*
X140371786Y-95489707D01*
X140260292Y-95378213D01*
X140260288Y-95378210D01*
X140129185Y-95290609D01*
X140129172Y-95290602D01*
X139983501Y-95230264D01*
X139983489Y-95230261D01*
X139828845Y-95199500D01*
X139828842Y-95199500D01*
X139671158Y-95199500D01*
X139671155Y-95199500D01*
X139516510Y-95230261D01*
X139516498Y-95230264D01*
X139370827Y-95290602D01*
X139370814Y-95290609D01*
X139239125Y-95378602D01*
X139172447Y-95399480D01*
X139170234Y-95399500D01*
X136300098Y-95399500D01*
X136233059Y-95379815D01*
X136212417Y-95363181D01*
X134520389Y-93671153D01*
X141199500Y-93671153D01*
X141199500Y-93828846D01*
X141230261Y-93983489D01*
X141230264Y-93983501D01*
X141290602Y-94129172D01*
X141290609Y-94129185D01*
X141378602Y-94260874D01*
X141399480Y-94327551D01*
X141399500Y-94329765D01*
X141399500Y-94663330D01*
X141399499Y-94663348D01*
X141399499Y-94829054D01*
X141399498Y-94829054D01*
X141399499Y-94829057D01*
X141440423Y-94981785D01*
X141440424Y-94981787D01*
X141440423Y-94981787D01*
X141453986Y-95005277D01*
X141453987Y-95005279D01*
X141519475Y-95118709D01*
X141519481Y-95118717D01*
X141638349Y-95237585D01*
X141638355Y-95237590D01*
X141915425Y-95514660D01*
X141948910Y-95575983D01*
X141949361Y-95578149D01*
X141980261Y-95733491D01*
X141980264Y-95733501D01*
X142040602Y-95879172D01*
X142040609Y-95879185D01*
X142128210Y-96010288D01*
X142128213Y-96010292D01*
X142239707Y-96121786D01*
X142239711Y-96121789D01*
X142370814Y-96209390D01*
X142370827Y-96209397D01*
X142516498Y-96269735D01*
X142516503Y-96269737D01*
X142669021Y-96300075D01*
X142671153Y-96300499D01*
X142671156Y-96300500D01*
X142671158Y-96300500D01*
X142828844Y-96300500D01*
X142828845Y-96300499D01*
X142983497Y-96269737D01*
X143129179Y-96209394D01*
X143260289Y-96121789D01*
X143371789Y-96010289D01*
X143397938Y-95971153D01*
X148949500Y-95971153D01*
X148949500Y-96128846D01*
X148980261Y-96283489D01*
X148980264Y-96283501D01*
X149040602Y-96429172D01*
X149040609Y-96429185D01*
X149128210Y-96560288D01*
X149128213Y-96560292D01*
X149239707Y-96671786D01*
X149239711Y-96671789D01*
X149370814Y-96759390D01*
X149370827Y-96759397D01*
X149470060Y-96800500D01*
X149516503Y-96819737D01*
X149671153Y-96850499D01*
X149671156Y-96850500D01*
X149671158Y-96850500D01*
X149828844Y-96850500D01*
X149828845Y-96850499D01*
X149983497Y-96819737D01*
X150129179Y-96759394D01*
X150260289Y-96671789D01*
X150371789Y-96560289D01*
X150459394Y-96429179D01*
X150519737Y-96283497D01*
X150542084Y-96171153D01*
X160949500Y-96171153D01*
X160949500Y-96328846D01*
X160980261Y-96483489D01*
X160980264Y-96483501D01*
X161040602Y-96629172D01*
X161040609Y-96629185D01*
X161128210Y-96760288D01*
X161128213Y-96760292D01*
X161239707Y-96871786D01*
X161239711Y-96871789D01*
X161370814Y-96959390D01*
X161370827Y-96959397D01*
X161495767Y-97011148D01*
X161516503Y-97019737D01*
X161671153Y-97050499D01*
X161671156Y-97050500D01*
X161671158Y-97050500D01*
X161828844Y-97050500D01*
X161828845Y-97050499D01*
X161983497Y-97019737D01*
X162129179Y-96959394D01*
X162260289Y-96871789D01*
X162371789Y-96760289D01*
X162459394Y-96629179D01*
X162519737Y-96483497D01*
X162550500Y-96328842D01*
X162550500Y-96200096D01*
X162570185Y-96133057D01*
X162586819Y-96112415D01*
X163362415Y-95336819D01*
X163423738Y-95303334D01*
X163450096Y-95300500D01*
X163578844Y-95300500D01*
X163578845Y-95300499D01*
X163733497Y-95269737D01*
X163879179Y-95209394D01*
X164010289Y-95121789D01*
X164121789Y-95010289D01*
X164209394Y-94879179D01*
X164269737Y-94733497D01*
X164300500Y-94578842D01*
X164300500Y-94421158D01*
X164300500Y-94421155D01*
X164300499Y-94421153D01*
X164269737Y-94266503D01*
X164263125Y-94250539D01*
X164209397Y-94120827D01*
X164209390Y-94120814D01*
X164121789Y-93989711D01*
X164121786Y-93989707D01*
X164010292Y-93878213D01*
X164010288Y-93878210D01*
X163879185Y-93790609D01*
X163879172Y-93790602D01*
X163733501Y-93730264D01*
X163733489Y-93730261D01*
X163578845Y-93699500D01*
X163578842Y-93699500D01*
X163421158Y-93699500D01*
X163421155Y-93699500D01*
X163266510Y-93730261D01*
X163266498Y-93730264D01*
X163120827Y-93790602D01*
X163120814Y-93790609D01*
X162989711Y-93878210D01*
X162989707Y-93878213D01*
X162878213Y-93989707D01*
X162878210Y-93989711D01*
X162790609Y-94120814D01*
X162790604Y-94120823D01*
X162736875Y-94250539D01*
X162709995Y-94290767D01*
X161540770Y-95459993D01*
X161500542Y-95486873D01*
X161370824Y-95540604D01*
X161370814Y-95540609D01*
X161239711Y-95628210D01*
X161239707Y-95628213D01*
X161128213Y-95739707D01*
X161128210Y-95739711D01*
X161040609Y-95870814D01*
X161040602Y-95870827D01*
X160980264Y-96016498D01*
X160980261Y-96016510D01*
X160949500Y-96171153D01*
X150542084Y-96171153D01*
X150547337Y-96144745D01*
X150548107Y-96140875D01*
X150548107Y-96140874D01*
X150550500Y-96128844D01*
X150550500Y-95971155D01*
X150550499Y-95971153D01*
X150535585Y-95896175D01*
X150519737Y-95816503D01*
X150519735Y-95816498D01*
X150459397Y-95670827D01*
X150459390Y-95670814D01*
X150371398Y-95539125D01*
X150350520Y-95472447D01*
X150350500Y-95470234D01*
X150350500Y-94050097D01*
X150370185Y-93983058D01*
X150386819Y-93962416D01*
X151032101Y-93317135D01*
X167172000Y-93317135D01*
X167172000Y-95112870D01*
X167172001Y-95112876D01*
X167178408Y-95172483D01*
X167228702Y-95307328D01*
X167228706Y-95307335D01*
X167314952Y-95422544D01*
X167314955Y-95422547D01*
X167430164Y-95508793D01*
X167430171Y-95508797D01*
X167561582Y-95557810D01*
X167617516Y-95599681D01*
X167641933Y-95665145D01*
X167627082Y-95733418D01*
X167605931Y-95761673D01*
X167492389Y-95875215D01*
X167367451Y-96047179D01*
X167270944Y-96236585D01*
X167205253Y-96438760D01*
X167172000Y-96648713D01*
X167172000Y-96861286D01*
X167205253Y-97071239D01*
X167270944Y-97273414D01*
X167367451Y-97462820D01*
X167492390Y-97634786D01*
X167642713Y-97785109D01*
X167814679Y-97910048D01*
X167814681Y-97910049D01*
X167814684Y-97910051D01*
X167823993Y-97914794D01*
X167874790Y-97962766D01*
X167891587Y-98030587D01*
X167869052Y-98096722D01*
X167824005Y-98135760D01*
X167814946Y-98140376D01*
X167814940Y-98140380D01*
X167760782Y-98179727D01*
X167760782Y-98179728D01*
X168393091Y-98812037D01*
X168329507Y-98829075D01*
X168215493Y-98894901D01*
X168122401Y-98987993D01*
X168056575Y-99102007D01*
X168039537Y-99165591D01*
X167407228Y-98533282D01*
X167407227Y-98533282D01*
X167367880Y-98587439D01*
X167271404Y-98776782D01*
X167205742Y-98978869D01*
X167205742Y-98978872D01*
X167172500Y-99188753D01*
X167172500Y-99401246D01*
X167205742Y-99611127D01*
X167205742Y-99611130D01*
X167271404Y-99813217D01*
X167367875Y-100002550D01*
X167407228Y-100056716D01*
X168039537Y-99424408D01*
X168056575Y-99487993D01*
X168122401Y-99602007D01*
X168215493Y-99695099D01*
X168329507Y-99760925D01*
X168393090Y-99777962D01*
X167760782Y-100410269D01*
X167760782Y-100410270D01*
X167814949Y-100449624D01*
X168004282Y-100546095D01*
X168206370Y-100611757D01*
X168416254Y-100645000D01*
X168628746Y-100645000D01*
X168838627Y-100611757D01*
X168838630Y-100611757D01*
X169040717Y-100546095D01*
X169230054Y-100449622D01*
X169284216Y-100410270D01*
X169284217Y-100410270D01*
X168651908Y-99777962D01*
X168715493Y-99760925D01*
X168829507Y-99695099D01*
X168922599Y-99602007D01*
X168988425Y-99487993D01*
X169005462Y-99424408D01*
X169637770Y-100056717D01*
X169637770Y-100056716D01*
X169677122Y-100002554D01*
X169773595Y-99813217D01*
X169839257Y-99611130D01*
X169839257Y-99611127D01*
X169872500Y-99401246D01*
X169872500Y-99188753D01*
X169839257Y-98978872D01*
X169839257Y-98978869D01*
X169773595Y-98776782D01*
X169677124Y-98587449D01*
X169637770Y-98533282D01*
X169637769Y-98533282D01*
X169005462Y-99165590D01*
X168988425Y-99102007D01*
X168922599Y-98987993D01*
X168829507Y-98894901D01*
X168715493Y-98829075D01*
X168651909Y-98812037D01*
X169284216Y-98179728D01*
X169230047Y-98140373D01*
X169230047Y-98140372D01*
X169221000Y-98135763D01*
X169170206Y-98087788D01*
X169153412Y-98019966D01*
X169175951Y-97953832D01*
X169221008Y-97914793D01*
X169230316Y-97910051D01*
X169309507Y-97852515D01*
X169402286Y-97785109D01*
X169402288Y-97785106D01*
X169402292Y-97785104D01*
X169552604Y-97634792D01*
X169552606Y-97634788D01*
X169552609Y-97634786D01*
X169677548Y-97462820D01*
X169677547Y-97462820D01*
X169677551Y-97462816D01*
X169774057Y-97273412D01*
X169839746Y-97071243D01*
X169873000Y-96861287D01*
X169873000Y-96648713D01*
X169839746Y-96438757D01*
X169774057Y-96236588D01*
X169677551Y-96047184D01*
X169677549Y-96047181D01*
X169677548Y-96047179D01*
X169552609Y-95875213D01*
X169439069Y-95761673D01*
X169405584Y-95700350D01*
X169410568Y-95630658D01*
X169452440Y-95574725D01*
X169483415Y-95557810D01*
X169614831Y-95508796D01*
X169730046Y-95422546D01*
X169816296Y-95307331D01*
X169866591Y-95172483D01*
X169873000Y-95112873D01*
X169872999Y-93317128D01*
X169866591Y-93257517D01*
X169859948Y-93239707D01*
X169816297Y-93122671D01*
X169816293Y-93122664D01*
X169730047Y-93007455D01*
X169730044Y-93007452D01*
X169614835Y-92921206D01*
X169614828Y-92921202D01*
X169479982Y-92870908D01*
X169479983Y-92870908D01*
X169420383Y-92864501D01*
X169420381Y-92864500D01*
X169420373Y-92864500D01*
X169420364Y-92864500D01*
X167624629Y-92864500D01*
X167624623Y-92864501D01*
X167565016Y-92870908D01*
X167430171Y-92921202D01*
X167430164Y-92921206D01*
X167314955Y-93007452D01*
X167314952Y-93007455D01*
X167228706Y-93122664D01*
X167228702Y-93122671D01*
X167178408Y-93257517D01*
X167173564Y-93302577D01*
X167172001Y-93317123D01*
X167172000Y-93317135D01*
X151032101Y-93317135D01*
X151123111Y-93226125D01*
X151400212Y-92949024D01*
X151677869Y-92671367D01*
X151756926Y-92534435D01*
X151797850Y-92381708D01*
X151797850Y-92223593D01*
X151797850Y-92215998D01*
X151797849Y-92215980D01*
X151797849Y-85662162D01*
X151817534Y-85595123D01*
X151870338Y-85549368D01*
X151895901Y-85540907D01*
X151900137Y-85539999D01*
X151900146Y-85539999D01*
X152066683Y-85484814D01*
X152216005Y-85392712D01*
X152340061Y-85268656D01*
X152432163Y-85119334D01*
X152487348Y-84952797D01*
X152497849Y-84850009D01*
X152497848Y-84147682D01*
X153397349Y-84147682D01*
X153397349Y-84352317D01*
X153429358Y-84554417D01*
X153492593Y-84749031D01*
X153585490Y-84931350D01*
X153585496Y-84931359D01*
X153617872Y-84975921D01*
X153617873Y-84975922D01*
X154297349Y-84296446D01*
X154297349Y-84302661D01*
X154324608Y-84404394D01*
X154377269Y-84495606D01*
X154451743Y-84570080D01*
X154542955Y-84622741D01*
X154644688Y-84650000D01*
X154650902Y-84650000D01*
X153971425Y-85329474D01*
X154015999Y-85361859D01*
X154198317Y-85454755D01*
X154392931Y-85517990D01*
X154595032Y-85550000D01*
X154799666Y-85550000D01*
X155001766Y-85517990D01*
X155196380Y-85454755D01*
X155378698Y-85361859D01*
X155423270Y-85329474D01*
X154743796Y-84650000D01*
X154750010Y-84650000D01*
X154851743Y-84622741D01*
X154942955Y-84570080D01*
X155017429Y-84495606D01*
X155070090Y-84404394D01*
X155097349Y-84302661D01*
X155097349Y-84296447D01*
X155776823Y-84975921D01*
X155809208Y-84931349D01*
X155902104Y-84749031D01*
X155919666Y-84694983D01*
X163472000Y-84694983D01*
X163472000Y-86895001D01*
X163472001Y-86895018D01*
X163482500Y-86997796D01*
X163482501Y-86997799D01*
X163526734Y-87131284D01*
X163537686Y-87164334D01*
X163629788Y-87313656D01*
X163753844Y-87437712D01*
X163903166Y-87529814D01*
X164069703Y-87584999D01*
X164172491Y-87595500D01*
X166372508Y-87595499D01*
X166475297Y-87584999D01*
X166641834Y-87529814D01*
X166791156Y-87437712D01*
X166915212Y-87313656D01*
X167007314Y-87164334D01*
X167062499Y-86997797D01*
X167073000Y-86895009D01*
X167072999Y-84694992D01*
X167065618Y-84622741D01*
X167062499Y-84592203D01*
X167062498Y-84592200D01*
X167049978Y-84554417D01*
X167007314Y-84425666D01*
X166915212Y-84276344D01*
X166791156Y-84152288D01*
X166641834Y-84060186D01*
X166475297Y-84005001D01*
X166475295Y-84005000D01*
X166372510Y-83994500D01*
X164172498Y-83994500D01*
X164172481Y-83994501D01*
X164069703Y-84005000D01*
X164069700Y-84005001D01*
X163903168Y-84060185D01*
X163903163Y-84060187D01*
X163753842Y-84152289D01*
X163629789Y-84276342D01*
X163537687Y-84425663D01*
X163537686Y-84425666D01*
X163482501Y-84592203D01*
X163482501Y-84592204D01*
X163482500Y-84592204D01*
X163472000Y-84694983D01*
X155919666Y-84694983D01*
X155933140Y-84653515D01*
X155965339Y-84554417D01*
X155997349Y-84352317D01*
X155997349Y-84147682D01*
X155965339Y-83945582D01*
X155902104Y-83750968D01*
X155809208Y-83568650D01*
X155776823Y-83524077D01*
X155776823Y-83524076D01*
X155097349Y-84203551D01*
X155097349Y-84197339D01*
X155070090Y-84095606D01*
X155017429Y-84004394D01*
X154942955Y-83929920D01*
X154851743Y-83877259D01*
X154750010Y-83850000D01*
X154743795Y-83850000D01*
X155423271Y-83170524D01*
X155423270Y-83170523D01*
X155378708Y-83138147D01*
X155378699Y-83138141D01*
X155196380Y-83045244D01*
X155001766Y-82982009D01*
X154799666Y-82950000D01*
X154595032Y-82950000D01*
X154392931Y-82982009D01*
X154198317Y-83045244D01*
X154015993Y-83138143D01*
X153971426Y-83170523D01*
X153971426Y-83170524D01*
X154650903Y-83850000D01*
X154644688Y-83850000D01*
X154542955Y-83877259D01*
X154451743Y-83929920D01*
X154377269Y-84004394D01*
X154324608Y-84095606D01*
X154297349Y-84197339D01*
X154297349Y-84203553D01*
X153617873Y-83524077D01*
X153617872Y-83524077D01*
X153585492Y-83568644D01*
X153492593Y-83750968D01*
X153429358Y-83945582D01*
X153397349Y-84147682D01*
X152497848Y-84147682D01*
X152497848Y-83649992D01*
X152487348Y-83547203D01*
X152432163Y-83380666D01*
X152340061Y-83231344D01*
X152216005Y-83107288D01*
X152066683Y-83015186D01*
X151900146Y-82960001D01*
X151900144Y-82960000D01*
X151797359Y-82949500D01*
X150597347Y-82949500D01*
X150597330Y-82949501D01*
X150494552Y-82960000D01*
X150494549Y-82960001D01*
X150328017Y-83015185D01*
X150328012Y-83015187D01*
X150178691Y-83107289D01*
X150054638Y-83231342D01*
X149962536Y-83380663D01*
X149962535Y-83380666D01*
X149907350Y-83547203D01*
X149907350Y-83547204D01*
X149907349Y-83547204D01*
X149896849Y-83649983D01*
X149896849Y-84850001D01*
X149896850Y-84850018D01*
X149907349Y-84952796D01*
X149907350Y-84952799D01*
X149962534Y-85119331D01*
X149962535Y-85119334D01*
X150054637Y-85268656D01*
X150178693Y-85392712D01*
X150328015Y-85484814D01*
X150494552Y-85539999D01*
X150494558Y-85539999D01*
X150498797Y-85540907D01*
X150560233Y-85574185D01*
X150593925Y-85635394D01*
X150596849Y-85662162D01*
X150596849Y-92002553D01*
X150577164Y-92069592D01*
X150560530Y-92090234D01*
X149269481Y-93381282D01*
X149269479Y-93381285D01*
X149219361Y-93468094D01*
X149219359Y-93468096D01*
X149190425Y-93518209D01*
X149190424Y-93518210D01*
X149190423Y-93518215D01*
X149149499Y-93670943D01*
X149149499Y-93670945D01*
X149149499Y-93839046D01*
X149149500Y-93839059D01*
X149149500Y-95470234D01*
X149129815Y-95537273D01*
X149128602Y-95539125D01*
X149040609Y-95670814D01*
X149040602Y-95670827D01*
X148980264Y-95816498D01*
X148980261Y-95816510D01*
X148949500Y-95971153D01*
X143397938Y-95971153D01*
X143420537Y-95937331D01*
X143448038Y-95896175D01*
X143448038Y-95896174D01*
X143459394Y-95879179D01*
X143462854Y-95870827D01*
X143485357Y-95816498D01*
X143519737Y-95733497D01*
X143550500Y-95578842D01*
X143550500Y-95421158D01*
X143550500Y-95421155D01*
X143550499Y-95421153D01*
X143541957Y-95378210D01*
X143519737Y-95266503D01*
X143504833Y-95230521D01*
X143459397Y-95120827D01*
X143459390Y-95120814D01*
X143371789Y-94989711D01*
X143371786Y-94989707D01*
X143260292Y-94878213D01*
X143260288Y-94878210D01*
X143129185Y-94790609D01*
X143129172Y-94790602D01*
X142983501Y-94730264D01*
X142983491Y-94730261D01*
X142828149Y-94699361D01*
X142811392Y-94690595D01*
X142792914Y-94686576D01*
X142767877Y-94667833D01*
X142766238Y-94666976D01*
X142764660Y-94665425D01*
X142636819Y-94537584D01*
X142603334Y-94476261D01*
X142600500Y-94449903D01*
X142600500Y-94329765D01*
X142620185Y-94262726D01*
X142621398Y-94260874D01*
X142709390Y-94129185D01*
X142709390Y-94129184D01*
X142709394Y-94129179D01*
X142712854Y-94120827D01*
X142723067Y-94096166D01*
X142769737Y-93983497D01*
X142800500Y-93828842D01*
X142800500Y-93671158D01*
X142800500Y-93671155D01*
X142800499Y-93671153D01*
X142800457Y-93670943D01*
X142769737Y-93516503D01*
X142754833Y-93480521D01*
X142709397Y-93370827D01*
X142709390Y-93370814D01*
X142621789Y-93239711D01*
X142621786Y-93239707D01*
X142510292Y-93128213D01*
X142510288Y-93128210D01*
X142379185Y-93040609D01*
X142379172Y-93040602D01*
X142233501Y-92980264D01*
X142233489Y-92980261D01*
X142078845Y-92949500D01*
X142078842Y-92949500D01*
X141921158Y-92949500D01*
X141921155Y-92949500D01*
X141766510Y-92980261D01*
X141766498Y-92980264D01*
X141620827Y-93040602D01*
X141620814Y-93040609D01*
X141489711Y-93128210D01*
X141489707Y-93128213D01*
X141378213Y-93239707D01*
X141378210Y-93239711D01*
X141290609Y-93370814D01*
X141290602Y-93370827D01*
X141230264Y-93516498D01*
X141230261Y-93516510D01*
X141199500Y-93671153D01*
X134520389Y-93671153D01*
X133636819Y-92787583D01*
X133603334Y-92726260D01*
X133600500Y-92699902D01*
X133600500Y-87589060D01*
X133600501Y-87589047D01*
X133600501Y-87420944D01*
X133571753Y-87313657D01*
X133559577Y-87268216D01*
X133559573Y-87268209D01*
X133480524Y-87131290D01*
X133480518Y-87131282D01*
X126520389Y-80171153D01*
X130199500Y-80171153D01*
X130199500Y-80328846D01*
X130230261Y-80483489D01*
X130230264Y-80483501D01*
X130290602Y-80629172D01*
X130290609Y-80629185D01*
X130378210Y-80760288D01*
X130378213Y-80760292D01*
X130489707Y-80871786D01*
X130489711Y-80871789D01*
X130620814Y-80959390D01*
X130620827Y-80959397D01*
X130730432Y-81004796D01*
X130766503Y-81019737D01*
X130815626Y-81029508D01*
X130877536Y-81061892D01*
X130912110Y-81122607D01*
X130908371Y-81192377D01*
X130881703Y-81234704D01*
X130882072Y-81235007D01*
X130879664Y-81237940D01*
X130879124Y-81238798D01*
X130878211Y-81239710D01*
X130878208Y-81239714D01*
X130790609Y-81370814D01*
X130790602Y-81370827D01*
X130730264Y-81516498D01*
X130730261Y-81516510D01*
X130699500Y-81671153D01*
X130699500Y-81828846D01*
X130730261Y-81983489D01*
X130730264Y-81983501D01*
X130790602Y-82129172D01*
X130790609Y-82129185D01*
X130878210Y-82260288D01*
X130878213Y-82260292D01*
X130989707Y-82371786D01*
X130989711Y-82371789D01*
X131120814Y-82459390D01*
X131120827Y-82459397D01*
X131180708Y-82484200D01*
X131266503Y-82519737D01*
X131421153Y-82550499D01*
X131421156Y-82550500D01*
X131421158Y-82550500D01*
X131578844Y-82550500D01*
X131578845Y-82550499D01*
X131733497Y-82519737D01*
X131879179Y-82459394D01*
X132010289Y-82371789D01*
X132121789Y-82260289D01*
X132209394Y-82129179D01*
X132209395Y-82129176D01*
X132209397Y-82129173D01*
X132239344Y-82056873D01*
X132239344Y-82056872D01*
X132269737Y-81983497D01*
X132300500Y-81828842D01*
X132300500Y-81671158D01*
X132300500Y-81671155D01*
X132300499Y-81671153D01*
X132269738Y-81516510D01*
X132269737Y-81516503D01*
X132247209Y-81462118D01*
X132239741Y-81392651D01*
X132241992Y-81382587D01*
X132276236Y-81254792D01*
X132276236Y-81096678D01*
X132276236Y-81089083D01*
X132276235Y-81089065D01*
X132276235Y-81014795D01*
X132276236Y-81014782D01*
X132276236Y-80846679D01*
X132276236Y-80846678D01*
X132235312Y-80693951D01*
X132212801Y-80654960D01*
X132179346Y-80597014D01*
X163472500Y-80597014D01*
X163472500Y-80832985D01*
X163503299Y-81066914D01*
X163564370Y-81294837D01*
X163654660Y-81512819D01*
X163654665Y-81512828D01*
X163772644Y-81717171D01*
X163772645Y-81717172D01*
X163835221Y-81798723D01*
X164671458Y-80962487D01*
X164696478Y-81022890D01*
X164767612Y-81129351D01*
X164858149Y-81219888D01*
X164964610Y-81291022D01*
X165025011Y-81316041D01*
X164188775Y-82152277D01*
X164270327Y-82214854D01*
X164270328Y-82214855D01*
X164474671Y-82332834D01*
X164474680Y-82332839D01*
X164692663Y-82423129D01*
X164692661Y-82423129D01*
X164920585Y-82484200D01*
X165154514Y-82514999D01*
X165154529Y-82515000D01*
X165390471Y-82515000D01*
X165390485Y-82514999D01*
X165624414Y-82484200D01*
X165852337Y-82423129D01*
X166070319Y-82332839D01*
X166070328Y-82332834D01*
X166274681Y-82214850D01*
X166356223Y-82152279D01*
X166356223Y-82152276D01*
X165519987Y-81316041D01*
X165580390Y-81291022D01*
X165686851Y-81219888D01*
X165777388Y-81129351D01*
X165848522Y-81022890D01*
X165873541Y-80962488D01*
X166709776Y-81798723D01*
X166709779Y-81798723D01*
X166772350Y-81717181D01*
X166890334Y-81512828D01*
X166890339Y-81512819D01*
X166980629Y-81294837D01*
X167041700Y-81066914D01*
X167072499Y-80832985D01*
X167072500Y-80832971D01*
X167072500Y-80597028D01*
X167072499Y-80597014D01*
X167041700Y-80363085D01*
X166980629Y-80135162D01*
X166890339Y-79917180D01*
X166890334Y-79917171D01*
X166772355Y-79712828D01*
X166772354Y-79712827D01*
X166709777Y-79631275D01*
X165873541Y-80467511D01*
X165848522Y-80407110D01*
X165777388Y-80300649D01*
X165686851Y-80210112D01*
X165580390Y-80138978D01*
X165519988Y-80113958D01*
X166356223Y-79277721D01*
X166274672Y-79215145D01*
X166274671Y-79215144D01*
X166070328Y-79097165D01*
X166070319Y-79097160D01*
X165852336Y-79006870D01*
X165852338Y-79006870D01*
X165624414Y-78945799D01*
X165390485Y-78915000D01*
X165154514Y-78915000D01*
X164920585Y-78945799D01*
X164692662Y-79006870D01*
X164474680Y-79097160D01*
X164474671Y-79097165D01*
X164270328Y-79215144D01*
X164270318Y-79215150D01*
X164188775Y-79277720D01*
X164188775Y-79277721D01*
X165025012Y-80113958D01*
X164964610Y-80138978D01*
X164858149Y-80210112D01*
X164767612Y-80300649D01*
X164696478Y-80407110D01*
X164671458Y-80467512D01*
X163835221Y-79631275D01*
X163835220Y-79631275D01*
X163772650Y-79712818D01*
X163772644Y-79712828D01*
X163654665Y-79917171D01*
X163654660Y-79917180D01*
X163564370Y-80135162D01*
X163503299Y-80363085D01*
X163472500Y-80597014D01*
X132179346Y-80597014D01*
X132156257Y-80557022D01*
X132156253Y-80557017D01*
X131834573Y-80235337D01*
X131801088Y-80174014D01*
X131800637Y-80171847D01*
X131782137Y-80078842D01*
X131769737Y-80016503D01*
X131756828Y-79985337D01*
X131709397Y-79870827D01*
X131709390Y-79870814D01*
X131621789Y-79739711D01*
X131621786Y-79739707D01*
X131510292Y-79628213D01*
X131510288Y-79628210D01*
X131379185Y-79540609D01*
X131379172Y-79540602D01*
X131233501Y-79480264D01*
X131233489Y-79480261D01*
X131078845Y-79449500D01*
X131078842Y-79449500D01*
X130921158Y-79449500D01*
X130921155Y-79449500D01*
X130766510Y-79480261D01*
X130766498Y-79480264D01*
X130620827Y-79540602D01*
X130620814Y-79540609D01*
X130489711Y-79628210D01*
X130489707Y-79628213D01*
X130378213Y-79739707D01*
X130378210Y-79739711D01*
X130290609Y-79870814D01*
X130290602Y-79870827D01*
X130230264Y-80016498D01*
X130230261Y-80016510D01*
X130199500Y-80171153D01*
X126520389Y-80171153D01*
X126334573Y-79985337D01*
X126301088Y-79924014D01*
X126300637Y-79921847D01*
X126269738Y-79766510D01*
X126269737Y-79766503D01*
X126269735Y-79766498D01*
X126209397Y-79620827D01*
X126209390Y-79620814D01*
X126121789Y-79489711D01*
X126121786Y-79489707D01*
X126010292Y-79378213D01*
X126010288Y-79378210D01*
X125879185Y-79290609D01*
X125879172Y-79290602D01*
X125733501Y-79230264D01*
X125733489Y-79230261D01*
X125578845Y-79199500D01*
X125578842Y-79199500D01*
X125421158Y-79199500D01*
X125421155Y-79199500D01*
X125266510Y-79230261D01*
X125266498Y-79230264D01*
X125120827Y-79290602D01*
X125120814Y-79290609D01*
X124989711Y-79378210D01*
X124989707Y-79378213D01*
X124878213Y-79489707D01*
X124878210Y-79489711D01*
X124790609Y-79620814D01*
X124790602Y-79620827D01*
X124730264Y-79766498D01*
X124730261Y-79766510D01*
X124699500Y-79921153D01*
X107748000Y-79921153D01*
X107748000Y-72166995D01*
X114777000Y-72166995D01*
X114777000Y-72403004D01*
X114777001Y-72403020D01*
X114807806Y-72637010D01*
X114868894Y-72864993D01*
X114959214Y-73083045D01*
X114959219Y-73083056D01*
X115030177Y-73205957D01*
X115077227Y-73287450D01*
X115077229Y-73287453D01*
X115077230Y-73287454D01*
X115220906Y-73474697D01*
X115220912Y-73474704D01*
X115387795Y-73641587D01*
X115387801Y-73641592D01*
X115575050Y-73785273D01*
X115706418Y-73861118D01*
X115779443Y-73903280D01*
X115779448Y-73903282D01*
X115779451Y-73903284D01*
X115997507Y-73993606D01*
X116225486Y-74054693D01*
X116459489Y-74085500D01*
X116459496Y-74085500D01*
X116695504Y-74085500D01*
X116695511Y-74085500D01*
X116929514Y-74054693D01*
X117157493Y-73993606D01*
X117375549Y-73903284D01*
X117579950Y-73785273D01*
X117767199Y-73641592D01*
X117934092Y-73474699D01*
X118077773Y-73287450D01*
X118195784Y-73083049D01*
X118286106Y-72864993D01*
X118347193Y-72637014D01*
X118378000Y-72403011D01*
X118378000Y-72166989D01*
X118347193Y-71932986D01*
X118286106Y-71705007D01*
X118195784Y-71486951D01*
X118195782Y-71486948D01*
X118195780Y-71486943D01*
X118153618Y-71413918D01*
X118077773Y-71282550D01*
X117934092Y-71095301D01*
X117934087Y-71095295D01*
X117767204Y-70928412D01*
X117767197Y-70928406D01*
X117579954Y-70784730D01*
X117579953Y-70784729D01*
X117579950Y-70784727D01*
X117498457Y-70737677D01*
X117375556Y-70666719D01*
X117375545Y-70666714D01*
X117157493Y-70576394D01*
X116929510Y-70515306D01*
X116695520Y-70484501D01*
X116695517Y-70484500D01*
X116695511Y-70484500D01*
X116459489Y-70484500D01*
X116459483Y-70484500D01*
X116459479Y-70484501D01*
X116225489Y-70515306D01*
X115997506Y-70576394D01*
X115779454Y-70666714D01*
X115779443Y-70666719D01*
X115575045Y-70784730D01*
X115387802Y-70928406D01*
X115387795Y-70928412D01*
X115220912Y-71095295D01*
X115220906Y-71095302D01*
X115077230Y-71282545D01*
X114959219Y-71486943D01*
X114959214Y-71486954D01*
X114868894Y-71705006D01*
X114807806Y-71932989D01*
X114777001Y-72166979D01*
X114777000Y-72166995D01*
X107748000Y-72166995D01*
X107748000Y-66105013D01*
X114777500Y-66105013D01*
X114777500Y-66955000D01*
X115977499Y-66955000D01*
X115952479Y-67015402D01*
X115927500Y-67140981D01*
X115927500Y-67269019D01*
X115952479Y-67394598D01*
X115977499Y-67455000D01*
X114777501Y-67455000D01*
X114777501Y-68304986D01*
X114787994Y-68407697D01*
X114843141Y-68574119D01*
X114843143Y-68574124D01*
X114935184Y-68723345D01*
X115059154Y-68847315D01*
X115208375Y-68939356D01*
X115208380Y-68939358D01*
X115374802Y-68994505D01*
X115374809Y-68994506D01*
X115477519Y-69004999D01*
X116327499Y-69004999D01*
X116327500Y-69004998D01*
X116327500Y-67805001D01*
X116387902Y-67830021D01*
X116513481Y-67855000D01*
X116641519Y-67855000D01*
X116767098Y-67830021D01*
X116827500Y-67805001D01*
X116827500Y-69004999D01*
X117677472Y-69004999D01*
X117677486Y-69004998D01*
X117780197Y-68994505D01*
X117946619Y-68939358D01*
X117946624Y-68939356D01*
X118095845Y-68847315D01*
X118219815Y-68723345D01*
X118311856Y-68574124D01*
X118311858Y-68574119D01*
X118367005Y-68407697D01*
X118367006Y-68407690D01*
X118377499Y-68304986D01*
X118377500Y-68304973D01*
X118377500Y-67455000D01*
X117177501Y-67455000D01*
X117202521Y-67394598D01*
X117227500Y-67269019D01*
X117227500Y-67140981D01*
X117202521Y-67015402D01*
X117177501Y-66955000D01*
X118377499Y-66955000D01*
X118377499Y-66105028D01*
X118377498Y-66105013D01*
X118367005Y-66002302D01*
X118311858Y-65835880D01*
X118311856Y-65835875D01*
X118219815Y-65686654D01*
X118095845Y-65562684D01*
X117946624Y-65470643D01*
X117946619Y-65470641D01*
X117780197Y-65415494D01*
X117780190Y-65415493D01*
X117677486Y-65405000D01*
X116827500Y-65405000D01*
X116827500Y-66604998D01*
X116767098Y-66579979D01*
X116641519Y-66555000D01*
X116513481Y-66555000D01*
X116387902Y-66579979D01*
X116327500Y-66604998D01*
X116327500Y-65405000D01*
X115477528Y-65405000D01*
X115477512Y-65405001D01*
X115374802Y-65415494D01*
X115208380Y-65470641D01*
X115208375Y-65470643D01*
X115059154Y-65562684D01*
X114935184Y-65686654D01*
X114843143Y-65835875D01*
X114843141Y-65835880D01*
X114787994Y-66002302D01*
X114787993Y-66002309D01*
X114777500Y-66105013D01*
X107748000Y-66105013D01*
X107748000Y-63052634D01*
X130199500Y-63052634D01*
X130199500Y-64252652D01*
X130199501Y-64252669D01*
X130210000Y-64355447D01*
X130210001Y-64355450D01*
X130265185Y-64521982D01*
X130265186Y-64521985D01*
X130357288Y-64671307D01*
X130481344Y-64795363D01*
X130630666Y-64887465D01*
X130797203Y-64942650D01*
X130899991Y-64953151D01*
X132100008Y-64953150D01*
X132202797Y-64942650D01*
X132369334Y-64887465D01*
X132518656Y-64795363D01*
X132642712Y-64671307D01*
X132734814Y-64521985D01*
X132789999Y-64355448D01*
X132800500Y-64252660D01*
X132800499Y-63052643D01*
X132789999Y-62949854D01*
X132734814Y-62783317D01*
X132642712Y-62633995D01*
X132518656Y-62509939D01*
X132369334Y-62417837D01*
X132202797Y-62362652D01*
X132202795Y-62362651D01*
X132100010Y-62352151D01*
X130899998Y-62352151D01*
X130899981Y-62352152D01*
X130797203Y-62362651D01*
X130797200Y-62362652D01*
X130630668Y-62417836D01*
X130630663Y-62417838D01*
X130481342Y-62509940D01*
X130357289Y-62633993D01*
X130265187Y-62783314D01*
X130265186Y-62783317D01*
X130210001Y-62949854D01*
X130210001Y-62949855D01*
X130210000Y-62949855D01*
X130199500Y-63052634D01*
X107748000Y-63052634D01*
X107748000Y-59397648D01*
X110699500Y-59397648D01*
X110699500Y-59602351D01*
X110731522Y-59804534D01*
X110794781Y-59999223D01*
X110887715Y-60181613D01*
X111008028Y-60347213D01*
X111152786Y-60491971D01*
X111236307Y-60552651D01*
X111318390Y-60612287D01*
X111434607Y-60671503D01*
X111500776Y-60705218D01*
X111500778Y-60705218D01*
X111500781Y-60705220D01*
X111605137Y-60739127D01*
X111695465Y-60768477D01*
X111796557Y-60784488D01*
X111897648Y-60800500D01*
X111897649Y-60800500D01*
X112102351Y-60800500D01*
X112102352Y-60800500D01*
X112304534Y-60768477D01*
X112499219Y-60705220D01*
X112681610Y-60612287D01*
X112801212Y-60525392D01*
X112847213Y-60491971D01*
X112847215Y-60491968D01*
X112847219Y-60491966D01*
X112991966Y-60347219D01*
X112991968Y-60347215D01*
X112991971Y-60347213D01*
X113058990Y-60254968D01*
X113112287Y-60181610D01*
X113179176Y-60050333D01*
X130200000Y-60050333D01*
X130200000Y-60254968D01*
X130232009Y-60457068D01*
X130295244Y-60651682D01*
X130388141Y-60834001D01*
X130388147Y-60834010D01*
X130420523Y-60878572D01*
X130420524Y-60878573D01*
X131100000Y-60199097D01*
X131100000Y-60205312D01*
X131127259Y-60307045D01*
X131179920Y-60398257D01*
X131254394Y-60472731D01*
X131345606Y-60525392D01*
X131447339Y-60552651D01*
X131453553Y-60552651D01*
X130774076Y-61232125D01*
X130818650Y-61264510D01*
X131000968Y-61357406D01*
X131195582Y-61420641D01*
X131397683Y-61452651D01*
X131602317Y-61452651D01*
X131804417Y-61420641D01*
X131999031Y-61357406D01*
X132181349Y-61264510D01*
X132225921Y-61232125D01*
X131546447Y-60552651D01*
X131552661Y-60552651D01*
X131654394Y-60525392D01*
X131745606Y-60472731D01*
X131820080Y-60398257D01*
X131872741Y-60307045D01*
X131900000Y-60205312D01*
X131900000Y-60199098D01*
X132579474Y-60878572D01*
X132611859Y-60834000D01*
X132704755Y-60651682D01*
X132767990Y-60457068D01*
X132800000Y-60254968D01*
X132800000Y-60050333D01*
X132767990Y-59848233D01*
X132704755Y-59653619D01*
X132611859Y-59471301D01*
X132579474Y-59426728D01*
X132579474Y-59426727D01*
X131900000Y-60106202D01*
X131900000Y-60099990D01*
X131872741Y-59998257D01*
X131820080Y-59907045D01*
X131745606Y-59832571D01*
X131654394Y-59779910D01*
X131552661Y-59752651D01*
X131546446Y-59752651D01*
X132151449Y-59147648D01*
X167199500Y-59147648D01*
X167199500Y-59352351D01*
X167231522Y-59554534D01*
X167294781Y-59749223D01*
X167320194Y-59799097D01*
X167375196Y-59907045D01*
X167387715Y-59931613D01*
X167508028Y-60097213D01*
X167652786Y-60241971D01*
X167807749Y-60354556D01*
X167818390Y-60362287D01*
X167934607Y-60421503D01*
X168000776Y-60455218D01*
X168000778Y-60455218D01*
X168000781Y-60455220D01*
X168105137Y-60489127D01*
X168195465Y-60518477D01*
X168296557Y-60534488D01*
X168397648Y-60550500D01*
X168397649Y-60550500D01*
X168602351Y-60550500D01*
X168602352Y-60550500D01*
X168804534Y-60518477D01*
X168999219Y-60455220D01*
X169181610Y-60362287D01*
X169274590Y-60294732D01*
X169347213Y-60241971D01*
X169347215Y-60241968D01*
X169347219Y-60241966D01*
X169491966Y-60097219D01*
X169491968Y-60097215D01*
X169491971Y-60097213D01*
X169544732Y-60024590D01*
X169612287Y-59931610D01*
X169705220Y-59749219D01*
X169768477Y-59554534D01*
X169800500Y-59352352D01*
X169800500Y-59147648D01*
X169768477Y-58945465D01*
X169705218Y-58750776D01*
X169655286Y-58652781D01*
X169612287Y-58568390D01*
X169604556Y-58557749D01*
X169491971Y-58402786D01*
X169347213Y-58258028D01*
X169181613Y-58137715D01*
X169181612Y-58137714D01*
X169181610Y-58137713D01*
X169124653Y-58108691D01*
X168999223Y-58044781D01*
X168804534Y-57981522D01*
X168629995Y-57953878D01*
X168602352Y-57949500D01*
X168397648Y-57949500D01*
X168373329Y-57953351D01*
X168195465Y-57981522D01*
X168000776Y-58044781D01*
X167818386Y-58137715D01*
X167652786Y-58258028D01*
X167508028Y-58402786D01*
X167387715Y-58568386D01*
X167294781Y-58750776D01*
X167231522Y-58945465D01*
X167199500Y-59147648D01*
X132151449Y-59147648D01*
X132225922Y-59073175D01*
X132225921Y-59073174D01*
X132181359Y-59040798D01*
X132181350Y-59040792D01*
X131999031Y-58947895D01*
X131804417Y-58884660D01*
X131602317Y-58852651D01*
X131397683Y-58852651D01*
X131195582Y-58884660D01*
X131000968Y-58947895D01*
X130818644Y-59040794D01*
X130774077Y-59073174D01*
X130774077Y-59073175D01*
X131453554Y-59752651D01*
X131447339Y-59752651D01*
X131345606Y-59779910D01*
X131254394Y-59832571D01*
X131179920Y-59907045D01*
X131127259Y-59998257D01*
X131100000Y-60099990D01*
X131100000Y-60106204D01*
X130420524Y-59426728D01*
X130420523Y-59426728D01*
X130388143Y-59471295D01*
X130295244Y-59653619D01*
X130232009Y-59848233D01*
X130200000Y-60050333D01*
X113179176Y-60050333D01*
X113205220Y-59999219D01*
X113268477Y-59804534D01*
X113300500Y-59602352D01*
X113300500Y-59397648D01*
X113268477Y-59195466D01*
X113205220Y-59000781D01*
X113112287Y-58818390D01*
X113063163Y-58750776D01*
X112991971Y-58652786D01*
X112847213Y-58508028D01*
X112681613Y-58387715D01*
X112681612Y-58387714D01*
X112681610Y-58387713D01*
X112624653Y-58358691D01*
X112499223Y-58294781D01*
X112304534Y-58231522D01*
X112129995Y-58203878D01*
X112102352Y-58199500D01*
X111897648Y-58199500D01*
X111873329Y-58203351D01*
X111695465Y-58231522D01*
X111500776Y-58294781D01*
X111318386Y-58387715D01*
X111152786Y-58508028D01*
X111008028Y-58652786D01*
X110887715Y-58818386D01*
X110794781Y-59000776D01*
X110731522Y-59195465D01*
X110699500Y-59397648D01*
X107748000Y-59397648D01*
X107748000Y-55399500D01*
X107767685Y-55332461D01*
X107820489Y-55286706D01*
X107872000Y-55275500D01*
X173375500Y-55275500D01*
X173442539Y-55295185D01*
G37*
%TD.AperFunction*%
%TD*%
M02*
