M48
; DRILL file KiCad 10.0.1 date 2026-05-10T02:07:04
; FORMAT={-:-/ absolute / metric / decimal}
; #@! TF.CreationDate,2026-05-10T02:07:04+01:00
; #@! TF.GenerationSoftware,Kicad,Pcbnew,10.0.1
; #@! TF.FileFunction,Plated,1,2,PTH
FMAT,2
METRIC
; #@! TA.AperFunction,Plated,PTH,ViaDrill
T1C0.300
; #@! TA.AperFunction,Plated,PTH,ComponentDrill
T2C0.300
; #@! TA.AperFunction,Plated,PTH,ViaDrill
T3C0.400
; #@! TA.AperFunction,Plated,PTH,ComponentDrill
T4C0.750
; #@! TA.AperFunction,Plated,PTH,ComponentDrill
T5C0.800
; #@! TA.AperFunction,Plated,PTH,ComponentDrill
T6C1.000
; #@! TA.AperFunction,Plated,PTH,ComponentDrill
T7C1.300
%
G90
G05
T1
X116.75Y-62.75
X118.75Y-88.0
X121.0Y-94.5
X122.75Y-98.25
X125.5Y-80.0
X126.5Y-92.25
X131.0Y-80.25
X131.5Y-81.75
X139.75Y-96.0
X142.0Y-93.75
X142.75Y-95.5
X149.75Y-96.05
X155.75Y-74.5
X161.75Y-96.25
X163.5Y-94.5
T2
X121.65Y-90.225
X121.65Y-91.425
X121.65Y-92.625
X123.05Y-90.225
X123.05Y-91.425
X123.05Y-92.625
T3
X124.75Y-71.0
X133.25Y-83.0
X137.75Y-93.5
X141.75Y-64.5
X150.5Y-67.75
T4
X112.95Y-96.0
X112.95Y-98.0
T5
X131.5Y-60.153
X131.5Y-63.653
X151.197Y-84.25
X154.697Y-84.25
T6
X168.522Y-94.215
X168.522Y-96.755
X168.522Y-99.295
T7
X116.578Y-67.205
X116.578Y-72.285
X165.272Y-80.715
X165.272Y-85.795
M30
